{
.appVersion = "1075";
DisplayStrings = (
AWNBCPDNEFGHUIJKLMNWORKPQRSTUVWXYZabcdefghijklmnopqrstuvwxyz,
A,
E,
L,
F,
G,
H,
I,
P,
Q,
S,
R,
K,
o,
"/khoKhuat-thai",
"/soSo-thai",
"/choChang-thai"
);
copyright = "Copyright © 2018 by Cadson Demak Co.,Ltd.. All rights reserved.";
customParameters = (
{
name = vendorID;
value = CDK;
},
{
name = description;
value = "Copyright (c) 2018, Cadson Demak (info@cadsondemak.com)";
},
{
name = license;

glyphs = (
{
color = 4;
glyphname = A;
lastChange = "2018-01-22 11:28:02 +0000";
layers = (
{
layerId = "0B1DFD06-3317-40CA-B510-4969A0718C16";
paths = (
{
closed = 1;
nodes = (
"156 218 LINE",
"465 218 LINE",
"551 -9 LINE",
"581 3 OFFCURVE",
"597 37 OFFCURVE",
"585 68 CURVE SMOOTH",
"338 691 LINE SMOOTH",
"333 703 OFFCURVE",
"321 709 OFFCURVE",
"310 709 CURVE SMOOTH",
"296 709 OFFCURVE",
"286 703 OFFCURVE",
"282 691 CURVE SMOOTH",
"34 68 LINE SMOOTH",
"22 37 OFFCURVE",
"37 3 OFFCURVE",
"68 -9 CURVE"
);
},
{
closed = 1;
nodes = (
"307 609 LINE",
"295 641 LINE",
"299 643 LINE",
"444 272 LINE",
"176 272 LINE"
);
}
);
width = 619;
}
);
note = A;
unicode = 0041;
},
{
color = 4;
glyphname = B;
lastChange = "2018-01-22 11:48:47 +0000";
layers = (
{
background = {
paths = (
{
closed = 1;
nodes = (
"553 395 OFFCURVE",
"582 460 OFFCURVE",
"582 513 CURVE SMOOTH",
"582 610 OFFCURVE",
"504 700 OFFCURVE",
"405 700 CURVE SMOOTH",
"118 700 LINE SMOOTH",
"102 700 OFFCURVE",
"88 688 OFFCURVE",
"88 671 CURVE SMOOTH",
"88 29 LINE SMOOTH",
"88 13 OFFCURVE",
"102 0 OFFCURVE",
"118 0 CURVE SMOOTH",
"464 0 LINE SMOOTH",
"576 0 OFFCURVE",
"641 88 OFFCURVE",
"641 190 CURVE SMOOTH",
"641 274 OFFCURVE",
"590 349 OFFCURVE",
"501 368 CURVE"
);
},
{
closed = 1;
nodes = (
"147 647 LINE",
"195 647 OFFCURVE",
"405 647 OFFCURVE",
"405 647 CURVE",
"472 647 OFFCURVE",
"523 576 OFFCURVE",
"523 513 CURVE SMOOTH",
"523 450 OFFCURVE",
"472 377 OFFCURVE",
"405 377 CURVE SMOOTH",
"405 377 OFFCURVE",
"195 377 OFFCURVE",
"147 377 CURVE"
);
},
{
closed = 1;
nodes = (
"147 53 LINE",
"147 324 LINE",
"464 324 LINE SMOOTH",
"531 324 OFFCURVE",
"582 273 OFFCURVE",
"582 190 CURVE SMOOTH",
"582 105 OFFCURVE",
"531 53 OFFCURVE",
"464 53 CURVE SMOOTH"
);
}
);
};
layerId = "0B1DFD06-3317-40CA-B510-4969A0718C16";
paths = (
{
closed = 1;
nodes = (
"434 0 LINE SMOOTH",
"546 0 OFFCURVE",
"611 88 OFFCURVE",
"611 190 CURVE SMOOTH",
"611 269 OFFCURVE",
"576 333 OFFCURVE",
"487 357 CURVE",
"543 380 OFFCURVE",
"582 446 OFFCURVE",
"582 513 CURVE SMOOTH",
"582 618 OFFCURVE",
"517 700 OFFCURVE",
"405 700 CURVE SMOOTH",
"118 700 LINE SMOOTH",
"102 700 OFFCURVE",
"88 688 OFFCURVE",
"88 671 CURVE SMOOTH",
"88 29 LINE SMOOTH",
"88 13 OFFCURVE",
"102 0 OFFCURVE",
"118 0 CURVE SMOOTH"
);
},
{
closed = 1;
nodes = (
"147 324 LINE",
"423 324 LINE SMOOTH",
"505 324 OFFCURVE",
"550 273 OFFCURVE",
"550 190 CURVE SMOOTH",
"550 105 OFFCURVE",
"505 53 OFFCURVE",
"423 53 CURVE SMOOTH",
"147 53 LINE"
);
},
{
closed = 1;
nodes = (
"147 647 LINE",
"403 647 LINE SMOOTH",
"483 647 OFFCURVE",
"521 593 OFFCURVE",
"521 513 CURVE SMOOTH",
"521 428 OFFCURVE",
"460 377 OFFCURVE",
"403 377 CURVE SMOOTH",
"147 377 LINE"
);
}
);
width = 685;
}
);
note = B;
unicode = 0042;
},
{
color = 4;
glyphname = C;
lastChange = "2018-01-22 11:32:10 +0000";
layers = (
{
background = {
paths = (
{
closed = 1;
nodes = (
"470 -9 OFFCURVE",
"600 62 OFFCURVE",
"622 180 CURVE SMOOTH",
"632 231 OFFCURVE",
"597 251 OFFCURVE",
"566 251 CURVE",
"567 240 OFFCURVE",
"567 230 OFFCURVE",
"567 221 CURVE SMOOTH",
"567 125 OFFCURVE",
"472 44 OFFCURVE",
"349 44 CURVE SMOOTH",
"228 44 OFFCURVE",
"133 125 OFFCURVE",
"133 221 CURVE SMOOTH",
"133 481 LINE SMOOTH",
"133 576 OFFCURVE",
"228 656 OFFCURVE",
"349 656 CURVE SMOOTH",
"472 656 OFFCURVE",
"567 576 OFFCURVE",
"567 481 CURVE SMOOTH",
"567 472 OFFCURVE",
"567 461 OFFCURVE",
"566 451 CURVE",
"597 451 OFFCURVE",
"634 470 OFFCURVE",
"622 523 CURVE SMOOTH",
"593 649 OFFCURVE",
"466 709 OFFCURVE",
"349 709 CURVE SMOOTH",
"217 709 OFFCURVE",
"74 621 OFFCURVE",
"74 481 CURVE SMOOTH",
"74 221 LINE SMOOTH",
"74 75 OFFCURVE",
"221 -9 OFFCURVE",
"349 -9 CURVE SMOOTH"
);
}
);
};
layerId = "0B1DFD06-3317-40CA-B510-4969A0718C16";
paths = (
{
closed = 1;
nodes = (
"504 -9 OFFCURVE",
"629 79 OFFCURVE",
"629 191 CURVE SMOOTH",
"629 234 OFFCURVE",
"600 251 OFFCURVE",
"571 251 CURVE",
"572 240 OFFCURVE",
"572 230 OFFCURVE",
"572 221 CURVE SMOOTH",
"572 109 OFFCURVE",
"486 44 OFFCURVE",
"349 44 CURVE SMOOTH",
"228 44 OFFCURVE",
"133 125 OFFCURVE",
"133 221 CURVE SMOOTH",
"133 481 LINE SMOOTH",
"133 576 OFFCURVE",
"228 656 OFFCURVE",
"349 656 CURVE SMOOTH",
"472 656 OFFCURVE",
"567 593 OFFCURVE",
"567 481 CURVE SMOOTH",
"567 472 OFFCURVE",
"567 461 OFFCURVE",
"566 451 CURVE",
"593 451 OFFCURVE",
"624 465 OFFCURVE",
"624 503 CURVE SMOOTH",
"624 622 OFFCURVE",
"497 709 OFFCURVE",
"349 709 CURVE SMOOTH",
"217 709 OFFCURVE",
"74 621 OFFCURVE",
"74 481 CURVE SMOOTH",
"74 221 LINE SMOOTH",
"74 75 OFFCURVE",
"221 -9 OFFCURVE",
"349 -9 CURVE SMOOTH"
);
}
);
width = 684;
}
);
note = C;
unicode = 0043;
},
{
color = 4;
glyphname = D;
lastChange = "2018-01-22 11:34:20 +0000";
layers = (
{
background = {
paths = (
{
closed = 1;
nodes = (
"364 0 LINE SMOOTH",
"497 0 OFFCURVE",
"640 90 OFFCURVE",
"640 230 CURVE SMOOTH",
"640 472 LINE SMOOTH",
"640 618 OFFCURVE",
"492 700 OFFCURVE",
"364 700 CURVE SMOOTH",
"118 700 LINE SMOOTH",
"100 700 OFFCURVE",
"88 688 OFFCURVE",
"88 671 CURVE SMOOTH",
"88 29 LINE SMOOTH",
"88 13 OFFCURVE",
"100 0 OFFCURVE",
"118 0 CURVE SMOOTH"
);
},
{
closed = 1;
nodes = (
"147 647 LINE",
"192 647 OFFCURVE",
"364 647 OFFCURVE",
"364 647 CURVE",
"483 647 OFFCURVE",
"582 567 OFFCURVE",
"582 472 CURVE SMOOTH",
"582 230 LINE SMOOTH",
"582 134 OFFCURVE",
"483 53 OFFCURVE",
"364 53 CURVE SMOOTH",
"364 53 OFFCURVE",
"192 53 OFFCURVE",
"147 53 CURVE"
);
}
);
};
layerId = "0B1DFD06-3317-40CA-B510-4969A0718C16";
paths = (
{
closed = 1;
nodes = (
"364 0 LINE SMOOTH",
"527 0 OFFCURVE",
"640 100 OFFCURVE",
"640 240 CURVE SMOOTH",
"640 462 LINE SMOOTH",
"640 608 OFFCURVE",
"522 700 OFFCURVE",
"364 700 CURVE SMOOTH",
"118 700 LINE SMOOTH",
"100 700 OFFCURVE",
"88 688 OFFCURVE",
"88 671 CURVE SMOOTH",
"88 29 LINE SMOOTH",
"88 13 OFFCURVE",
"100 0 OFFCURVE",
"118 0 CURVE SMOOTH"
);
},
{
closed = 1;
nodes = (
"147 647 LINE",
"354 647 LINE SMOOTH",
"503 647 OFFCURVE",
"582 567 OFFCURVE",
"582 462 CURVE SMOOTH",
"582 240 LINE SMOOTH",
"582 134 OFFCURVE",
"503 53 OFFCURVE",
"354 53 CURVE SMOOTH",
"147 53 LINE"
);
}
);
width = 713;
}
);
note = D;
unicode = 0044;
},
{
color = 4;
glyphname = E;
lastChange = "2018-01-22 12:03:36 +0000";
layers = (
{
background = {
paths = (
{
closed = 1;
nodes = (
"470 -9 OFFCURVE",
"600 62 OFFCURVE",
"622 180 CURVE SMOOTH",
"632 231 OFFCURVE",
"597 251 OFFCURVE",
"566 251 CURVE",
"567 240 OFFCURVE",
"567 230 OFFCURVE",
"567 221 CURVE SMOOTH",
"567 125 OFFCURVE",
"472 44 OFFCURVE",
"349 44 CURVE SMOOTH",
"228 44 OFFCURVE",
"133 125 OFFCURVE",
"133 221 CURVE SMOOTH",
"133 324 LINE",
"371 324 LINE SMOOTH",
"407 324 OFFCURVE",
"425 342 OFFCURVE",
"425 377 CURVE",
"133 377 LINE",
"133 481 LINE SMOOTH",
"133 576 OFFCURVE",
"228 656 OFFCURVE",
"349 656 CURVE SMOOTH",
"472 656 OFFCURVE",
"567 576 OFFCURVE",
"567 481 CURVE SMOOTH",
"567 472 OFFCURVE",
"567 461 OFFCURVE",
"566 451 CURVE",
"597 451 OFFCURVE",
"634 470 OFFCURVE",
"622 523 CURVE SMOOTH",
"593 649 OFFCURVE",
"466 709 OFFCURVE",
"349 709 CURVE SMOOTH",
"217 709 OFFCURVE",
"74 621 OFFCURVE",
"74 481 CURVE SMOOTH",
"74 221 LINE SMOOTH",
"74 75 OFFCURVE",
"221 -9 OFFCURVE",
"349 -9 CURVE SMOOTH"
);
}
);
};
layerId = "0B1DFD06-3317-40CA-B510-4969A0718C16";
paths = (
{
closed = 1;
nodes = (
"74 13 OFFCURVE",
"86 0 OFFCURVE",
"104 0 CURVE SMOOTH",
"565 0 LINE",
"565 35 OFFCURVE",
"547 53 OFFCURVE",
"512 53 CURVE SMOOTH",
"133 53 LINE",
"133 326 LINE",
"371 326 LINE SMOOTH",
"407 326 OFFCURVE",
"425 344 OFFCURVE",
"425 379 CURVE",
"133 379 LINE",
"133 647 LINE",
"491 647 LINE SMOOTH",
"527 647 OFFCURVE",
"545 665 OFFCURVE",
"545 700 CURVE",
"104 700 LINE SMOOTH",
"88 700 OFFCURVE",
"74 688 OFFCURVE",
"74 671 CURVE SMOOTH",
"74 29 LINE SMOOTH"
);
}
);
width = 684;
}
);
note = E;
unicode = 0045;
},
{
color = 4;
glyphname = F;
lastChange = "2018-01-22 11:41:02 +0000";
layers = (
{
background = {
paths = (
{
closed = 1;
nodes = (
"112 -9 OFFCURVE",
"133 12 OFFCURVE",
"133 50 CURVE SMOOTH",
"133 324 LINE",
"371 324 LINE SMOOTH",
"407 324 OFFCURVE",
"425 342 OFFCURVE",
"425 377 CURVE",
"133 377 LINE",
"133 481 LINE SMOOTH",
"133 576 OFFCURVE",
"228 656 OFFCURVE",
"349 656 CURVE SMOOTH",
"472 656 OFFCURVE",
"567 576 OFFCURVE",
"567 481 CURVE SMOOTH",
"567 472 OFFCURVE",
"567 461 OFFCURVE",
"566 451 CURVE",
"597 451 OFFCURVE",
"632 470 OFFCURVE",
"622 523 CURVE",
"588 649 OFFCURVE",
"466 709 OFFCURVE",
"349 709 CURVE SMOOTH",
"217 709 OFFCURVE",
"74 621 OFFCURVE",
"74 481 CURVE SMOOTH",
"74 -9 LINE"
);
}
);
};
layerId = "0B1DFD06-3317-40CA-B510-4969A0718C16";
paths = (
{
closed = 1;
nodes = (
"113 -9 OFFCURVE",
"133 12 OFFCURVE",
"133 50 CURVE SMOOTH",
"133 331 LINE",
"371 331 LINE SMOOTH",
"407 331 OFFCURVE",
"425 349 OFFCURVE",
"425 384 CURVE",
"133 384 LINE",
"133 647 LINE",
"491 647 LINE SMOOTH",
"527 647 OFFCURVE",
"545 665 OFFCURVE",
"545 700 CURVE",
"104 700 LINE SMOOTH",
"88 700 OFFCURVE",
"74 688 OFFCURVE",
"74 671 CURVE SMOOTH",
"74 -9 LINE"
);
}
);
width = 684;
}
);
note = F;
unicode = 0046;
},
{
color = 4;
glyphname = G;
lastChange = "2018-01-23 02:56:41 +0000";
layers = (
{
background = {
paths = (
{
closed = 1;
nodes = (
"478 -9 OFFCURVE",
"625 75 OFFCURVE",
"625 221 CURVE",
"625 221 OFFCURVE",
"625 332 OFFCURVE",
"625 348 CURVE SMOOTH",
"625 364 OFFCURVE",
"612 377 OFFCURVE",
"595 377 CURVE SMOOTH",
"404 377 LINE SMOOTH",
"368 377 OFFCURVE",
"351 360 OFFCURVE",
"351 324 CURVE",
"566 324 LINE",
"566 221 LINE SMOOTH",
"566 125 OFFCURVE",
"470 44 OFFCURVE",
"349 44 CURVE SMOOTH",
"228 44 OFFCURVE",
"133 125 OFFCURVE",
"133 221 CURVE SMOOTH",
"133 481 LINE SMOOTH",
"133 576 OFFCURVE",
"228 656 OFFCURVE",
"349 656 CURVE SMOOTH",
"472 656 OFFCURVE",
"567 576 OFFCURVE",
"567 481 CURVE SMOOTH",
"567 472 OFFCURVE",
"567 461 OFFCURVE",
"566 451 CURVE",
"597 451 OFFCURVE",
"634 470 OFFCURVE",
"622 523 CURVE SMOOTH",
"593 649 OFFCURVE",
"466 709 OFFCURVE",
"349 709 CURVE SMOOTH",
"217 709 OFFCURVE",
"74 621 OFFCURVE",
"74 481 CURVE SMOOTH",
"74 221 LINE SMOOTH",
"74 75 OFFCURVE",
"221 -9 OFFCURVE",
"349 -9 CURVE SMOOTH"
);
}
);
};
layerId = "0B1DFD06-3317-40CA-B510-4969A0718C16";
paths = (
{
closed = 1;
nodes = (
"355 316 OFFCURVE",
"372 299 OFFCURVE",
"408 299 CURVE SMOOTH",
"570 299 LINE",
"570 221 LINE SMOOTH",
"570 120 OFFCURVE",
"472 44 OFFCURVE",
"351 44 CURVE SMOOTH",
"230 44 OFFCURVE",
"133 120 OFFCURVE",
"133 221 CURVE SMOOTH",
"133 481 LINE",
"133 576 OFFCURVE",
"228 656 OFFCURVE",
"349 656 CURVE SMOOTH",
"472 656 OFFCURVE",
"567 593 OFFCURVE",
"567 481 CURVE",
"567 472 OFFCURVE",
"567 461 OFFCURVE",
"566 451 CURVE SMOOTH",
"563 424 OFFCURVE",
"624 465 OFFCURVE",
"624 503 CURVE",
"624 622 OFFCURVE",
"497 709 OFFCURVE",
"349 709 CURVE SMOOTH",
"217 709 OFFCURVE",
"74 621 OFFCURVE",
"74 481 CURVE",
"74 221 LINE SMOOTH",
"74 75 OFFCURVE",
"223 -9 OFFCURVE",
"351 -9 CURVE SMOOTH",
"480 -9 OFFCURVE",
"629 75 OFFCURVE",
"629 221 CURVE SMOOTH",
"629 221 OFFCURVE",
"629 307 OFFCURVE",
"629 323 CURVE SMOOTH",
"629 339 OFFCURVE",
"616 352 OFFCURVE",
"599 352 CURVE SMOOTH",
"355 352 LINE"
);
}
);
width = 699;
}
);
note = G;
unicode = 0047;
},
{
color = 4;
glyphname = H;
lastChange = "2018-01-22 11:43:36 +0000";
layers = (
{
background = {
paths = (
{
closed = 1;
nodes = (
"127 -9 OFFCURVE",
"147 12 OFFCURVE",
"147 50 CURVE SMOOTH",
"147 324 LINE",
"581 324 LINE",
"581 -9 LINE",
"619 -9 OFFCURVE",
"640 12 OFFCURVE",
"640 50 CURVE SMOOTH",
"640 709 LINE",
"601 709 OFFCURVE",
"581 688 OFFCURVE",
"581 650 CURVE SMOOTH",
"581 377 LINE",
"147 377 LINE",
"147 709 LINE",
"109 709 OFFCURVE",
"88 688 OFFCURVE",
"88 650 CURVE SMOOTH",
"88 -9 LINE"
);
}
);
};
layerId = "0B1DFD06-3317-40CA-B510-4969A0718C16";
paths = (
{
closed = 1;
nodes = (
"127 -9 OFFCURVE",
"147 12 OFFCURVE",
"147 50 CURVE SMOOTH",
"147 326 LINE",
"551 326 LINE",
"551 -9 LINE",
"589 -9 OFFCURVE",
"610 12 OFFCURVE",
"610 50 CURVE SMOOTH",
"610 709 LINE",
"571 709 OFFCURVE",
"551 688 OFFCURVE",
"551 650 CURVE SMOOTH",
"551 379 LINE",
"147 379 LINE",
"147 709 LINE",
"109 709 OFFCURVE",
"88 688 OFFCURVE",
"88 650 CURVE SMOOTH",
"88 -9 LINE"
);
}
);
width = 728;
}
);
note = H;
unicode = 0048;
},
{
color = 4;
glyphname = I;
lastChange = "2018-01-22 11:43:54 +0000";
layers = (
{
background = {
paths = (
{
closed = 1;
nodes = (
"127 -9 OFFCURVE",
"147 12 OFFCURVE",
"147 50 CURVE SMOOTH",
"147 709 LINE",
"109 709 OFFCURVE",
"88 688 OFFCURVE",
"88 650 CURVE SMOOTH",
"88 -9 LINE"
);
}
);
};
layerId = "0B1DFD06-3317-40CA-B510-4969A0718C16";
paths = (
{
closed = 1;
nodes = (
"127 -9 OFFCURVE",
"147 12 OFFCURVE",
"147 50 CURVE SMOOTH",
"147 709 LINE",
"109 709 OFFCURVE",
"88 688 OFFCURVE",
"88 650 CURVE SMOOTH",
"88 -9 LINE"
);
}
);
width = 236;
}
);
note = I;
unicode = 0049;
},
{
color = 4;
glyphname = J;
lastChange = "2018-01-22 11:48:13 +0000";
layers = (
{
background = {
paths = (
{
closed = 1;
nodes = (
"442 -9 OFFCURVE",
"553 94 OFFCURVE",
"553 221 CURVE SMOOTH",
"553 671 LINE SMOOTH",
"553 688 OFFCURVE",
"541 700 OFFCURVE",
"525 700 CURVE SMOOTH",
"302 700 LINE",
"302 665 OFFCURVE",
"320 647 OFFCURVE",
"355 647 CURVE SMOOTH",
"494 647 LINE",
"494 597 OFFCURVE",
"494 221 OFFCURVE",
"494 221 CURVE",
"494 125 OFFCURVE",
"410 44 OFFCURVE",
"307 44 CURVE SMOOTH",
"202 44 OFFCURVE",
"118 125 OFFCURVE",
"118 221 CURVE SMOOTH",
"118 230 OFFCURVE",
"119 240 OFFCURVE",
"121 251 CURVE",
"88 251 OFFCURVE",
"53 231 OFFCURVE",
"63 180 CURVE SMOOTH",
"85 72 OFFCURVE",
"184 -9 OFFCURVE",
"307 -9 CURVE SMOOTH"
);
}
);
};
layerId = "0B1DFD06-3317-40CA-B510-4969A0718C16";
paths = (
{
closed = 1;
nodes = (
"455 -9 OFFCURVE",
"553 89 OFFCURVE",
"553 221 CURVE SMOOTH",
"553 671 LINE SMOOTH",
"553 688 OFFCURVE",
"541 700 OFFCURVE",
"525 700 CURVE SMOOTH",
"302 700 LINE",
"302 665 OFFCURVE",
"320 647 OFFCURVE",
"355 647 CURVE SMOOTH",
"494 647 LINE",
"494 221 LINE SMOOTH",
"494 115 OFFCURVE",
"430 46 OFFCURVE",
"312 46 CURVE SMOOTH",
"197 46 OFFCURVE",
"132 117 OFFCURVE",
"132 221 CURVE SMOOTH",
"132 230 OFFCURVE",
"133 240 OFFCURVE",
"135 251 CURVE",
"107 251 OFFCURVE",
"75 237 OFFCURVE",
"75 202 CURVE SMOOTH",
"75 86 OFFCURVE",
"173 -9 OFFCURVE",
"312 -9 CURVE SMOOTH"
);
}
);
width = 626;
}
);
note = J;
unicode = 004A;
},
{
color = 4;
glyphname = K;
lastChange = "2018-01-23 03:01:12 +0000";
layers = (
{
background = {
paths = (
{
closed = 1;
nodes = (
"127 -9 OFFCURVE",
"147 12 OFFCURVE",
"147 50 CURVE SMOOTH",
"147 183 LINE SMOOTH",
"147 279 OFFCURVE",
"231 360 OFFCURVE",
"335 360 CURVE SMOOTH",
"438 360 OFFCURVE",
"522 279 OFFCURVE",
"522 183 CURVE SMOOTH",
"522 -9 LINE",
"560 -9 OFFCURVE",
"581 12 OFFCURVE",
"581 50 CURVE SMOOTH",
"581 183 LINE SMOOTH",
"581 310 OFFCURVE",
"470 413 OFFCURVE",
"335 413 CURVE SMOOTH",
"314 413 OFFCURVE",
"287 407 OFFCURVE",
"268 397 CURVE",
"264 398 LINE",
"276 405 OFFCURVE",
"290 413 OFFCURVE",
"314 420 CURVE",
"538 634 LINE SMOOTH",
"563 659 OFFCURVE",
"565 684 OFFCURVE",
"539 709 CURVE",
"147 335 LINE",
"147 709 LINE",
"109 709 OFFCURVE",
"88 688 OFFCURVE",
"88 650 CURVE SMOOTH",
"88 -9 LINE"
);
}
);
};
layerId = "0B1DFD06-3317-40CA-B510-4969A0718C16";
paths = (
{
closed = 1;
nodes = (
"127 -9 OFFCURVE",
"147 12 OFFCURVE",
"147 50 CURVE SMOOTH",
"147 190 LINE SMOOTH",
"147 293 OFFCURVE",
"223 360 OFFCURVE",
"337 360 CURVE SMOOTH",
"457 360 OFFCURVE",
"506 289 OFFCURVE",
"506 183 CURVE SMOOTH",
"506 -9 LINE",
"544 -9 OFFCURVE",
"565 12 OFFCURVE",
"565 50 CURVE SMOOTH",
"565 183 LINE SMOOTH",
"565 318 OFFCURVE",
"480 413 OFFCURVE",
"343 413 CURVE SMOOTH",
"312 413 OFFCURVE",
"281 399 OFFCURVE",
"262 389 CURVE",
"259 395 LINE",
"272 402 OFFCURVE",
"293 412 OFFCURVE",
"314 420 CURVE",
"538 634 LINE SMOOTH",
"551 647 OFFCURVE",
"558 660 OFFCURVE",
"558 673 CURVE SMOOTH",
"557 685 OFFCURVE",
"551 697 OFFCURVE",
"539 709 CURVE",
"147 335 LINE",
"147 709 LINE",
"109 709 OFFCURVE",
"88 688 OFFCURVE",
"88 650 CURVE SMOOTH",
"88 -9 LINE"
);
}
);
width = 669;
}
);
note = K;
unicode = 004B;
},
{
color = 4;
glyphname = L;
lastChange = "2018-01-22 11:46:25 +0000";
layers = (
{
background = {
paths = (
{
closed = 1;
nodes = (
"581 0 LINE",
"581 35 OFFCURVE",
"563 53 OFFCURVE",
"528 53 CURVE SMOOTH",
"147 53 LINE",
"147 709 LINE",
"109 709 OFFCURVE",
"88 688 OFFCURVE",
"88 650 CURVE SMOOTH",
"88 29 LINE SMOOTH",
"88 13 OFFCURVE",
"100 0 OFFCURVE",
"118 0 CURVE SMOOTH"
);
}
);
};
layerId = "0B1DFD06-3317-40CA-B510-4969A0718C16";
paths = (
{
closed = 1;
nodes = (
"579 0 LINE",
"579 35 OFFCURVE",
"561 53 OFFCURVE",
"526 53 CURVE SMOOTH",
"147 53 LINE",
"147 709 LINE",
"109 709 OFFCURVE",
"88 688 OFFCURVE",
"88 650 CURVE SMOOTH",
"88 29 LINE SMOOTH",
"88 13 OFFCURVE",
"100 0 OFFCURVE",
"118 0 CURVE SMOOTH"
);
}
);
width = 610;
}
);
note = L;
unicode = 004C;
},
{
color = 4;
glyphname = M;
lastChange = "2018-01-22 12:16:02 +0000";
layers = (
{
background = {
paths = (
{
closed = 1;
nodes = (
"127 -9 OFFCURVE",
"147 12 OFFCURVE",
"147 50 CURVE SMOOTH",
"147 556 LINE",
"131 606 LINE",
"133 610 LINE",
"392 10 LINE SMOOTH",
"397 0 OFFCURVE",
"407 -9 OFFCURVE",
"419 -9 CURVE SMOOTH",
"430 -9 OFFCURVE",
"441 0 OFFCURVE",
"445 10 CURVE SMOOTH",
"705 610 LINE",
"706 606 LINE",
"690 556 LINE",
"690 -9 LINE",
"728 -9 OFFCURVE",
"749 12 OFFCURVE",
"749 50 CURVE SMOOTH",
"749 650 LINE SMOOTH",
"749 688 OFFCURVE",
"728 709 OFFCURVE",
"690 709 CURVE",
"408 60 LINE",
"407 65 LINE",
"416 91 LINE",
"147 709 LINE",
"109 709 OFFCURVE",
"88 688 OFFCURVE",
"88 650 CURVE SMOOTH",
"88 -9 LINE"
);
}
);
};
layerId = "0B1DFD06-3317-40CA-B510-4969A0718C16";
paths = (
{
closed = 1;
nodes = (
"709 608 LINE",
"690 561 LINE",
"690 50 LINE SMOOTH",
"690 12 OFFCURVE",
"710 -9 OFFCURVE",
"749 -9 CURVE",
"749 650 LINE SMOOTH",
"749 688 OFFCURVE",
"728 709 OFFCURVE",
"690 709 CURVE",
"406 45 LINE",
"402 47 LINE",
"416 80 LINE",
"147 709 LINE",
"109 709 OFFCURVE",
"88 688 OFFCURVE",
"88 650 CURVE SMOOTH",
"88 -9 LINE",
"127 -9 OFFCURVE",
"147 12 OFFCURVE",
"147 50 CURVE SMOOTH",
"147 561 LINE",
"128 608 LINE",
"133 610 LINE",
"392 10 LINE SMOOTH",
"397 0 OFFCURVE",
"407 -9 OFFCURVE",
"419 -9 CURVE SMOOTH",
"430 -9 OFFCURVE",
"441 0 OFFCURVE",
"445 10 CURVE SMOOTH",
"704 610 LINE"
);
}
);
width = 837;
}
);
note = M;
unicode = 004D;
},
{
color = 4;
glyphname = N;
lastChange = "2018-01-22 12:13:28 +0000";
layers = (
{
background = {
paths = (
{
closed = 1;
nodes = (
"127 -9 OFFCURVE",
"147 12 OFFCURVE",
"147 50 CURVE SMOOTH",
"147 600 LINE",
"131 631 LINE",
"133 635 LINE",
"133 635 OFFCURVE",
"579 -10 OFFCURVE",
"581 -9 CURVE",
"619 -9 OFFCURVE",
"640 12 OFFCURVE",
"640 50 CURVE SMOOTH",
"640 650 LINE SMOOTH",
"640 688 OFFCURVE",
"619 709 OFFCURVE",
"581 709 CURVE",
"581 100 LINE",
"597 69 LINE",
"595 65 LINE",
"595 65 OFFCURVE",
"147 708 OFFCURVE",
"147 709 CURVE",
"109 709 OFFCURVE",
"88 688 OFFCURVE",
"88 650 CURVE SMOOTH",
"88 -9 LINE"
);
}
);
};
layerId = "0B1DFD06-3317-40CA-B510-4969A0718C16";
paths = (
{
closed = 1;
nodes = (
"127 -9 OFFCURVE",
"147 12 OFFCURVE",
"147 50 CURVE SMOOTH",
"147 602 LINE",
"128 632 LINE",
"133 635 LINE",
"133 635 OFFCURVE",
"564 -10 OFFCURVE",
"566 -9 CURVE",
"604 -9 OFFCURVE",
"625 12 OFFCURVE",
"625 50 CURVE SMOOTH",
"625 650 LINE SMOOTH",
"625 688 OFFCURVE",
"604 709 OFFCURVE",
"566 709 CURVE",
"566 98 LINE",
"584 68 LINE",
"580 65 LINE",
"580 65 OFFCURVE",
"147 708 OFFCURVE",
"147 709 CURVE",
"109 709 OFFCURVE",
"88 688 OFFCURVE",
"88 650 CURVE SMOOTH",
"88 -9 LINE"
);
}
);
width = 728;
}
);
note = N;
unicode = 004E;
},
{
color = 4;
glyphname = O;
lastChange = "2018-01-22 11:49:20 +0000";
layers = (
{
background = {
paths = (
{
closed = 1;
nodes = (
"616 -9 OFFCURVE",
"777 150 OFFCURVE",
"777 349 CURVE SMOOTH",
"777 548 OFFCURVE",
"616 709 OFFCURVE",
"417 709 CURVE SMOOTH",
"218 709 OFFCURVE",
"59 548 OFFCURVE",
"59 349 CURVE SMOOTH",
"59 150 OFFCURVE",
"218 -9 OFFCURVE",
"417 -9 CURVE SMOOTH"
);
},
{
closed = 1;
nodes = (
"251 44 OFFCURVE",
"118 180 OFFCURVE",
"118 349 CURVE SMOOTH",
"118 519 OFFCURVE",
"251 656 OFFCURVE",
"417 656 CURVE SMOOTH",
"584 656 OFFCURVE",
"718 519 OFFCURVE",
"718 349 CURVE SMOOTH",
"718 180 OFFCURVE",
"584 44 OFFCURVE",
"417 44 CURVE SMOOTH"
);
}
);
};
layerId = "0B1DFD06-3317-40CA-B510-4969A0718C16";
paths = (
{
closed = 1;
nodes = (
"616 -9 OFFCURVE",
"778 150 OFFCURVE",
"778 349 CURVE SMOOTH",
"778 548 OFFCURVE",
"616 709 OFFCURVE",
"417 709 CURVE SMOOTH",
"218 709 OFFCURVE",
"58 548 OFFCURVE",
"58 349 CURVE SMOOTH",
"58 150 OFFCURVE",
"218 -9 OFFCURVE",
"417 -9 CURVE SMOOTH"
);
},
{
closed = 1;
nodes = (
"251 46 OFFCURVE",
"119 170 OFFCURVE",
"119 349 CURVE SMOOTH",
"119 529 OFFCURVE",
"251 654 OFFCURVE",
"417 654 CURVE SMOOTH",
"584 654 OFFCURVE",
"717 529 OFFCURVE",
"717 349 CURVE SMOOTH",
"717 170 OFFCURVE",
"584 46 OFFCURVE",
"417 46 CURVE SMOOTH"
);
}
);
width = 836;
}
);
note = O;
unicode = 004F;
},
{
color = 4;
glyphname = P;
lastChange = "2018-01-22 11:51:06 +0000";
layers = (
{
background = {
paths = (
{
closed = 1;
nodes = (
"127 -9 OFFCURVE",
"147 12 OFFCURVE",
"147 50 CURVE SMOOTH",
"147 324 LINE",
"196 324 OFFCURVE",
"463 324 OFFCURVE",
"463 324 CURVE",
"562 324 OFFCURVE",
"640 416 OFFCURVE",
"640 513 CURVE SMOOTH",
"640 610 OFFCURVE",
"562 700 OFFCURVE",
"463 700 CURVE SMOOTH",
"118 700 LINE SMOOTH",
"100 700 OFFCURVE",
"88 688 OFFCURVE",
"88 671 CURVE SMOOTH",
"88 -9 LINE"
);
},
{
closed = 1;
nodes = (
"147 647 LINE",
"196 647 OFFCURVE",
"463 647 OFFCURVE",
"463 647 CURVE",
"529 647 OFFCURVE",
"581 576 OFFCURVE",
"581 513 CURVE SMOOTH",
"581 450 OFFCURVE",
"529 377 OFFCURVE",
"463 377 CURVE SMOOTH",
"463 377 OFFCURVE",
"196 377 OFFCURVE",
"147 377 CURVE"
);
}
);
};
layerId = "0B1DFD06-3317-40CA-B510-4969A0718C16";
paths = (
{
closed = 1;
nodes = (
"127 -9 OFFCURVE",
"147 12 OFFCURVE",
"147 50 CURVE SMOOTH",
"147 284 LINE",
"423 284 LINE SMOOTH",
"542 284 OFFCURVE",
"630 361 OFFCURVE",
"630 493 CURVE SMOOTH",
"630 620 OFFCURVE",
"542 700 OFFCURVE",
"423 700 CURVE SMOOTH",
"118 700 LINE SMOOTH",
"100 700 OFFCURVE",
"88 688 OFFCURVE",
"88 671 CURVE SMOOTH",
"88 -9 LINE"
);
},
{
closed = 1;
nodes = (
"147 647 LINE",
"423 647 LINE SMOOTH",
"509 647 OFFCURVE",
"571 586 OFFCURVE",
"571 493 CURVE SMOOTH",
"571 395 OFFCURVE",
"509 337 OFFCURVE",
"423 337 CURVE SMOOTH",
"147 337 LINE"
);
}
);
width = 699;
}
);
note = P;
unicode = 0050;
},
{
color = 4;
glyphname = Q;
lastChange = "2018-01-22 11:53:53 +0000";
layers = (
{
background = {
paths = (
{
closed = 1;
nodes = (
"492 -9 OFFCURVE",
"562 13 OFFCURVE",
"619 52 CURVE",
"649 28 OFFCURVE",
"678 6 OFFCURVE",
"712 -4 CURVE SMOOTH",
"753 -18 OFFCURVE",
"777 -3 OFFCURVE",
"777 37 CURVE",
"736 37 OFFCURVE",
"699 59 OFFCURVE",
"663 87 CURVE",
"733 152 OFFCURVE",
"777 245 OFFCURVE",
"777 349 CURVE SMOOTH",
"777 548 OFFCURVE",
"616 709 OFFCURVE",
"417 709 CURVE SMOOTH",
"218 709 OFFCURVE",
"59 548 OFFCURVE",
"59 349 CURVE SMOOTH",
"59 150 OFFCURVE",
"218 -9 OFFCURVE",
"417 -9 CURVE SMOOTH"
);
},
{
closed = 1;
nodes = (
"298 44 OFFCURVE",
"195 113 OFFCURVE",
"147 215 CURVE",
"184 233 OFFCURVE",
"223 239 OFFCURVE",
"259 239 CURVE SMOOTH",
"329 239 OFFCURVE",
"401 217 OFFCURVE",
"461 180 CURVE SMOOTH",
"495 158 OFFCURVE",
"534 127 OFFCURVE",
"566 99 CURVE SMOOTH",
"576 90 LINE",
"529 60 OFFCURVE",
"475 44 OFFCURVE",
"417 44 CURVE SMOOTH"
);
},
{
closed = 1;
nodes = (
"613 128 OFFCURVE",
"607 134 OFFCURVE",
"601 140 CURVE",
"569 167 OFFCURVE",
"535 196 OFFCURVE",
"491 224 CURVE SMOOTH",
"420 268 OFFCURVE",
"340 292 OFFCURVE",
"259 292 CURVE SMOOTH",
"215 292 OFFCURVE",
"170 284 OFFCURVE",
"128 270 CURVE",
"121 295 OFFCURVE",
"118 321 OFFCURVE",
"118 349 CURVE SMOOTH",
"118 519 OFFCURVE",
"251 656 OFFCURVE",
"417 656 CURVE SMOOTH",
"584 656 OFFCURVE",
"718 519 OFFCURVE",
"718 349 CURVE SMOOTH",
"718 259 OFFCURVE",
"680 178 OFFCURVE",
"621 124 CURVE"
);
}
);
};
layerId = "0B1DFD06-3317-40CA-B510-4969A0718C16";
paths = (
{
closed = 1;
nodes = (
"492 -9 OFFCURVE",
"562 13 OFFCURVE",
"619 52 CURVE",
"651 27 OFFCURVE",
"699 -9 OFFCURVE",
"739 -9 CURVE SMOOTH",
"763 -9 OFFCURVE",
"777 8 OFFCURVE",
"777 38 CURVE",
"736 38 OFFCURVE",
"699 60 OFFCURVE",
"663 88 CURVE",
"733 153 OFFCURVE",
"777 245 OFFCURVE",
"777 349 CURVE SMOOTH",
"777 548 OFFCURVE",
"616 709 OFFCURVE",
"417 709 CURVE SMOOTH",
"218 709 OFFCURVE",
"59 548 OFFCURVE",
"59 349 CURVE SMOOTH",
"59 150 OFFCURVE",
"218 -9 OFFCURVE",
"417 -9 CURVE SMOOTH"
);
},
{
closed = 1;
nodes = (
"298 46 OFFCURVE",
"195 114 OFFCURVE",
"147 216 CURVE",
"184 234 OFFCURVE",
"225 239 OFFCURVE",
"261 239 CURVE SMOOTH",
"386 239 OFFCURVE",
"473 192 OFFCURVE",
"576 90 CURVE",
"529 60 OFFCURVE",
"475 46 OFFCURVE",
"417 46 CURVE SMOOTH"
);
},
{
closed = 1;
nodes = (
"537 209 OFFCURVE",
"437 293 OFFCURVE",
"261 293 CURVE SMOOTH",
"217 293 OFFCURVE",
"172 284 OFFCURVE",
"130 270 CURVE",
"123 295 OFFCURVE",
"120 321 OFFCURVE",
"120 349 CURVE SMOOTH",
"120 519 OFFCURVE",
"251 654 OFFCURVE",
"417 654 CURVE SMOOTH",
"584 654 OFFCURVE",
"716 519 OFFCURVE",
"716 349 CURVE SMOOTH",
"716 259 OFFCURVE",
"680 179 OFFCURVE",
"621 125 CURVE"
);
}
);
width = 836;
}
);
note = Q;
unicode = 0051;
},
{
color = 4;
glyphname = R;
lastChange = "2018-01-22 12:12:05 +0000";
layers = (
{
background = {
paths = (
{
closed = 1;
nodes = (
"127 -9 OFFCURVE",
"147 12 OFFCURVE",
"147 50 CURVE SMOOTH",
"147 324 LINE",
"463 324 LINE SMOOTH",
"529 324 OFFCURVE",
"582 273 OFFCURVE",
"582 190 CURVE SMOOTH",
"582 -9 LINE",
"621 -9 OFFCURVE",
"641 12 OFFCURVE",
"641 50 CURVE SMOOTH",
"641 190 LINE SMOOTH",
"641 256 OFFCURVE",
"604 321 OFFCURVE",
"545 348 CURVE",
"597 377 OFFCURVE",
"640 448 OFFCURVE",
"640 513 CURVE SMOOTH",
"640 610 OFFCURVE",
"562 700 OFFCURVE",
"463 700 CURVE SMOOTH",
"118 700 LINE SMOOTH",
"100 700 OFFCURVE",
"88 688 OFFCURVE",
"88 671 CURVE SMOOTH",
"88 -9 LINE"
);
},
{
closed = 1;
nodes = (
"147 647 LINE",
"463 647 LINE SMOOTH",
"529 647 OFFCURVE",
"581 576 OFFCURVE",
"581 513 CURVE SMOOTH",
"581 450 OFFCURVE",
"529 377 OFFCURVE",
"463 377 CURVE SMOOTH",
"147 377 LINE"
);
}
);
};
layerId = "0B1DFD06-3317-40CA-B510-4969A0718C16";
paths = (
{
closed = 1;
nodes = (
"127 -9 OFFCURVE",
"147 12 OFFCURVE",
"147 50 CURVE SMOOTH",
"147 304 LINE",
"409 304 LINE SMOOTH",
"487 304 OFFCURVE",
"532 258 OFFCURVE",
"532 170 CURVE SMOOTH",
"532 -9 LINE",
"571 -9 OFFCURVE",
"591 12 OFFCURVE",
"591 50 CURVE SMOOTH",
"591 176 LINE SMOOTH",
"591 244 OFFCURVE",
"563 305 OFFCURVE",
"493 331 CURVE",
"564 364 OFFCURVE",
"602 422 OFFCURVE",
"602 503 CURVE SMOOTH",
"602 605 OFFCURVE",
"534 700 OFFCURVE",
"403 700 CURVE SMOOTH",
"118 700 LINE SMOOTH",
"100 700 OFFCURVE",
"88 688 OFFCURVE",
"88 671 CURVE SMOOTH",
"88 -9 LINE"
);
},
{
closed = 1;
nodes = (
"147 647 LINE",
"403 647 LINE SMOOTH",
"494 647 OFFCURVE",
"541 587 OFFCURVE",
"541 503 CURVE SMOOTH",
"541 412 OFFCURVE",
"482 357 OFFCURVE",
"403 357 CURVE SMOOTH",
"147 357 LINE"
);
}
);
width = 715;
}
);
note = R;
unicode = 0052;
},
{
color = 4;
glyphname = S;
lastChange = "2018-01-22 12:00:36 +0000";
layers = (
{
background = {
paths = (
{
closed = 1;
nodes = (
"485 -9 OFFCURVE",
"618 100 OFFCURVE",
"609 223 CURVE SMOOTH",
"600 339 OFFCURVE",
"491 358 OFFCURVE",
"339 388 CURVE SMOOTH",
"211 413 OFFCURVE",
"153 435 OFFCURVE",
"147 506 CURVE SMOOTH",
"140 581 OFFCURVE",
"217 656 OFFCURVE",
"333 656 CURVE SMOOTH",
"450 656 OFFCURVE",
"517 575 OFFCURVE",
"517 481 CURVE SMOOTH",
"517 472 OFFCURVE",
"517 461 OFFCURVE",
"516 451 CURVE",
"545 451 OFFCURVE",
"581 472 OFFCURVE",
"573 520 CURVE SMOOTH",
"557 628 OFFCURVE",
"472 709 OFFCURVE",
"333 709 CURVE SMOOTH",
"177 709 OFFCURVE",
"78 607 OFFCURVE",
"88 500 CURVE SMOOTH",
"99 394 OFFCURVE",
"177 364 OFFCURVE",
"327 335 CURVE SMOOTH",
"450 311 OFFCURVE",
"544 287 OFFCURVE",
"550 218 CURVE SMOOTH",
"556 130 OFFCURVE",
"453 44 OFFCURVE",
"333 44 CURVE SMOOTH",
"212 44 OFFCURVE",
"115 127 OFFCURVE",
"115 221 CURVE SMOOTH",
"115 231 OFFCURVE",
"115 240 OFFCURVE",
"116 251 CURVE",
"85 251 OFFCURVE",
"50 231 OFFCURVE",
"60 180 CURVE SMOOTH",
"84 72 OFFCURVE",
"198 -9 OFFCURVE",
"333 -9 CURVE SMOOTH"
);
}
);
};
layerId = "0B1DFD06-3317-40CA-B510-4969A0718C16";
paths = (
{
closed = 1;
nodes = (
"523 -9 OFFCURVE",
"605 67 OFFCURVE",
"605 183 CURVE SMOOTH",
"605 308 OFFCURVE",
"512 350 OFFCURVE",
"339 386 CURVE SMOOTH",
"203 414 OFFCURVE",
"148 444 OFFCURVE",
"148 531 CURVE SMOOTH",
"148 606 OFFCURVE",
"210 655 OFFCURVE",
"331 655 CURVE SMOOTH",
"448 655 OFFCURVE",
"514 594 OFFCURVE",
"514 501 CURVE SMOOTH",
"514 492 OFFCURVE",
"514 481 OFFCURVE",
"513 471 CURVE",
"538 471 OFFCURVE",
"569 487 OFFCURVE",
"571 523 CURVE SMOOTH",
"578 636 OFFCURVE",
"466 709 OFFCURVE",
"331 709 CURVE SMOOTH",
"175 709 OFFCURVE",
"88 632 OFFCURVE",
"88 525 CURVE SMOOTH",
"88 413 OFFCURVE",
"169 363 OFFCURVE",
"327 331 CURVE SMOOTH",
"461 304 OFFCURVE",
"545 279 OFFCURVE",
"545 183 CURVE SMOOTH",
"545 90 OFFCURVE",
"485 45 OFFCURVE",
"348 45 CURVE SMOOTH",
"204 45 OFFCURVE",
"128 127 OFFCURVE",
"128 221 CURVE SMOOTH",
"128 231 OFFCURVE",
"128 240 OFFCURVE",
"129 251 CURVE",
"103 251 OFFCURVE",
"72 237 OFFCURVE",
"72 204 CURVE SMOOTH",
"72 79 OFFCURVE",
"190 -9 OFFCURVE",
"348 -9 CURVE SMOOTH"
);
}
);
width = 669;
}
);
note = S;
unicode = 0053;
},
{
color = 4;
glyphname = T;
lastChange = "2018-01-22 12:07:37 +0000";
layers = (
{
background = {
paths = (
{
closed = 1;
nodes = (
"284 -9 OFFCURVE",
"305 12 OFFCURVE",
"305 50 CURVE SMOOTH",
"305 647 LINE",
"497 647 LINE SMOOTH",
"532 647 OFFCURVE",
"550 665 OFFCURVE",
"550 700 CURVE",
"53 700 LINE SMOOTH",
"18 700 OFFCURVE",
"0 682 OFFCURVE",
"0 647 CURVE",
"246 647 LINE",
"246 -9 LINE"
);
}
);
};
layerId = "0B1DFD06-3317-40CA-B510-4969A0718C16";
paths = (
{
closed = 1;
nodes = (
"284 -9 OFFCURVE",
"305 12 OFFCURVE",
"305 50 CURVE SMOOTH",
"305 647 LINE",
"497 647 LINE SMOOTH",
"532 647 OFFCURVE",
"550 665 OFFCURVE",
"550 700 CURVE",
"53 700 LINE SMOOTH",
"18 700 OFFCURVE",
"0 682 OFFCURVE",
"0 647 CURVE",
"246 647 LINE",
"246 -9 LINE"
);
}
);
width = 550;
}
);
note = T;
unicode = 0054;
},
{
color = 4;
glyphname = U;
lastChange = "2018-01-22 12:12:20 +0000";
layers = (
{
background = {
paths = (
{
closed = 1;
nodes = (
"492 -9 OFFCURVE",
"640 75 OFFCURVE",
"640 221 CURVE SMOOTH",
"640 709 LINE",
"601 709 OFFCURVE",
"581 688 OFFCURVE",
"581 650 CURVE SMOOTH",
"581 221 LINE SMOOTH",
"581 125 OFFCURVE",
"485 44 OFFCURVE",
"364 44 CURVE SMOOTH",
"243 44 OFFCURVE",
"147 125 OFFCURVE",
"147 221 CURVE SMOOTH",
"147 709 LINE",
"109 709 OFFCURVE",
"88 688 OFFCURVE",
"88 650 CURVE SMOOTH",
"88 221 LINE SMOOTH",
"88 75 OFFCURVE",
"236 -9 OFFCURVE",
"364 -9 CURVE SMOOTH"
);
}
);
};
layerId = "0B1DFD06-3317-40CA-B510-4969A0718C16";
paths = (
{
closed = 1;
nodes = (
"492 -9 OFFCURVE",
"620 77 OFFCURVE",
"620 223 CURVE SMOOTH",
"620 709 LINE",
"581 709 OFFCURVE",
"561 688 OFFCURVE",
"561 650 CURVE SMOOTH",
"561 223 LINE SMOOTH",
"561 127 OFFCURVE",
"485 46 OFFCURVE",
"354 46 CURVE SMOOTH",
"223 46 OFFCURVE",
"147 127 OFFCURVE",
"147 223 CURVE SMOOTH",
"147 709 LINE",
"109 709 OFFCURVE",
"88 688 OFFCURVE",
"88 650 CURVE SMOOTH",
"88 223 LINE SMOOTH",
"88 77 OFFCURVE",
"216 -9 OFFCURVE",
"354 -9 CURVE SMOOTH"
);
}
);
width = 728;
}
);
note = U;
unicode = 0055;
},
{
color = 4;
glyphname = V;
lastChange = "2018-01-23 02:50:41 +0000";
layers = (
{
background = {
paths = (
{
closed = 1;
nodes = (
"330 -9 OFFCURVE",
"342 -1 OFFCURVE",
"346 9 CURVE SMOOTH",
"622 706 LINE",
"591 719 OFFCURVE",
"557 703 OFFCURVE",
"545 672 CURVE SMOOTH",
"308 57 LINE",
"307 62 LINE",
"315 91 LINE",
"91 672 LINE SMOOTH",
"80 703 OFFCURVE",
"46 719 OFFCURVE",
"15 706 CURVE",
"290 9 LINE SMOOTH",
"295 -1 OFFCURVE",
"307 -9 OFFCURVE",
"318 -9 CURVE SMOOTH"
);
}
);
};
layerId = "0B1DFD06-3317-40CA-B510-4969A0718C16";
paths = (
{
closed = 1;
nodes = (
"332 -9 OFFCURVE",
"342 -3 OFFCURVE",
"346 9 CURVE SMOOTH",
"607 705 LINE",
"600 708 OFFCURVE",
"592 710 OFFCURVE",
"585 710 CURVE SMOOTH",
"561 710 OFFCURVE",
"539 695 OFFCURVE",
"530 671 CURVE SMOOTH",
"306 46 LINE",
"301 48 LINE",
"315 88 LINE",
"106 671 LINE SMOOTH",
"97 695 OFFCURVE",
"76 710 OFFCURVE",
"52 710 CURVE SMOOTH",
"45 710 OFFCURVE",
"37 708 OFFCURVE",
"30 705 CURVE",
"290 9 LINE SMOOTH",
"294 -3 OFFCURVE",
"305 -9 OFFCURVE",
"318 -9 CURVE SMOOTH"
);
}
);
width = 637;
}
);
note = V;
unicode = 0056;
},
{
color = 4;
glyphname = W;
lastChange = "2018-01-23 02:55:30 +0000";
layers = (
{
background = {
paths = (
{
closed = 1;
nodes = (
"466 525 LINE",
"458 557 LINE",
"460 562 LINE",
"643 -9 LINE",
"674 -9 OFFCURVE",
"691 9 OFFCURVE",
"702 40 CURVE SMOOTH",
"923 708 LINE",
"892 718 OFFCURVE",
"858 700 OFFCURVE",
"848 669 CURVE SMOOTH",
"654 72 LINE",
"653 77 LINE",
"660 108 LINE",
"497 622 LINE",
"492 634 OFFCURVE",
"482 641 OFFCURVE",
"469 641 CURVE SMOOTH",
"455 641 OFFCURVE",
"445 634 OFFCURVE",
"441 622 CURVE",
"265 72 LINE",
"264 77 LINE",
"271 108 LINE",
"90 669 LINE SMOOTH",
"80 700 OFFCURVE",
"46 718 OFFCURVE",
"15 708 CURVE",
"236 40 LINE SMOOTH",
"246 9 OFFCURVE",
"264 -9 OFFCURVE",
"295 -9 CURVE"
);
}
);
};
layerId = "0B1DFD06-3317-40CA-B510-4969A0718C16";
paths = (
{
closed = 1;
nodes = (
"497 690 LINE",
"492 702 OFFCURVE",
"482 709 OFFCURVE",
"469 709 CURVE SMOOTH",
"455 709 OFFCURVE",
"445 702 OFFCURVE",
"441 690 CURVE",
"258 64 LINE",
"254 66 LINE",
"266 108 LINE",
"135 667 LINE SMOOTH",
"129 692 OFFCURVE",
"103 709 OFFCURVE",
"77 709 CURVE SMOOTH",
"71 709 OFFCURVE",
"66 708 OFFCURVE",
"60 706 CURVE",
"231 40 LINE SMOOTH",
"239 9 OFFCURVE",
"259 -9 OFFCURVE",
"290 -9 CURVE",
"466 603 LINE",
"456 639 LINE",
"460 640 LINE",
"648 -9 LINE",
"679 -9 OFFCURVE",
"699 9 OFFCURVE",
"707 40 CURVE SMOOTH",
"878 706 LINE",
"872 708 OFFCURVE",
"865 709 OFFCURVE",
"859 709 CURVE SMOOTH",
"834 709 OFFCURVE",
"809 692 OFFCURVE",
"803 667 CURVE SMOOTH",
"657 64 LINE",
"653 66 LINE",
"663 108 LINE"
);
}
);
width = 940;
}
);
note = W;
unicode = 0057;
},
{
color = 4;
glyphname = X;
lastChange = "2018-01-23 03:08:13 +0000";
layers = (
{
background = {
paths = (
{
closed = 1;
nodes = (
"41 -18 OFFCURVE",
"72 -9 OFFCURVE",
"91 18 CURVE SMOOTH",
"310 317 LINE",
"528 18 LINE SMOOTH",
"547 -9 OFFCURVE",
"578 -18 OFFCURVE",
"604 1 CURVE",
"342 361 LINE",
"590 700 LINE",
"563 719 OFFCURVE",
"531 710 OFFCURVE",
"513 685 CURVE SMOOTH",
"310 405 LINE",
"106 685 LINE SMOOTH",
"88 710 OFFCURVE",
"56 719 OFFCURVE",
"29 700 CURVE",
"277 361 LINE",
"15 1 LINE"
);
}
);
};
layerId = "0B1DFD06-3317-40CA-B510-4969A0718C16";
paths = (
{
closed = 1;
nodes = (
"30 -6 OFFCURVE",
"40 -9 OFFCURVE",
"50 -9 CURVE SMOOTH",
"67 -9 OFFCURVE",
"84 1 OFFCURVE",
"96 18 CURVE SMOOTH",
"310 317 LINE",
"523 18 LINE SMOOTH",
"535 1 OFFCURVE",
"552 -9 OFFCURVE",
"569 -9 CURVE SMOOTH",
"579 -9 OFFCURVE",
"590 -6 OFFCURVE",
"599 1 CURVE",
"342 361 LINE",
"585 699 LINE",
"575 706 OFFCURVE",
"564 709 OFFCURVE",
"554 709 CURVE SMOOTH",
"536 709 OFFCURVE",
"519 700 OFFCURVE",
"508 684 CURVE SMOOTH",
"310 405 LINE",
"111 684 LINE SMOOTH",
"99 700 OFFCURVE",
"82 709 OFFCURVE",
"64 709 CURVE SMOOTH",
"54 709 OFFCURVE",
"44 706 OFFCURVE",
"34 699 CURVE",
"277 361 LINE",
"20 1 LINE"
);
}
);
width = 619;
}
);
note = X;
unicode = 0058;
},
{
color = 4;
glyphname = Y;
lastChange = "2018-01-22 12:02:24 +0000";
layers = (
{
background = {
paths = (
{
closed = 1;
nodes = (
"304 -9 OFFCURVE",
"324 12 OFFCURVE",
"324 50 CURVE SMOOTH",
"324 357 LINE",
"575 700 LINE",
"548 719 OFFCURVE",
"516 710 OFFCURVE",
"498 685 CURVE SMOOTH",
"295 405 LINE",
"91 685 LINE SMOOTH",
"74 710 OFFCURVE",
"41 719 OFFCURVE",
"15 700 CURVE",
"265 357 LINE",
"265 -9 LINE"
);
}
);
};
layerId = "0B1DFD06-3317-40CA-B510-4969A0718C16";
paths = (
{
closed = 1;
nodes = (
"304 -9 OFFCURVE",
"324 12 OFFCURVE",
"324 50 CURVE SMOOTH",
"324 257 LINE",
"575 699 LINE",
"565 706 OFFCURVE",
"554 709 OFFCURVE",
"544 709 CURVE SMOOTH",
"525 709 OFFCURVE",
"507 701 OFFCURVE",
"498 684 CURVE SMOOTH",
"295 305 LINE",
"91 684 LINE SMOOTH",
"82 700 OFFCURVE",
"65 709 OFFCURVE",
"46 709 CURVE SMOOTH",
"36 709 OFFCURVE",
"25 706 OFFCURVE",
"15 699 CURVE",
"265 257 LINE",
"265 -9 LINE"
);
}
);
width = 590;
}
);
note = Y;
unicode = 0059;
},
{
color = 4;
glyphname = Z;
lastChange = "2018-01-23 02:57:14 +0000";
layers = (
{
background = {
paths = (
{
closed = 1;
nodes = (
"590 0 LINE",
"590 35 OFFCURVE",
"572 53 OFFCURVE",
"537 53 CURVE SMOOTH",
"115 53 LINE",
"97 34 LINE",
"93 32 LINE",
"584 654 LINE SMOOTH",
"597 672 OFFCURVE",
"584 700 OFFCURVE",
"560 700 CURVE SMOOTH",
"29 700 LINE",
"29 665 OFFCURVE",
"47 647 OFFCURVE",
"83 647 CURVE SMOOTH",
"504 647 LINE",
"522 666 LINE",
"526 668 LINE",
"35 46 LINE SMOOTH",
"22 28 OFFCURVE",
"35 0 OFFCURVE",
"59 0 CURVE SMOOTH"
);
}
);
};
layerId = "0B1DFD06-3317-40CA-B510-4969A0718C16";
paths = (
{
closed = 1;
nodes = (
"596 0 LINE",
"596 33 OFFCURVE",
"578 51 OFFCURVE",
"543 51 CURVE SMOOTH",
"115 51 LINE",
"97 28 LINE",
"93 30 LINE",
"584 656 LINE SMOOTH",
"588 661 OFFCURVE",
"589 667 OFFCURVE",
"589 672 CURVE SMOOTH",
"589 690 OFFCURVE",
"581 700 OFFCURVE",
"562 700 CURVE SMOOTH",
"49 700 LINE",
"49 667 OFFCURVE",
"67 649 OFFCURVE",
"103 649 CURVE SMOOTH",
"504 649 LINE",
"522 672 LINE",
"526 670 LINE",
"35 44 LINE SMOOTH",
"31 39 OFFCURVE",
"30 33 OFFCURVE",
"30 28 CURVE SMOOTH",
"30 11 OFFCURVE",
"40 0 OFFCURVE",
"57 0 CURVE SMOOTH"
);
}
);
width = 619;
}
);
note = Z;
unicode = 005A;
},
{
color = 4;
glyphname = a;
lastChange = "2018-01-22 10:54:53 +0000";
layers = (
{
layerId = "0B1DFD06-3317-40CA-B510-4969A0718C16";
paths = (
{
closed = 1;
nodes = (
"328 -9 OFFCURVE",
"386 27 OFFCURVE",
"422 73 CURVE",
"425 70 LINE",
"419 61 OFFCURVE",
"414 55 OFFCURVE",
"404 44 CURVE",
"404 -9 LINE",
"439 -9 OFFCURVE",
"457 9 OFFCURVE",
"457 44 CURVE SMOOTH",
"457 338 LINE SMOOTH",
"457 444 OFFCURVE",
"384 509 OFFCURVE",
"268 509 CURVE SMOOTH",
"187 509 OFFCURVE",
"84 462 OFFCURVE",
"84 407 CURVE SMOOTH",
"84 391 OFFCURVE",
"94 375 OFFCURVE",
"108 364 CURVE",
"135 421 OFFCURVE",
"183 460 OFFCURVE",
"268 460 CURVE SMOOTH",
"366 460 OFFCURVE",
"404 407 OFFCURVE",
"404 338 CURVE SMOOTH",
"404 276 LINE",
"412 267 OFFCURVE",
"417 261 OFFCURVE",
"423 252 CURVE",
"420 250 LINE",
"384 294 OFFCURVE",
"332 326 OFFCURVE",
"255 326 CURVE SMOOTH",
"141 326 OFFCURVE",
"58 267 OFFCURVE",
"58 158 CURVE SMOOTH",
"58 54 OFFCURVE",
"138 -9 OFFCURVE",
"252 -9 CURVE SMOOTH"
);
},
{
closed = 1;
nodes = (
"167 40 OFFCURVE",
"113 84 OFFCURVE",
"113 158 CURVE SMOOTH",
"113 231 OFFCURVE",
"167 277 OFFCURVE",
"255 277 CURVE SMOOTH",
"351 277 OFFCURVE",
"406 230 OFFCURVE",
"406 158 CURVE SMOOTH",
"406 87 OFFCURVE",
"348 40 OFFCURVE",
"252 40 CURVE SMOOTH"
);
}
);
width = 545;
}
);
note = a;
unicode = 0061;
},
{
color = 4;
glyphname = b;
lastChange = "2018-01-22 10:13:14 +0000";
layers = (
{
layerId = "0B1DFD06-3317-40CA-B510-4969A0718C16";
paths = (
{
closed = 1;
nodes = (
"127 -9 OFFCURVE",
"142 11 OFFCURVE",
"142 49 CURVE",
"136 56 OFFCURVE",
"128 66 OFFCURVE",
"122 74 CURVE",
"124 78 LINE",
"159 34 OFFCURVE",
"212 -9 OFFCURVE",
"289 -9 CURVE SMOOTH",
"407 -9 OFFCURVE",
"486 54 OFFCURVE",
"486 159 CURVE SMOOTH",
"486 342 LINE SMOOTH",
"486 445 OFFCURVE",
"407 509 OFFCURVE",
"291 509 CURVE SMOOTH",
"219 509 OFFCURVE",
"161 469 OFFCURVE",
"124 426 CURVE",
"122 431 LINE",
"127 438 OFFCURVE",
"136 448 OFFCURVE",
"142 455 CURVE",
"142 709 LINE",
"106 709 OFFCURVE",
"88 691 OFFCURVE",
"88 656 CURVE SMOOTH",
"88 -9 LINE"
);
},
{
closed = 1;
nodes = (
"207 40 OFFCURVE",
"142 91 OFFCURVE",
"142 154 CURVE SMOOTH",
"142 347 LINE SMOOTH",
"142 409 OFFCURVE",
"210 460 OFFCURVE",
"289 460 CURVE SMOOTH",
"379 460 OFFCURVE",
"433 414 OFFCURVE",
"433 342 CURVE SMOOTH",
"433 159 LINE SMOOTH",
"433 84 OFFCURVE",
"379 40 OFFCURVE",
"287 40 CURVE SMOOTH"
);
}
);
width = 560;
}
);
note = b;
unicode = 0062;
},
{
color = 4;
glyphname = c;
lastChange = "2018-01-22 10:15:43 +0000";
layers = (
{
layerId = "0B1DFD06-3317-40CA-B510-4969A0718C16";
paths = (
{
closed = 1;
nodes = (
"364 -9 OFFCURVE",
"463 45 OFFCURVE",
"463 118 CURVE SMOOTH",
"463 142 OFFCURVE",
"438 159 OFFCURVE",
"421 159 CURVE",
"421 86 OFFCURVE",
"368 40 OFFCURVE",
"274 40 CURVE SMOOTH",
"190 40 OFFCURVE",
"127 91 OFFCURVE",
"127 158 CURVE SMOOTH",
"127 340 LINE SMOOTH",
"127 409 OFFCURVE",
"188 460 OFFCURVE",
"272 460 CURVE SMOOTH",
"366 460 OFFCURVE",
"418 414 OFFCURVE",
"418 340 CURVE",
"435 340 OFFCURVE",
"460 357 OFFCURVE",
"460 382 CURVE SMOOTH",
"460 453 OFFCURVE",
"365 509 OFFCURVE",
"272 509 CURVE SMOOTH",
"161 509 OFFCURVE",
"74 433 OFFCURVE",
"74 340 CURVE SMOOTH",
"74 158 LINE SMOOTH",
"74 65 OFFCURVE",
"163 -9 OFFCURVE",
"274 -9 CURVE SMOOTH"
);
}
);
width = 507;
}
);
note = c;
unicode = 0063;
},
{
color = 4;
glyphname = d;
lastChange = "2018-01-22 10:22:58 +0000";
layers = (
{
background = {
paths = (
{
closed = 1;
nodes = (
"340 -9 OFFCURVE",
"401 19 OFFCURVE",
"436 63 CURVE",
"438 59 LINE",
"433 53 OFFCURVE",
"425 43 OFFCURVE",
"419 38 CURVE",
"419 -9 LINE",
"454 -9 OFFCURVE",
"472 9 OFFCURVE",
"472 44 CURVE SMOOTH",
"472 709 LINE",
"436 709 OFFCURVE",
"419 691 OFFCURVE",
"419 656 CURVE SMOOTH",
"419 461 LINE",
"425 457 OFFCURVE",
"433 447 OFFCURVE",
"438 441 CURVE",
"436 436 LINE",
"401 481 OFFCURVE",
"340 509 OFFCURVE",
"273 509 CURVE SMOOTH",
"162 509 OFFCURVE",
"74 433 OFFCURVE",
"74 340 CURVE SMOOTH",
"74 158 LINE SMOOTH",
"74 65 OFFCURVE",
"162 -9 OFFCURVE",
"273 -9 CURVE SMOOTH"
);
},
{
closed = 1;
nodes = (
"189 40 OFFCURVE",
"127 96 OFFCURVE",
"127 158 CURVE SMOOTH",
"127 340 LINE SMOOTH",
"127 404 OFFCURVE",
"189 460 OFFCURVE",
"273 460 CURVE SMOOTH",
"357 460 OFFCURVE",
"419 404 OFFCURVE",
"419 340 CURVE SMOOTH",
"419 158 LINE SMOOTH",
"419 96 OFFCURVE",
"357 40 OFFCURVE",
"273 40 CURVE SMOOTH"
);
}
);
};
layerId = "0B1DFD06-3317-40CA-B510-4969A0718C16";
paths = (
{
closed = 1;
nodes = (
"418 455 LINE",
"424 448 OFFCURVE",
"433 438 OFFCURVE",
"438 431 CURVE",
"436 426 LINE",
"399 469 OFFCURVE",
"349 509 OFFCURVE",
"267 509 CURVE SMOOTH",
"151 509 OFFCURVE",
"74 445 OFFCURVE",
"74 342 CURVE SMOOTH",
"74 159 LINE SMOOTH",
"74 54 OFFCURVE",
"151 -9 OFFCURVE",
"269 -9 CURVE SMOOTH",
"346 -9 OFFCURVE",
"401 34 OFFCURVE",
"436 78 CURVE",
"438 74 LINE",
"432 66 OFFCURVE",
"424 56 OFFCURVE",
"418 49 CURVE",
"418 -9 LINE",
"457 -9 OFFCURVE",
"472 11 OFFCURVE",
"472 49 CURVE SMOOTH",
"472 709 LINE",
"436 709 OFFCURVE",
"418 691 OFFCURVE",
"418 656 CURVE SMOOTH"
);
},
{
closed = 1;
nodes = (
"181 40 OFFCURVE",
"127 84 OFFCURVE",
"127 159 CURVE SMOOTH",
"127 342 LINE SMOOTH",
"127 414 OFFCURVE",
"181 460 OFFCURVE",
"271 460 CURVE SMOOTH",
"365 460 OFFCURVE",
"418 409 OFFCURVE",
"418 347 CURVE SMOOTH",
"418 154 LINE SMOOTH",
"418 91 OFFCURVE",
"353 40 OFFCURVE",
"273 40 CURVE SMOOTH"
);
}
);
width = 560;
}
);
note = d;
unicode = 0064;
},
{
color = 4;
glyphname = e;
lastChange = "2018-01-22 10:17:59 +0000";
layers = (
{
background = {
paths = (
{
closed = 1;
nodes = (
"357 -9 OFFCURVE",
"427 34 OFFCURVE",
"457 96 CURVE SMOOTH",
"473 131 OFFCURVE",
"441 159 OFFCURVE",
"419 159 CURVE",
"419 96 OFFCURVE",
"357 40 OFFCURVE",
"273 40 CURVE SMOOTH",
"189 40 OFFCURVE",
"127 96 OFFCURVE",
"127 158 CURVE SMOOTH",
"127 261 LINE",
"445 261 LINE SMOOTH",
"458 261 OFFCURVE",
"472 273 OFFCURVE",
"472 287 CURVE SMOOTH",
"472 340 LINE SMOOTH",
"472 433 OFFCURVE",
"383 509 OFFCURVE",
"273 509 CURVE SMOOTH",
"162 509 OFFCURVE",
"74 433 OFFCURVE",
"74 340 CURVE SMOOTH",
"74 158 LINE SMOOTH",
"74 65 OFFCURVE",
"162 -9 OFFCURVE",
"273 -9 CURVE SMOOTH"
);
},
{
closed = 1;
nodes = (
"127 340 LINE SMOOTH",
"127 404 OFFCURVE",
"189 460 OFFCURVE",
"273 460 CURVE SMOOTH",
"357 460 OFFCURVE",
"419 404 OFFCURVE",
"419 340 CURVE SMOOTH",
"419 310 LINE",
"127 310 LINE"
);
}
);
};
layerId = "0B1DFD06-3317-40CA-B510-4969A0718C16";
paths = (
{
closed = 1;
nodes = (
"127 330 LINE SMOOTH",
"127 404 OFFCURVE",
"184 460 OFFCURVE",
"273 460 CURVE SMOOTH",
"362 460 OFFCURVE",
"419 404 OFFCURVE",
"419 330 CURVE SMOOTH",
"419 283 LINE",
"127 283 LINE"
);
},
{
closed = 1;
nodes = (
"363 -9 OFFCURVE",
"462 45 OFFCURVE",
"462 118 CURVE SMOOTH",
"462 142 OFFCURVE",
"437 159 OFFCURVE",
"420 159 CURVE",
"420 86 OFFCURVE",
"367 40 OFFCURVE",
"273 40 CURVE SMOOTH",
"177 40 OFFCURVE",
"127 91 OFFCURVE",
"127 168 CURVE SMOOTH",
"127 234 LINE",
"445 234 LINE SMOOTH",
"458 234 OFFCURVE",
"472 246 OFFCURVE",
"472 260 CURVE SMOOTH",
"472 330 LINE SMOOTH",
"472 433 OFFCURVE",
"383 509 OFFCURVE",
"273 509 CURVE SMOOTH",
"162 509 OFFCURVE",
"74 433 OFFCURVE",
"74 330 CURVE SMOOTH",
"74 168 LINE SMOOTH",
"74 65 OFFCURVE",
"152 -9 OFFCURVE",
"273 -9 CURVE SMOOTH"
);
}
);
width = 545;
}
);
note = e;
unicode = 0065;
},
{
color = 4;
glyphname = f;
lastChange = "2018-01-22 10:56:30 +0000";
layers = (
{
layerId = "0B1DFD06-3317-40CA-B510-4969A0718C16";
paths = (
{
closed = 1;
nodes = (
"136 -9 OFFCURVE",
"154 9 OFFCURVE",
"154 44 CURVE SMOOTH",
"154 460 LINE",
"228 460 LINE SMOOTH",
"258 460 OFFCURVE",
"276 478 OFFCURVE",
"276 509 CURVE",
"154 509 LINE",
"154 575 LINE SMOOTH",
"154 632 OFFCURVE",
"174 660 OFFCURVE",
"228 660 CURVE SMOOTH",
"252 660 OFFCURVE",
"276 651 OFFCURVE",
"290 642 CURVE",
"294 649 OFFCURVE",
"296 654 OFFCURVE",
"296 663 CURVE SMOOTH",
"296 684 OFFCURVE",
"274 709 OFFCURVE",
"231 709 CURVE SMOOTH",
"138 709 OFFCURVE",
"100 649 OFFCURVE",
"100 579 CURVE SMOOTH",
"100 509 LINE",
"63 509 LINE SMOOTH",
"32 509 OFFCURVE",
"15 491 OFFCURVE",
"15 460 CURVE",
"100 460 LINE",
"100 -9 LINE"
);
}
);
width = 295;
}
);
note = f;
unicode = 0066;
},
{
color = 4;
glyphname = g;
lastChange = "2018-01-22 10:29:33 +0000";
layers = (
{
layerId = "0B1DFD06-3317-40CA-B510-4969A0718C16";
paths = (
{
closed = 1;
nodes = (
"418 -110 OFFCURVE",
"371 -161 OFFCURVE",
"273 -161 CURVE SMOOTH",
"189 -161 OFFCURVE",
"129 -114 OFFCURVE",
"129 -45 CURVE",
"106 -45 OFFCURVE",
"86 -57 OFFCURVE",
"86 -85 CURVE SMOOTH",
"86 -151 OFFCURVE",
"178 -209 OFFCURVE",
"273 -209 CURVE SMOOTH",
"393 -209 OFFCURVE",
"472 -134 OFFCURVE",
"472 -23 CURVE SMOOTH",
"472 509 LINE",
"433 509 OFFCURVE",
"418 489 OFFCURVE",
"418 451 CURVE",
"424 444 OFFCURVE",
"432 434 OFFCURVE",
"438 426 CURVE",
"436 422 LINE",
"401 466 OFFCURVE",
"348 509 OFFCURVE",
"271 509 CURVE SMOOTH",
"153 509 OFFCURVE",
"74 446 OFFCURVE",
"74 341 CURVE SMOOTH",
"74 168 LINE SMOOTH",
"74 65 OFFCURVE",
"153 1 OFFCURVE",
"269 1 CURVE SMOOTH",
"341 1 OFFCURVE",
"399 41 OFFCURVE",
"436 84 CURVE",
"438 79 LINE",
"433 72 OFFCURVE",
"424 62 OFFCURVE",
"418 55 CURVE",
"418 -23 LINE SMOOTH"
);
},
{
closed = 1;
nodes = (
"353 460 OFFCURVE",
"418 409 OFFCURVE",
"418 346 CURVE SMOOTH",
"418 163 LINE SMOOTH",
"418 101 OFFCURVE",
"350 50 OFFCURVE",
"271 50 CURVE SMOOTH",
"181 50 OFFCURVE",
"127 96 OFFCURVE",
"127 168 CURVE SMOOTH",
"127 341 LINE SMOOTH",
"127 416 OFFCURVE",
"181 460 OFFCURVE",
"273 460 CURVE SMOOTH"
);
}
);
width = 560;
}
);
note = g;
unicode = 0067;
},
{
color = 4;
glyphname = h;
lastChange = "2018-01-22 10:34:35 +0000";
layers = (
{
layerId = "0B1DFD06-3317-40CA-B510-4969A0718C16";
paths = (
{
closed = 1;
nodes = (
"124 -9 OFFCURVE",
"142 9 OFFCURVE",
"142 44 CURVE SMOOTH",
"142 340 LINE SMOOTH",
"142 404 OFFCURVE",
"224 460 OFFCURVE",
"304 460 CURVE SMOOTH",
"395 460 OFFCURVE",
"433 412 OFFCURVE",
"433 340 CURVE SMOOTH",
"433 -9 LINE",
"469 -9 OFFCURVE",
"486 9 OFFCURVE",
"486 44 CURVE SMOOTH",
"486 340 LINE SMOOTH",
"486 438 OFFCURVE",
"425 509 OFFCURVE",
"307 509 CURVE SMOOTH",
"232 509 OFFCURVE",
"162 465 OFFCURVE",
"124 415 CURVE",
"122 420 LINE",
"127 426 OFFCURVE",
"136 437 OFFCURVE",
"142 443 CURVE",
"142 709 LINE",
"106 709 OFFCURVE",
"88 691 OFFCURVE",
"88 655 CURVE SMOOTH",
"88 -9 LINE"
);
}
);
width = 575;
}
);
note = h;
unicode = 0068;
},
{
color = 4;
glyphname = i;
lastChange = "2018-01-22 10:31:54 +0000";
layers = (
{
layerId = "0B1DFD06-3317-40CA-B510-4969A0718C16";
paths = (
{
closed = 1;
nodes = (
"124 -9 OFFCURVE",
"142 9 OFFCURVE",
"142 44 CURVE SMOOTH",
"142 509 LINE",
"106 509 OFFCURVE",
"88 491 OFFCURVE",
"88 455 CURVE SMOOTH",
"88 -9 LINE"
);
},
{
closed = 1;
nodes = (
"143 609 OFFCURVE",
"165 631 OFFCURVE",
"165 659 CURVE SMOOTH",
"165 687 OFFCURVE",
"143 709 OFFCURVE",
"115 709 CURVE SMOOTH",
"87 709 OFFCURVE",
"65 687 OFFCURVE",
"65 659 CURVE SMOOTH",
"65 631 OFFCURVE",
"87 609 OFFCURVE",
"115 609 CURVE SMOOTH"
);
}
);
width = 230;
}
);
note = i;
unicode = 0069;
},
{
color = 4;
glyphname = j;
lastChange = "2018-01-22 10:57:27 +0000";
layers = (
{
layerId = "0B1DFD06-3317-40CA-B510-4969A0718C16";
paths = (
{
closed = 1;
nodes = (
"143 609 OFFCURVE",
"165 631 OFFCURVE",
"165 659 CURVE SMOOTH",
"165 687 OFFCURVE",
"143 709 OFFCURVE",
"115 709 CURVE SMOOTH",
"87 709 OFFCURVE",
"65 687 OFFCURVE",
"65 659 CURVE SMOOTH",
"65 631 OFFCURVE",
"87 609 OFFCURVE",
"115 609 CURVE SMOOTH"
);
},
{
closed = 1;
nodes = (
"88 -132 OFFCURVE",
"68 -160 OFFCURVE",
"14 -160 CURVE SMOOTH",
"-10 -160 OFFCURVE",
"-34 -151 OFFCURVE",
"-48 -142 CURVE",
"-52 -149 OFFCURVE",
"-54 -154 OFFCURVE",
"-54 -163 CURVE SMOOTH",
"-54 -184 OFFCURVE",
"-32 -209 OFFCURVE",
"11 -209 CURVE SMOOTH",
"104 -209 OFFCURVE",
"142 -149 OFFCURVE",
"142 -79 CURVE SMOOTH",
"142 509 LINE",
"106 509 OFFCURVE",
"88 491 OFFCURVE",
"88 455 CURVE SMOOTH",
"88 -75 LINE SMOOTH"
);
}
);
width = 230;
}
);
note = j;
unicode = 006A;
},
{
color = 4;
glyphname = k;
lastChange = "2018-01-23 03:03:59 +0000";
layers = (
{
layerId = "0B1DFD06-3317-40CA-B510-4969A0718C16";
paths = (
{
closed = 1;
nodes = (
"124 -9 OFFCURVE",
"142 9 OFFCURVE",
"142 44 CURVE SMOOTH",
"142 170 LINE SMOOTH",
"142 238 OFFCURVE",
"203 291 OFFCURVE",
"295 291 CURVE SMOOTH",
"395 291 OFFCURVE",
"423 240 OFFCURVE",
"423 170 CURVE SMOOTH",
"423 -9 LINE",
"459 -9 OFFCURVE",
"476 9 OFFCURVE",
"476 44 CURVE SMOOTH",
"476 177 LINE SMOOTH",
"476 274 OFFCURVE",
"413 341 OFFCURVE",
"314 340 CURVE SMOOTH",
"299 340 OFFCURVE",
"286 338 OFFCURVE",
"267 333 CURVE",
"266 338 LINE",
"281 342 OFFCURVE",
"295 345 OFFCURVE",
"310 347 CURVE",
"436 433 LINE SMOOTH",
"467 451 OFFCURVE",
"472 476 OFFCURVE",
"454 507 CURVE",
"142 290 LINE",
"142 709 LINE",
"106 709 OFFCURVE",
"88 691 OFFCURVE",
"88 656 CURVE SMOOTH",
"88 -9 LINE"
);
}
);
width = 560;
}
);
note = k;
unicode = 006B;
},
{
color = 4;
glyphname = l;
lastChange = "2018-01-22 10:47:23 +0000";
layers = (
{
layerId = "0B1DFD06-3317-40CA-B510-4969A0718C16";
paths = (
{
closed = 1;
nodes = (
"142 709 LINE",
"106 709 OFFCURVE",
"88 691 OFFCURVE",
"88 656 CURVE SMOOTH",
"88 119 LINE SMOOTH",
"88 44 OFFCURVE",
"125 -9 OFFCURVE",
"213 -9 CURVE SMOOTH",
"256 -9 OFFCURVE",
"284 13 OFFCURVE",
"284 35 CURVE SMOOTH",
"284 44 OFFCURVE",
"282 51 OFFCURVE",
"278 58 CURVE",
"264 49 OFFCURVE",
"240 40 OFFCURVE",
"216 40 CURVE SMOOTH",
"160 40 OFFCURVE",
"142 64 OFFCURVE",
"142 121 CURVE SMOOTH"
);
}
);
width = 283;
}
);
note = l;
unicode = 006C;
},
{
color = 4;
glyphname = m;
lastChange = "2018-01-22 10:55:03 +0000";
layers = (
{
background = {
paths = (
{
closed = 1;
nodes = (
"124 -9 OFFCURVE",
"142 9 OFFCURVE",
"142 44 CURVE SMOOTH",
"142 374 LINE SMOOTH",
"142 422 OFFCURVE",
"189 460 OFFCURVE",
"249 460 CURVE SMOOTH",
"310 460 OFFCURVE",
"358 422 OFFCURVE",
"358 374 CURVE SMOOTH",
"358 -9 LINE",
"394 -9 OFFCURVE",
"411 9 OFFCURVE",
"411 44 CURVE SMOOTH",
"411 374 LINE SMOOTH",
"411 422 OFFCURVE",
"458 460 OFFCURVE",
"519 460 CURVE SMOOTH",
"579 460 OFFCURVE",
"628 422 OFFCURVE",
"628 374 CURVE SMOOTH",
"628 -9 LINE",
"663 -9 OFFCURVE",
"681 9 OFFCURVE",
"681 44 CURVE SMOOTH",
"681 374 LINE SMOOTH",
"681 448 OFFCURVE",
"609 509 OFFCURVE",
"519 509 CURVE SMOOTH",
"451 509 OFFCURVE",
"394 475 OFFCURVE",
"370 426 CURVE",
"368 430 LINE",
"370 436 OFFCURVE",
"376 448 OFFCURVE",
"380 454 CURVE",
"351 488 OFFCURVE",
"302 509 OFFCURVE",
"249 509 CURVE SMOOTH",
"198 509 OFFCURVE",
"153 489 OFFCURVE",
"124 460 CURVE",
"119 461 LINE",
"124 467 OFFCURVE",
"136 478 OFFCURVE",
"142 482 CURVE",
"142 509 LINE",
"106 509 OFFCURVE",
"88 491 OFFCURVE",
"88 455 CURVE SMOOTH",
"88 -9 LINE"
);
}
);
};
layerId = "0B1DFD06-3317-40CA-B510-4969A0718C16";
paths = (
{
closed = 1;
nodes = (
"124 -9 OFFCURVE",
"142 9 OFFCURVE",
"142 44 CURVE SMOOTH",
"142 340 LINE SMOOTH",
"142 404 OFFCURVE",
"209 460 OFFCURVE",
"273 460 CURVE SMOOTH",
"344 460 OFFCURVE",
"371 412 OFFCURVE",
"371 340 CURVE SMOOTH",
"371 -9 LINE",
"407 -9 OFFCURVE",
"424 9 OFFCURVE",
"424 44 CURVE SMOOTH",
"424 340 LINE SMOOTH",
"424 404 OFFCURVE",
"484 460 OFFCURVE",
"555 460 CURVE SMOOTH",
"626 460 OFFCURVE",
"653 412 OFFCURVE",
"653 340 CURVE SMOOTH",
"653 -9 LINE",
"689 -9 OFFCURVE",
"706 9 OFFCURVE",
"706 44 CURVE SMOOTH",
"706 340 LINE SMOOTH",
"706 438 OFFCURVE",
"659 509 OFFCURVE",
"558 509 CURVE SMOOTH",
"487 509 OFFCURVE",
"441 472 OFFCURVE",
"406 421 CURVE",
"385 475 OFFCURVE",
"346.139 509 OFFCURVE",
"276 509 CURVE SMOOTH",
"208 509 OFFCURVE",
"162 465 OFFCURVE",
"124 415 CURVE",
"122 420 LINE",
"127 426 OFFCURVE",
"134 435 OFFCURVE",
"140 441 CURVE",
"140 509 LINE",
"104 509 OFFCURVE",
"88 491 OFFCURVE",
"88 455 CURVE SMOOTH",
"88 -9 LINE"
);
}
);
width = 769;
}
);
note = m;
unicode = 006D;
},
{
color = 4;
glyphname = n;
lastChange = "2018-01-22 10:34:16 +0000";
layers = (
{
background = {
paths = (
{
closed = 1;
nodes = (
"124 -9 OFFCURVE",
"142 9 OFFCURVE",
"142 44 CURVE SMOOTH",
"142 340 LINE SMOOTH",
"142 404 OFFCURVE",
"203 460 OFFCURVE",
"287 460 CURVE SMOOTH",
"371 460 OFFCURVE",
"433 404 OFFCURVE",
"433 340 CURVE SMOOTH",
"433 -9 LINE",
"469 -9 OFFCURVE",
"486 9 OFFCURVE",
"486 44 CURVE SMOOTH",
"486 340 LINE SMOOTH",
"486 433 OFFCURVE",
"398 509 OFFCURVE",
"287 509 CURVE SMOOTH",
"220 509 OFFCURVE",
"159 481 OFFCURVE",
"124 436 CURVE",
"122 441 LINE",
"127 447 OFFCURVE",
"136 457 OFFCURVE",
"142 461 CURVE",
"142 509 LINE",
"106 509 OFFCURVE",
"88 491 OFFCURVE",
"88 455 CURVE SMOOTH",
"88 -9 LINE"
);
}
);
};
layerId = "0B1DFD06-3317-40CA-B510-4969A0718C16";
paths = (
{
closed = 1;
nodes = (
"124 -9 OFFCURVE",
"142 9 OFFCURVE",
"142 44 CURVE SMOOTH",
"142 340 LINE SMOOTH",
"142 404 OFFCURVE",
"224 460 OFFCURVE",
"304 460 CURVE SMOOTH",
"395 460 OFFCURVE",
"433 412 OFFCURVE",
"433 340 CURVE SMOOTH",
"433 -9 LINE",
"469 -9 OFFCURVE",
"486 9 OFFCURVE",
"486 44 CURVE SMOOTH",
"486 340 LINE SMOOTH",
"486 438 OFFCURVE",
"425 509 OFFCURVE",
"307 509 CURVE SMOOTH",
"232 509 OFFCURVE",
"162 465 OFFCURVE",
"124 415 CURVE",
"122 420 LINE",
"127 426 OFFCURVE",
"134 435 OFFCURVE",
"140 441 CURVE",
"140 509 LINE",
"104 509 OFFCURVE",
"88 491 OFFCURVE",
"88 455 CURVE SMOOTH",
"88 -9 LINE"
);
}
);
width = 575;
}
);
note = n;
unicode = 006E;
},
{
color = 4;
glyphname = o;
lastChange = "2018-01-22 10:36:50 +0000";
layers = (
{
layerId = "0B1DFD06-3317-40CA-B510-4969A0718C16";
paths = (
{
closed = 1;
nodes = (
"460 -9 OFFCURVE",
"577 106 OFFCURVE",
"577 249 CURVE SMOOTH",
"577 392 OFFCURVE",
"460 509 OFFCURVE",
"317 509 CURVE SMOOTH",
"174 509 OFFCURVE",
"58 392 OFFCURVE",
"58 249 CURVE SMOOTH",
"58 106 OFFCURVE",
"174 -9 OFFCURVE",
"317 -9 CURVE SMOOTH"
);
},
{
closed = 1;
nodes = (
"203 40 OFFCURVE",
"113 129 OFFCURVE",
"113 249 CURVE SMOOTH",
"113 370 OFFCURVE",
"203 460 OFFCURVE",
"317 460 CURVE SMOOTH",
"430 460 OFFCURVE",
"522 370 OFFCURVE",
"522 249 CURVE SMOOTH",
"522 129 OFFCURVE",
"430 40 OFFCURVE",
"317 40 CURVE SMOOTH"
);
}
);
width = 635;
}
);
note = o;
unicode = 006F;
},
{
color = 4;
glyphname = p;
lastChange = "2018-01-22 10:19:13 +0000";
layers = (
{
background = {
paths = (
{
closed = 1;
nodes = (
"124 -209 OFFCURVE",
"142 -192 OFFCURVE",
"142 -156 CURVE SMOOTH",
"142 38 LINE",
"136 43 OFFCURVE",
"127 53 OFFCURVE",
"122 59 CURVE",
"124 63 LINE",
"159 19 OFFCURVE",
"220 -9 OFFCURVE",
"287 -9 CURVE SMOOTH",
"398 -9 OFFCURVE",
"486 65 OFFCURVE",
"486 158 CURVE SMOOTH",
"486 340 LINE SMOOTH",
"486 433 OFFCURVE",
"398 509 OFFCURVE",
"287 509 CURVE SMOOTH",
"220 509 OFFCURVE",
"159 481 OFFCURVE",
"124 436 CURVE",
"122 441 LINE",
"127 447 OFFCURVE",
"136 457 OFFCURVE",
"142 461 CURVE",
"142 509 LINE",
"106 509 OFFCURVE",
"88 491 OFFCURVE",
"88 455 CURVE SMOOTH",
"88 -209 LINE"
);
},
{
closed = 1;
nodes = (
"203 40 OFFCURVE",
"142 96 OFFCURVE",
"142 158 CURVE SMOOTH",
"142 340 LINE SMOOTH",
"142 404 OFFCURVE",
"203 460 OFFCURVE",
"287 460 CURVE SMOOTH",
"371 460 OFFCURVE",
"433 404 OFFCURVE",
"433 340 CURVE SMOOTH",
"433 158 LINE SMOOTH",
"433 96 OFFCURVE",
"371 40 OFFCURVE",
"287 40 CURVE SMOOTH"
);
}
);
};
layerId = "0B1DFD06-3317-40CA-B510-4969A0718C16";
paths = (
{
closed = 1;
nodes = (
"142 45 LINE",
"136 52 OFFCURVE",
"127 62 OFFCURVE",
"122 69 CURVE",
"124 74 LINE",
"161 31 OFFCURVE",
"209 -9 OFFCURVE",
"291 -9 CURVE SMOOTH",
"407 -9 OFFCURVE",
"486 55 OFFCURVE",
"486 158 CURVE SMOOTH",
"486 341 LINE SMOOTH",
"486 446 OFFCURVE",
"407 509 OFFCURVE",
"289 509 CURVE SMOOTH",
"212 509 OFFCURVE",
"159 466 OFFCURVE",
"124 422 CURVE",
"122 426 LINE",
"128 434 OFFCURVE",
"136 444 OFFCURVE",
"142 451 CURVE",
"142 509 LINE",
"103 509 OFFCURVE",
"88 489 OFFCURVE",
"88 451 CURVE SMOOTH",
"88 -209 LINE",
"124 -209 OFFCURVE",
"142 -191 OFFCURVE",
"142 -156 CURVE SMOOTH"
);
},
{
closed = 1;
nodes = (
"379 460 OFFCURVE",
"433 416 OFFCURVE",
"433 341 CURVE SMOOTH",
"433 158 LINE SMOOTH",
"433 86 OFFCURVE",
"379 40 OFFCURVE",
"289 40 CURVE SMOOTH",
"195 40 OFFCURVE",
"142 91 OFFCURVE",
"142 153 CURVE SMOOTH",
"142 346 LINE SMOOTH",
"142 409 OFFCURVE",
"207 460 OFFCURVE",
"287 460 CURVE SMOOTH"
);
}
);
width = 560;
}
);
note = p;
unicode = 0070;
},
{
color = 4;
glyphname = q;
lastChange = "2018-01-22 10:20:15 +0000";
layers = (
{
background = {
paths = (
{
closed = 1;
nodes = (
"454 -209 OFFCURVE",
"472 -192 OFFCURVE",
"472 -156 CURVE SMOOTH",
"472 509 LINE",
"433 509 OFFCURVE",
"420 491 OFFCURVE",
"419 461 CURVE",
"425 457 OFFCURVE",
"433 447 OFFCURVE",
"438 441 CURVE",
"436 436 LINE",
"401 481 OFFCURVE",
"340 509 OFFCURVE",
"273 509 CURVE SMOOTH",
"162 509 OFFCURVE",
"74 433 OFFCURVE",
"74 340 CURVE SMOOTH",
"74 158 LINE SMOOTH",
"74 65 OFFCURVE",
"162 -9 OFFCURVE",
"273 -9 CURVE SMOOTH",
"340 -9 OFFCURVE",
"401 19 OFFCURVE",
"436 63 CURVE",
"438 59 LINE",
"433 53 OFFCURVE",
"425 43 OFFCURVE",
"419 38 CURVE",
"419 -209 LINE"
);
},
{
closed = 1;
nodes = (
"189 40 OFFCURVE",
"127 96 OFFCURVE",
"127 158 CURVE SMOOTH",
"127 340 LINE SMOOTH",
"127 404 OFFCURVE",
"189 460 OFFCURVE",
"273 460 CURVE SMOOTH",
"357 460 OFFCURVE",
"419 404 OFFCURVE",
"419 340 CURVE SMOOTH",
"419 158 LINE SMOOTH",
"419 96 OFFCURVE",
"357 40 OFFCURVE",
"273 40 CURVE SMOOTH"
);
}
);
};
layerId = "0B1DFD06-3317-40CA-B510-4969A0718C16";
paths = (
{
closed = 1;
nodes = (
"433 509 OFFCURVE",
"418 489 OFFCURVE",
"418 451 CURVE",
"424 444 OFFCURVE",
"432 434 OFFCURVE",
"438 426 CURVE",
"436 422 LINE",
"401 466 OFFCURVE",
"348 509 OFFCURVE",
"271 509 CURVE SMOOTH",
"153 509 OFFCURVE",
"74 446 OFFCURVE",
"74 341 CURVE SMOOTH",
"74 158 LINE SMOOTH",
"74 55 OFFCURVE",
"153 -9 OFFCURVE",
"269 -9 CURVE SMOOTH",
"341 -9 OFFCURVE",
"399 31 OFFCURVE",
"436 74 CURVE",
"438 69 LINE",
"433 62 OFFCURVE",
"424 52 OFFCURVE",
"418 45 CURVE",
"418 -209 LINE",
"454 -209 OFFCURVE",
"472 -191 OFFCURVE",
"472 -156 CURVE SMOOTH",
"472 509 LINE"
);
},
{
closed = 1;
nodes = (
"353 460 OFFCURVE",
"418 409 OFFCURVE",
"418 346 CURVE SMOOTH",
"418 153 LINE SMOOTH",
"418 91 OFFCURVE",
"350 40 OFFCURVE",
"271 40 CURVE SMOOTH",
"181 40 OFFCURVE",
"127 86 OFFCURVE",
"127 158 CURVE SMOOTH",
"127 341 LINE SMOOTH",
"127 416 OFFCURVE",
"181 460 OFFCURVE",
"273 460 CURVE SMOOTH"
);
}
);
width = 560;
}
);
note = q;
unicode = 0071;
},
{
color = 4;
glyphname = r;
lastChange = "2018-01-22 11:00:48 +0000";
layers = (
{
layerId = "0B1DFD06-3317-40CA-B510-4969A0718C16";
paths = (
{
closed = 1;
nodes = (
"299 460 OFFCURVE",
"327 453 OFFCURVE",
"342 445 CURVE",
"346 452 OFFCURVE",
"348 457 OFFCURVE",
"348 466 CURVE SMOOTH",
"348 487 OFFCURVE",
"327 509 OFFCURVE",
"284 509 CURVE SMOOTH",
"211 509 OFFCURVE",
"160 468 OFFCURVE",
"122 416 CURVE",
"120 420 LINE",
"125 428 OFFCURVE",
"132 437 OFFCURVE",
"140 446 CURVE",
"140 509 LINE",
"104 509 OFFCURVE",
"88 491 OFFCURVE",
"88 455 CURVE SMOOTH",
"88 -9 LINE",
"124 -9 OFFCURVE",
"142 9 OFFCURVE",
"142 44 CURVE SMOOTH",
"142 340 LINE SMOOTH",
"142 404 OFFCURVE",
"196 460 OFFCURVE",
"269 460 CURVE SMOOTH"
);
}
);
width = 370;
}
);
note = r;
unicode = 0072;
},
{
color = 4;
glyphname = s;
lastChange = "2018-01-22 10:58:26 +0000";
layers = (
{
background = {
paths = (
{
closed = 1;
nodes = (
"352 -9 OFFCURVE",
"448 71 OFFCURVE",
"441 158 CURVE SMOOTH",
"435 245 OFFCURVE",
"358 258 OFFCURVE",
"246 282 CURVE SMOOTH",
"159 299 OFFCURVE",
"122 312 OFFCURVE",
"118 360 CURVE SMOOTH",
"113 408 OFFCURVE",
"165 460 OFFCURVE",
"242 460 CURVE SMOOTH",
"321 460 OFFCURVE",
"382 389 OFFCURVE",
"364 315 CURVE",
"398 311 OFFCURVE",
"423 332 OFFCURVE",
"417 368 CURVE SMOOTH",
"404 448 OFFCURVE",
"343 509 OFFCURVE",
"242 509 CURVE SMOOTH",
"130 509 OFFCURVE",
"57 432 OFFCURVE",
"65 354 CURVE SMOOTH",
"72 273 OFFCURVE",
"122 255 OFFCURVE",
"237 233 CURVE SMOOTH",
"323 215 OFFCURVE",
"385 200 OFFCURVE",
"388 155 CURVE SMOOTH",
"392 97 OFFCURVE",
"323 40 OFFCURVE",
"242 40 CURVE SMOOTH",
"164 40 OFFCURVE",
"77 102 OFFCURVE",
"97 183 CURVE",
"57 187 OFFCURVE",
"40 162 OFFCURVE",
"46 130 CURVE SMOOTH",
"60 50 OFFCURVE",
"144 -9 OFFCURVE",
"242 -9 CURVE SMOOTH"
);
}
);
};
layerId = "0B1DFD06-3317-40CA-B510-4969A0718C16";
paths = (
{
closed = 1;
nodes = (
"371 -9 OFFCURVE",
"439 45 OFFCURVE",
"439 131 CURVE SMOOTH",
"439 223 OFFCURVE",
"362 254 OFFCURVE",
"246 278 CURVE SMOOTH",
"159 296 OFFCURVE",
"118 322 OFFCURVE",
"118 377 CURVE SMOOTH",
"118 425 OFFCURVE",
"157 460 OFFCURVE",
"234 460 CURVE SMOOTH",
"321 460 OFFCURVE",
"363 409 OFFCURVE",
"363 340 CURVE",
"390 340 OFFCURVE",
"412 352 OFFCURVE",
"412 381 CURVE SMOOTH",
"412 452 OFFCURVE",
"339 509 OFFCURVE",
"234 509 CURVE SMOOTH",
"127 509 OFFCURVE",
"65 452 OFFCURVE",
"65 377 CURVE SMOOTH",
"65 294 OFFCURVE",
"122 253 OFFCURVE",
"237 229 CURVE SMOOTH",
"339 208 OFFCURVE",
"386 191 OFFCURVE",
"386 128 CURVE SMOOTH",
"386 72 OFFCURVE",
"343 40 OFFCURVE",
"256 40 CURVE SMOOTH",
"163 40 OFFCURVE",
"107 81 OFFCURVE",
"107 173 CURVE",
"82 173 OFFCURVE",
"56 164 OFFCURVE",
"56 134 CURVE SMOOTH",
"56 54 OFFCURVE",
"136 -9 OFFCURVE",
"256 -9 CURVE SMOOTH"
);
}
);
width = 485;
}
);
note = s;
unicode = 0073;
},
{
color = 4;
glyphname = t;
lastChange = "2018-01-22 11:02:42 +0000";
layers = (
{
layerId = "0B1DFD06-3317-40CA-B510-4969A0718C16";
paths = (
{
closed = 1;
nodes = (
"154 460 LINE",
"239 460 LINE SMOOTH",
"269 460 OFFCURVE",
"287 478 OFFCURVE",
"287 509 CURVE",
"154 509 LINE",
"154 659 LINE",
"119 659 OFFCURVE",
"100 641 OFFCURVE",
"100 606 CURVE SMOOTH",
"100 509 LINE",
"63 509 LINE SMOOTH",
"32 509 OFFCURVE",
"15 491 OFFCURVE",
"15 460 CURVE",
"100 460 LINE",
"100 119 LINE SMOOTH",
"100 44 OFFCURVE",
"137 -9 OFFCURVE",
"225 -9 CURVE SMOOTH",
"268 -9 OFFCURVE",
"296 13 OFFCURVE",
"296 35 CURVE SMOOTH",
"296 44 OFFCURVE",
"294 51 OFFCURVE",
"290 58 CURVE",
"276 49 OFFCURVE",
"252 40 OFFCURVE",
"228 40 CURVE SMOOTH",
"172 40 OFFCURVE",
"154 64 OFFCURVE",
"154 121 CURVE SMOOTH"
);
}
);
width = 295;
}
);
note = t;
unicode = 0074;
},
{
color = 4;
glyphname = u;
lastChange = "2018-01-22 10:35:40 +0000";
layers = (
{
background = {
paths = (
{
closed = 1;
nodes = (
"355 -9 OFFCURVE",
"416 19 OFFCURVE",
"451 63 CURVE",
"453 59 LINE",
"448 53 OFFCURVE",
"439 43 OFFCURVE",
"433 38 CURVE",
"433 -9 LINE",
"469 -9 OFFCURVE",
"486 9 OFFCURVE",
"486 44 CURVE SMOOTH",
"486 509 LINE",
"451 509 OFFCURVE",
"433 491 OFFCURVE",
"433 455 CURVE SMOOTH",
"433 159 LINE SMOOTH",
"433 96 OFFCURVE",
"371 40 OFFCURVE",
"287 40 CURVE SMOOTH",
"203 40 OFFCURVE",
"142 96 OFFCURVE",
"142 159 CURVE SMOOTH",
"142 509 LINE",
"106 509 OFFCURVE",
"88 491 OFFCURVE",
"88 455 CURVE SMOOTH",
"88 159 LINE SMOOTH",
"88 66 OFFCURVE",
"177 -9 OFFCURVE",
"287 -9 CURVE SMOOTH"
);
}
);
};
layerId = "0B1DFD06-3317-40CA-B510-4969A0718C16";
paths = (
{
closed = 1;
nodes = (
"450 509 OFFCURVE",
"432 491 OFFCURVE",
"432 456 CURVE SMOOTH",
"432 160 LINE SMOOTH",
"432 96 OFFCURVE",
"354 40 OFFCURVE",
"274 40 CURVE SMOOTH",
"183 40 OFFCURVE",
"141 93 OFFCURVE",
"141 165 CURVE SMOOTH",
"141 509 LINE",
"105 509 OFFCURVE",
"88 491 OFFCURVE",
"88 456 CURVE SMOOTH",
"88 165 LINE SMOOTH",
"88 67 OFFCURVE",
"153 -9 OFFCURVE",
"271 -9 CURVE SMOOTH",
"346 -9 OFFCURVE",
"412 35 OFFCURVE",
"450 85 CURVE",
"452 80 LINE",
"447 74 OFFCURVE",
"440 65 OFFCURVE",
"434 59 CURVE",
"434 -9 LINE",
"470 -9 OFFCURVE",
"486 9 OFFCURVE",
"486 45 CURVE SMOOTH",
"486 509 LINE"
);
}
);
width = 575;
}
);
note = u;
unicode = 0075;
},
{
color = 4;
glyphname = v;
lastChange = "2018-01-22 11:07:18 +0000";
layers = (
{
layerId = "0B1DFD06-3317-40CA-B510-4969A0718C16";
paths = (
{
closed = 1;
nodes = (
"271 7 LINE SMOOTH",
"268 -1 OFFCURVE",
"258 -9 OFFCURVE",
"248 -9 CURVE SMOOTH",
"237 -9 OFFCURVE",
"227 -1 OFFCURVE",
"224 7 CURVE SMOOTH",
"22 504 LINE",
"29 507 OFFCURVE",
"36 509 OFFCURVE",
"44 509 CURVE SMOOTH",
"64 509 OFFCURVE",
"77 499 OFFCURVE",
"85 478 CURVE SMOOTH",
"245 76 LINE",
"233 42 LINE",
"236 40 LINE",
"410 478 LINE SMOOTH",
"418 499 OFFCURVE",
"431 509 OFFCURVE",
"451 509 CURVE SMOOTH",
"459 509 OFFCURVE",
"466 507 OFFCURVE",
"473 504 CURVE"
);
}
);
width = 495;
}
);
note = v;
unicode = 0076;
},
{
color = 4;
glyphname = w;
lastChange = "2018-01-22 11:20:14 +0000";
layers = (
{
layerId = "0B1DFD06-3317-40CA-B510-4969A0718C16";
paths = (
{
closed = 1;
nodes = (
"489 59 LINE",
"497 90 LINE",
"382 490 LINE SMOOTH",
"378 503 OFFCURVE",
"367 509 OFFCURVE",
"357 509 CURVE SMOOTH",
"346 509 OFFCURVE",
"336 503 OFFCURVE",
"332 490 CURVE SMOOTH",
"206 57 LINE",
"202 59 LINE",
"210 90 LINE",
"103 478 LINE SMOOTH",
"97 501 OFFCURVE",
"84 509 OFFCURVE",
"64 509 CURVE SMOOTH",
"56 509 OFFCURVE",
"49 507 OFFCURVE",
"42 504 CURVE",
"179 31 LINE SMOOTH",
"186 6 OFFCURVE",
"203 -9 OFFCURVE",
"229 -9 CURVE",
"354 419 LINE",
"346 449 LINE",
"349 450 LINE",
"484 -9 LINE",
"511 -9 OFFCURVE",
"527 6 OFFCURVE",
"534 31 CURVE SMOOTH",
"671 504 LINE",
"664 507 OFFCURVE",
"657 509 OFFCURVE",
"649 509 CURVE SMOOTH",
"629 509 OFFCURVE",
"616 501 OFFCURVE",
"610 478 CURVE SMOOTH",
"493 57 LINE"
);
}
);
width = 713;
}
);
note = w;
unicode = 0077;
},
{
color = 4;
glyphname = x;
lastChange = "2018-01-22 11:24:04 +0000";
layers = (
{
layerId = "0B1DFD06-3317-40CA-B510-4969A0718C16";
paths = (
{
closed = 1;
nodes = (
"40 -5 OFFCURVE",
"51 -9 OFFCURVE",
"61 -9 CURVE SMOOTH",
"74 -9 OFFCURVE",
"86 -2 OFFCURVE",
"96 13 CURVE SMOOTH",
"249 228 LINE",
"402 13 LINE SMOOTH",
"413 -2 OFFCURVE",
"426 -9 OFFCURVE",
"440 -9 CURVE SMOOTH",
"450 -9 OFFCURVE",
"460 -4 OFFCURVE",
"470 4 CURVE",
"280 267 LINE",
"447 497 LINE",
"436 505 OFFCURVE",
"425 509 OFFCURVE",
"415 509 CURVE SMOOTH",
"402 509 OFFCURVE",
"388 502 OFFCURVE",
"377 486 CURVE SMOOTH",
"249 305 LINE",
"121 486 LINE SMOOTH",
"110 501 OFFCURVE",
"97 509 OFFCURVE",
"84 509 CURVE SMOOTH",
"74 509 OFFCURVE",
"63 505 OFFCURVE",
"52 497 CURVE",
"218 267 LINE",
"28 4 LINE"
);
}
);
width = 498;
}
);
note = x;
unicode = 0078;
},
{
color = 4;
glyphname = y;
lastChange = "2018-01-22 11:27:12 +0000";
layers = (
{
layerId = "0B1DFD06-3317-40CA-B510-4969A0718C16";
paths = (
{
closed = 1;
nodes = (
"208 -146 OFFCURVE",
"246 -53 CURVE SMOOTH",
"473 504 LINE",
"465 507 OFFCURVE",
"458 509 OFFCURVE",
"451 509 CURVE SMOOTH",
"429 509 OFFCURVE",
"417 496 OFFCURVE",
"410 478 CURVE SMOOTH",
"236 44 LINE",
"232 46 LINE",
"245 80 LINE",
"85 478 LINE SMOOTH",
"78 496 OFFCURVE",
"63 508 OFFCURVE",
"44 509 CURVE SMOOTH",
"37 509 OFFCURVE",
"30 507 OFFCURVE",
"22 504 CURVE",
"221 15 LINE",
"199 -38 LINE SMOOTH",
"164 -123 OFFCURVE",
"130 -167 OFFCURVE",
"59 -167 CURVE SMOOTH",
"46 -167 OFFCURVE",
"35 -166 OFFCURVE",
"23 -164 CURVE",
"26 -192 OFFCURVE",
"41 -208 OFFCURVE",
"71 -208 CURVE SMOOTH",
"160 -208 OFFCURVE"
);
}
);
width = 495;
}
);
note = y;
unicode = 0079;
},
{
color = 4;
glyphname = z;
lastChange = "2018-01-22 12:16:29 +0000";
layers = (
{
layerId = "0B1DFD06-3317-40CA-B510-4969A0718C16";
paths = (
{
closed = 1;
nodes = (
"428 0 LINE",
"428 29 OFFCURVE",
"410 47 OFFCURVE",
"379 47 CURVE SMOOTH",
"98 47 LINE",
"81 27 LINE",
"77 29 LINE",
"417 457 LINE SMOOTH",
"431 475 OFFCURVE",
"422 500 OFFCURVE",
"397 500 CURVE SMOOTH",
"32 500 LINE",
"32 471 OFFCURVE",
"50 453 OFFCURVE",
"81 453 CURVE SMOOTH",
"349 453 LINE",
"368 476 LINE",
"371 474 LINE",
"28 42 LINE SMOOTH",
"14 24 OFFCURVE",
"28 0 OFFCURVE",
"49 0 CURVE SMOOTH"
);
}
);
width = 445;
}
);
note = z;
unicode = 007A;
},
{
glyphname = AE;
lastChange = "2018-01-16 07:49:44 +0000";
layers = (
{
layerId = "0B1DFD06-3317-40CA-B510-4969A0718C16";
paths = (
{
closed = 1;
nodes = (
"198 228 LINE",
"497 228 LINE",
"520 0 LINE",
"821 0 LINE SMOOTH",
"856 0 OFFCURVE",
"874 18 OFFCURVE",
"874 53 CURVE",
"578 53 LINE",
"547 324 LINE",
"777 324 LINE SMOOTH",
"812 324 OFFCURVE",
"830 342 OFFCURVE",
"830 377 CURVE",
"539 377 LINE",
"509 647 LINE",
"859 647 LINE",
"859 682 OFFCURVE",
"842 700 OFFCURVE",
"806 700 CURVE SMOOTH",
"453 700 LINE",
"25 68 LINE SMOOTH",
"4 37 OFFCURVE",
"10 3 OFFCURVE",
"38 -9 CURVE"
);
},
{
closed = 1;
nodes = (
"450 609 LINE",
"448 638 LINE",
"451 643 LINE",
"491 282 LINE",
"233 282 LINE"
);
}
);
width = 889;
}
);
note = AE;
unicode = 00C6;
},
{
glyphname = Eth;
lastChange = "2018-01-16 07:49:44 +0000";
layers = (
{
layerId = "0B1DFD06-3317-40CA-B510-4969A0718C16";
paths = (
{
closed = 1;
nodes = (
"364 0 LINE SMOOTH",
"497 0 OFFCURVE",
"640 90 OFFCURVE",
"640 230 CURVE SMOOTH",
"640 472 LINE SMOOTH",
"640 618 OFFCURVE",
"492 700 OFFCURVE",
"364 700 CURVE SMOOTH",
"118 700 LINE SMOOTH",
"100 700 OFFCURVE",
"88 688 OFFCURVE",
"88 671 CURVE SMOOTH",
"88 376 LINE",
"50 376 LINE SMOOTH",
"18 376 OFFCURVE",
"0 358 OFFCURVE",
"0 326 CURVE",
"88 326 LINE",
"88 29 LINE SMOOTH",
"88 13 OFFCURVE",
"100 0 OFFCURVE",
"118 0 CURVE SMOOTH"
);
},
{
closed = 1;
nodes = (
"147 326 LINE",
"264 326 LINE SMOOTH",
"296 326 OFFCURVE",
"314 343 OFFCURVE",
"314 376 CURVE",
"147 376 LINE",
"147 647 LINE",
"364 647 LINE SMOOTH",
"483 647 OFFCURVE",
"582 567 OFFCURVE",
"582 472 CURVE SMOOTH",
"582 230 LINE SMOOTH",
"582 134 OFFCURVE",
"483 53 OFFCURVE",
"364 53 CURVE SMOOTH",
"147 53 LINE"
);
}
);
width = 713;
}
);
note = Eth;
unicode = 00D0;
},
{
glyphname = Dcroat;
lastChange = "2018-01-16 07:49:44 +0000";
layers = (
{
layerId = "0B1DFD06-3317-40CA-B510-4969A0718C16";
paths = (
{
closed = 1;
nodes = (
"364 0 LINE SMOOTH",
"497 0 OFFCURVE",
"640 90 OFFCURVE",
"640 230 CURVE SMOOTH",
"640 472 LINE SMOOTH",
"640 618 OFFCURVE",
"492 700 OFFCURVE",
"364 700 CURVE SMOOTH",
"118 700 LINE SMOOTH",
"100 700 OFFCURVE",
"88 688 OFFCURVE",
"88 671 CURVE SMOOTH",
"88 376 LINE",
"50 376 LINE SMOOTH",
"18 376 OFFCURVE",
"0 358 OFFCURVE",
"0 326 CURVE",
"88 326 LINE",
"88 29 LINE SMOOTH",
"88 13 OFFCURVE",
"100 0 OFFCURVE",
"118 0 CURVE SMOOTH"
);
},
{
closed = 1;
nodes = (
"147 326 LINE",
"264 326 LINE SMOOTH",
"296 326 OFFCURVE",
"314 343 OFFCURVE",
"314 376 CURVE",
"147 376 LINE",
"147 647 LINE",
"364 647 LINE SMOOTH",
"483 647 OFFCURVE",
"582 567 OFFCURVE",
"582 472 CURVE SMOOTH",
"582 230 LINE SMOOTH",
"582 134 OFFCURVE",
"483 53 OFFCURVE",
"364 53 CURVE SMOOTH",
"147 53 LINE"
);
}
);
width = 713;
}
);
note = Dcroat;
unicode = 0110;
},
{
glyphname = Eacute;
lastChange = "2017-12-18 07:59:54 +0000";
layers = (
{
background = {
paths = (
{
closed = 1;
nodes = (
"554 0 LINE",
"571 179 LINE",
"544 179 LINE",
"538 124 OFFCURVE",
"520 40 OFFCURVE",
"456 40 CURVE SMOOTH",
"201 40 LINE",
"201 659 LINE",
"441 659 LINE SMOOTH",
"516 659 OFFCURVE",
"525 567 OFFCURVE",
"528 527 CURVE",
"555 527 LINE",
"555 700 LINE",
"16 700 LINE",
"16 673 LINE",
"44 673 LINE SMOOTH",
"83 673 OFFCURVE",
"103 662 OFFCURVE",
"103 637 CURVE SMOOTH",
"103 62 LINE SMOOTH",
"103 37 OFFCURVE",
"83 26 OFFCURVE",
"44 26 CURVE SMOOTH",
"16 26 LINE",
"16 0 LINE"
);
},
{
closed = 1;
nodes = (
"455 251 LINE",
"455 485 LINE",
"431 485 LINE",
"427 436 OFFCURVE",
"424 388 OFFCURVE",
"379 388 CURVE SMOOTH",
"162 388 LINE",
"162 348 LINE",
"379 348 LINE SMOOTH",
"424 348 OFFCURVE",
"427 300 OFFCURVE",
"431 251 CURVE"
);
},
{
closed = 1;
nodes = (
"398 865 LINE SMOOTH",
"420 877 OFFCURVE",
"432 890 OFFCURVE",
"432 907 CURVE SMOOTH",
"432 922 OFFCURVE",
"420 937 OFFCURVE",
"398 937 CURVE SMOOTH",
"377 937 OFFCURVE",
"362 921 OFFCURVE",
"354 914 CURVE SMOOTH",
"239 807 LINE",
"256 782 LINE"
);
}
);
};
components = (
{
name = E;
},
{
name = acute;
transform = "{1, 0, 0, 1, 56, 230}";
}
);
layerId = "0B1DFD06-3317-40CA-B510-4969A0718C16";
width = 607;
}
);
note = Eacute;
unicode = 00C9;
},
{
glyphname = Ebreve;
lastChange = "2017-12-18 08:08:53 +0000";
layers = (
{
background = {
paths = (
{
closed = 1;
nodes = (
"554 0 LINE",
"571 179 LINE",
"544 179 LINE",
"538 124 OFFCURVE",
"520 40 OFFCURVE",
"456 40 CURVE SMOOTH",
"201 40 LINE",
"201 659 LINE",
"441 659 LINE SMOOTH",
"516 659 OFFCURVE",
"525 567 OFFCURVE",
"528 527 CURVE",
"555 527 LINE",
"555 700 LINE",
"16 700 LINE",
"16 673 LINE",
"44 673 LINE SMOOTH",
"83 673 OFFCURVE",
"103 662 OFFCURVE",
"103 637 CURVE SMOOTH",
"103 62 LINE SMOOTH",
"103 37 OFFCURVE",
"83 26 OFFCURVE",
"44 26 CURVE SMOOTH",
"16 26 LINE",
"16 0 LINE"
);
},
{
closed = 1;
nodes = (
"455 251 LINE",
"455 485 LINE",
"431 485 LINE",
"427 436 OFFCURVE",
"424 388 OFFCURVE",
"379 388 CURVE SMOOTH",
"162 388 LINE",
"162 348 LINE",
"379 348 LINE SMOOTH",
"424 348 OFFCURVE",
"427 300 OFFCURVE",
"431 251 CURVE"
);
},
{
closed = 1;
nodes = (
"432 776 OFFCURVE",
"474 832 OFFCURVE",
"478 907 CURVE",
"445 907 LINE",
"439 848 OFFCURVE",
"397 822 OFFCURVE",
"333 822 CURVE SMOOTH",
"269 822 OFFCURVE",
"226 848 OFFCURVE",
"219 907 CURVE",
"186 907 LINE",
"190 829 OFFCURVE",
"232 776 OFFCURVE",
"333 776 CURVE SMOOTH"
);
}
);
};
components = (
{
name = E;
},
{
name = breve;
transform = "{1, 0, 0, 1, 68, 230}";
}
);
layerId = "0B1DFD06-3317-40CA-B510-4969A0718C16";
width = 607;
}
);
note = Ebreve;
unicode = 0114;
},
{
glyphname = Ecaron;
lastChange = "2017-12-18 07:59:54 +0000";
layers = (
{
background = {
paths = (
{
closed = 1;
nodes = (
"554 0 LINE",
"571 179 LINE",
"544 179 LINE",
"538 124 OFFCURVE",
"520 40 OFFCURVE",
"456 40 CURVE SMOOTH",
"201 40 LINE",
"201 659 LINE",
"441 659 LINE SMOOTH",
"516 659 OFFCURVE",
"525 567 OFFCURVE",
"528 527 CURVE",
"555 527 LINE",
"555 700 LINE",
"16 700 LINE",
"16 673 LINE",
"44 673 LINE SMOOTH",
"83 673 OFFCURVE",
"103 662 OFFCURVE",
"103 637 CURVE SMOOTH",
"103 62 LINE SMOOTH",
"103 37 OFFCURVE",
"83 26 OFFCURVE",
"44 26 CURVE SMOOTH",
"16 26 LINE",
"16 0 LINE"
);
},
{
closed = 1;
nodes = (
"455 251 LINE",
"455 485 LINE",
"431 485 LINE",
"427 436 OFFCURVE",
"424 388 OFFCURVE",
"379 388 CURVE SMOOTH",
"162 388 LINE",
"162 348 LINE",
"379 348 LINE SMOOTH",
"424 348 OFFCURVE",
"427 300 OFFCURVE",
"431 251 CURVE"
);
},
{
closed = 1;
nodes = (
"357 782 LINE",
"481 911 LINE",
"462 932 LINE",
"354 847 LINE",
"346 840 OFFCURVE",
"337 836 OFFCURVE",
"331 836 CURVE SMOOTH",
"325 836 OFFCURVE",
"317 840 OFFCURVE",
"307 847 CURVE",
"199 932 LINE",
"180 911 LINE",
"304 782 LINE"
);
}
);
};
components = (
{
name = E;
},
{
name = caron;
transform = "{1, 0, 0, 1, 68, 230}";
}
);
layerId = "0B1DFD06-3317-40CA-B510-4969A0718C16";
width = 607;
}
);
note = Ecaron;
unicode = 011A;
},
{
glyphname = Ecircumflex;
lastChange = "2017-12-18 07:59:54 +0000";
layers = (
{
background = {
paths = (
{
closed = 1;
nodes = (
"554 0 LINE",
"571 179 LINE",
"544 179 LINE",
"538 124 OFFCURVE",
"520 40 OFFCURVE",
"456 40 CURVE SMOOTH",
"201 40 LINE",
"201 659 LINE",
"441 659 LINE SMOOTH",
"516 659 OFFCURVE",
"525 567 OFFCURVE",
"528 527 CURVE",
"555 527 LINE",
"555 700 LINE",
"16 700 LINE",
"16 673 LINE",
"44 673 LINE SMOOTH",
"83 673 OFFCURVE",
"103 662 OFFCURVE",
"103 637 CURVE SMOOTH",
"103 62 LINE SMOOTH",
"103 37 OFFCURVE",
"83 26 OFFCURVE",
"44 26 CURVE SMOOTH",
"16 26 LINE",
"16 0 LINE"
);
},
{
closed = 1;
nodes = (
"455 251 LINE",
"455 485 LINE",
"431 485 LINE",
"427 436 OFFCURVE",
"424 388 OFFCURVE",
"379 388 CURVE SMOOTH",
"162 388 LINE",
"162 348 LINE",
"379 348 LINE SMOOTH",
"424 348 OFFCURVE",
"427 300 OFFCURVE",
"431 251 CURVE"
);
},
{
closed = 1;
nodes = (
"304 868 LINE SMOOTH",
"312 874 OFFCURVE",
"322 879 OFFCURVE",
"328 879 CURVE SMOOTH",
"334 879 OFFCURVE",
"342 874 OFFCURVE",
"351 868 CURVE",
"459 782 LINE",
"478 803 LINE",
"354 932 LINE",
"301 932 LINE",
"177 803 LINE",
"196 782 LINE"
);
}
);
};
components = (
{
name = E;
},
{
name = circumflex;
transform = "{1, 0, 0, 1, 68, 230}";
}
);
layerId = "0B1DFD06-3317-40CA-B510-4969A0718C16";
width = 607;
}
);
note = Ecircumflex;
unicode = 00CA;
},
{
glyphname = Ecircumflexacute;
lastChange = "2017-12-18 08:14:04 +0000";
layers = (
{
background = {
paths = (
{
closed = 1;
nodes = (
"554 0 LINE",
"571 179 LINE",
"544 179 LINE",
"538 124 OFFCURVE",
"520 40 OFFCURVE",
"456 40 CURVE SMOOTH",
"201 40 LINE",
"201 659 LINE",
"441 659 LINE SMOOTH",
"516 659 OFFCURVE",
"525 567 OFFCURVE",
"528 527 CURVE",
"555 527 LINE",
"555 700 LINE",
"16 700 LINE",
"16 673 LINE",
"44 673 LINE SMOOTH",
"83 673 OFFCURVE",
"103 662 OFFCURVE",
"103 637 CURVE SMOOTH",
"103 62 LINE SMOOTH",
"103 37 OFFCURVE",
"83 26 OFFCURVE",
"44 26 CURVE SMOOTH",
"16 26 LINE",
"16 0 LINE"
);
},
{
closed = 1;
nodes = (
"455 251 LINE",
"455 485 LINE",
"431 485 LINE",
"427 436 OFFCURVE",
"424 388 OFFCURVE",
"379 388 CURVE SMOOTH",
"162 388 LINE",
"162 348 LINE",
"379 348 LINE SMOOTH",
"424 348 OFFCURVE",
"427 300 OFFCURVE",
"431 251 CURVE"
);
},
{
closed = 1;
nodes = (
"290 862 LINE SMOOTH",
"300 870 OFFCURVE",
"310 878 OFFCURVE",
"318 878 CURVE SMOOTH",
"324 878 OFFCURVE",
"332 873 OFFCURVE",
"341 867 CURVE",
"447 781 LINE",
"466 803 LINE",
"344 932 LINE",
"293 932 LINE",
"171 803 LINE",
"189 781 LINE"
);
},
{
closed = 1;
nodes = (
"555 960 LINE SMOOTH",
"578 972 OFFCURVE",
"591 988 OFFCURVE",
"591 1003 CURVE SMOOTH",
"591 1017 OFFCURVE",
"580 1034 OFFCURVE",
"557 1034 CURVE SMOOTH",
"538 1034 OFFCURVE",
"521 1018 OFFCURVE",
"511 1008 CURVE SMOOTH",
"415 915 LINE",
"433 893 LINE"
);
}
);
};
components = (
{
name = E;
},
{
name = circumflexacute;
transform = "{1, 0, 0, 1, 564, 230}";
}
);
layerId = "0B1DFD06-3317-40CA-B510-4969A0718C16";
width = 607;
}
);
note = Ecircumflexacute;
unicode = 1EBE;
},
{
glyphname = Ecircumflexdotbelow;
lastChange = "2017-12-18 08:06:02 +0000";
layers = (
{
background = {
paths = (
{
closed = 1;
nodes = (
"554 0 LINE",
"571 179 LINE",
"544 179 LINE",
"538 124 OFFCURVE",
"520 40 OFFCURVE",
"456 40 CURVE SMOOTH",
"201 40 LINE",
"201 659 LINE",
"441 659 LINE SMOOTH",
"516 659 OFFCURVE",
"525 567 OFFCURVE",
"528 527 CURVE",
"555 527 LINE",
"555 700 LINE",
"16 700 LINE",
"16 673 LINE",
"44 673 LINE SMOOTH",
"83 673 OFFCURVE",
"103 662 OFFCURVE",
"103 637 CURVE SMOOTH",
"103 62 LINE SMOOTH",
"103 37 OFFCURVE",
"83 26 OFFCURVE",
"44 26 CURVE SMOOTH",
"16 26 LINE",
"16 0 LINE"
);
},
{
closed = 1;
nodes = (
"350 -159 OFFCURVE",
"368 -140 OFFCURVE",
"368 -112 CURVE SMOOTH",
"368 -84 OFFCURVE",
"350 -64 OFFCURVE",
"322 -64 CURVE SMOOTH",
"294 -64 OFFCURVE",
"275 -84 OFFCURVE",
"275 -112 CURVE SMOOTH",
"275 -140 OFFCURVE",
"294 -159 OFFCURVE",
"322 -159 CURVE SMOOTH"
);
},
{
closed = 1;
nodes = (
"455 251 LINE",
"455 485 LINE",
"431 485 LINE",
"427 436 OFFCURVE",
"424 388 OFFCURVE",
"379 388 CURVE SMOOTH",
"162 388 LINE",
"162 348 LINE",
"379 348 LINE SMOOTH",
"424 348 OFFCURVE",
"427 300 OFFCURVE",
"431 251 CURVE"
);
},
{
closed = 1;
nodes = (
"294 868 LINE SMOOTH",
"302 874 OFFCURVE",
"312 879 OFFCURVE",
"318 879 CURVE SMOOTH",
"324 879 OFFCURVE",
"332 874 OFFCURVE",
"341 868 CURVE",
"449 782 LINE",
"468 803 LINE",
"344 932 LINE",
"291 932 LINE",
"167 803 LINE",
"186 782 LINE"
);
}
);
};
components = (
{
name = E;
},
{
name = dotbelowcomb;
transform = "{1, 0, 0, 1, 565, 0}";
},
{
name = circumflex;
transform = "{1, 0, 0, 1, 68, 230}";
}
);
layerId = "0B1DFD06-3317-40CA-B510-4969A0718C16";
width = 607;
}
);
note = Ecircumflexdotbelow;
unicode = 1EC6;
},
{
glyphname = Ecircumflexgrave;
lastChange = "2017-12-18 08:19:22 +0000";
layers = (
{
background = {
paths = (
{
closed = 1;
nodes = (
"554 0 LINE",
"571 179 LINE",
"544 179 LINE",
"538 124 OFFCURVE",
"520 40 OFFCURVE",
"456 40 CURVE SMOOTH",
"201 40 LINE",
"201 659 LINE",
"441 659 LINE SMOOTH",
"516 659 OFFCURVE",
"525 567 OFFCURVE",
"528 527 CURVE",
"555 527 LINE",
"555 700 LINE",
"16 700 LINE",
"16 673 LINE",
"44 673 LINE SMOOTH",
"83 673 OFFCURVE",
"103 662 OFFCURVE",
"103 637 CURVE SMOOTH",
"103 62 LINE SMOOTH",
"103 37 OFFCURVE",
"83 26 OFFCURVE",
"44 26 CURVE SMOOTH",
"16 26 LINE",
"16 0 LINE"
);
},
{
closed = 1;
nodes = (
"455 251 LINE",
"455 485 LINE",
"431 485 LINE",
"427 436 OFFCURVE",
"424 388 OFFCURVE",
"379 388 CURVE SMOOTH",
"162 388 LINE",
"162 348 LINE",
"379 348 LINE SMOOTH",
"424 348 OFFCURVE",
"427 300 OFFCURVE",
"431 251 CURVE"
);
},
{
closed = 1;
nodes = (
"227 915 LINE",
"132 1008 LINE SMOOTH",
"122 1018 OFFCURVE",
"105 1034 OFFCURVE",
"85 1034 CURVE SMOOTH",
"63 1034 OFFCURVE",
"52 1017 OFFCURVE",
"52 1003 CURVE SMOOTH",
"52 988 OFFCURVE",
"65 972 OFFCURVE",
"88 960 CURVE SMOOTH",
"210 893 LINE"
);
},
{
closed = 1;
nodes = (
"290 862 LINE SMOOTH",
"300 870 OFFCURVE",
"310 878 OFFCURVE",
"318 878 CURVE SMOOTH",
"324 878 OFFCURVE",
"332 873 OFFCURVE",
"341 867 CURVE",
"447 781 LINE",
"466 803 LINE",
"344 932 LINE",
"293 932 LINE",
"171 803 LINE",
"189 781 LINE"
);
}
);
};
components = (
{
name = E;
},
{
name = circumflexgrave;
transform = "{1, 0, 0, 1, 564, 230}";
}
);
layerId = "0B1DFD06-3317-40CA-B510-4969A0718C16";
width = 607;
}
);
note = Ecircumflexgrave;
unicode = 1EC0;
},
{
glyphname = Ecircumflexhookabove;
lastChange = "2017-12-18 08:19:34 +0000";
layers = (
{
background = {
paths = (
{
closed = 1;
nodes = (
"554 0 LINE",
"571 179 LINE",
"544 179 LINE",
"538 124 OFFCURVE",
"520 40 OFFCURVE",
"456 40 CURVE SMOOTH",
"201 40 LINE",
"201 659 LINE",
"441 659 LINE SMOOTH",
"516 659 OFFCURVE",
"525 567 OFFCURVE",
"528 527 CURVE",
"555 527 LINE",
"555 700 LINE",
"16 700 LINE",
"16 673 LINE",
"44 673 LINE SMOOTH",
"83 673 OFFCURVE",
"103 662 OFFCURVE",
"103 637 CURVE SMOOTH",
"103 62 LINE SMOOTH",
"103 37 OFFCURVE",
"83 26 OFFCURVE",
"44 26 CURVE SMOOTH",
"16 26 LINE",
"16 0 LINE"
);
},
{
closed = 1;
nodes = (
"455 251 LINE",
"455 485 LINE",
"431 485 LINE",
"427 436 OFFCURVE",
"424 388 OFFCURVE",
"379 388 CURVE SMOOTH",
"162 388 LINE",
"162 348 LINE",
"379 348 LINE SMOOTH",
"424 348 OFFCURVE",
"427 300 OFFCURVE",
"431 251 CURVE"
);
},
{
closed = 1;
nodes = (
"286 858 LINE",
"297 868 OFFCURVE",
"309 878 OFFCURVE",
"318 878 CURVE SMOOTH",
"324 878 OFFCURVE",
"332 873 OFFCURVE",
"341 867 CURVE",
"447 781 LINE",
"466 803 LINE",
"344 932 LINE",
"293 932 LINE",
"171 803 LINE",
"189 781 LINE"
);
},
{
closed = 1;
nodes = (
"493 898 LINE",
"474 905 OFFCURVE",
"464 912 OFFCURVE",
"464 926 CURVE SMOOTH",
"464 954 OFFCURVE",
"544 965 OFFCURVE",
"544 1010 CURVE SMOOTH",
"544 1047 OFFCURVE",
"502 1063 OFFCURVE",
"460 1063 CURVE SMOOTH",
"429 1063 OFFCURVE",
"384 1053 OFFCURVE",
"384 1022 CURVE SMOOTH",
"384 1010 OFFCURVE",
"395 1001 OFFCURVE",
"405 1001 CURVE SMOOTH",
"434 1001 OFFCURVE",
"421 1040 OFFCURVE",
"464 1040 CURVE SMOOTH",
"483 1040 OFFCURVE",
"494 1028 OFFCURVE",
"494 1013 CURVE SMOOTH",
"494 973 OFFCURVE",
"421 965 OFFCURVE",
"421 925 CURVE SMOOTH",
"421 901 OFFCURVE",
"437 880 OFFCURVE",
"484 880 CURVE"
);
}
);
};
components = (
{
name = E;
},
{
name = circumflexhookabove;
transform = "{1, 0, 0, 1, 564, 230}";
}
);
layerId = "0B1DFD06-3317-40CA-B510-4969A0718C16";
width = 607;
}
);
note = Ecircumflexhookabove;
unicode = 1EC2;
},
{
glyphname = Ecircumflextilde;
lastChange = "2017-12-18 08:19:45 +0000";
layers = (
{
background = {
paths = (
{
closed = 1;
nodes = (
"554 0 LINE",
"571 179 LINE",
"544 179 LINE",
"538 124 OFFCURVE",
"520 40 OFFCURVE",
"456 40 CURVE SMOOTH",
"201 40 LINE",
"201 659 LINE",
"441 659 LINE SMOOTH",
"516 659 OFFCURVE",
"525 567 OFFCURVE",
"528 527 CURVE",
"555 527 LINE",
"555 700 LINE",
"16 700 LINE",
"16 673 LINE",
"44 673 LINE SMOOTH",
"83 673 OFFCURVE",
"103 662 OFFCURVE",
"103 637 CURVE SMOOTH",
"103 62 LINE SMOOTH",
"103 37 OFFCURVE",
"83 26 OFFCURVE",
"44 26 CURVE SMOOTH",
"16 26 LINE",
"16 0 LINE"
);
},
{
closed = 1;
nodes = (
"455 251 LINE",
"455 485 LINE",
"431 485 LINE",
"427 436 OFFCURVE",
"424 388 OFFCURVE",
"379 388 CURVE SMOOTH",
"162 388 LINE",
"162 348 LINE",
"379 348 LINE SMOOTH",
"424 348 OFFCURVE",
"427 300 OFFCURVE",
"431 251 CURVE"
);
},
{
closed = 1;
nodes = (
"290 862 LINE SMOOTH",
"300 870 OFFCURVE",
"310 878 OFFCURVE",
"318 878 CURVE SMOOTH",
"324 878 OFFCURVE",
"332 873 OFFCURVE",
"341 867 CURVE",
"447 781 LINE",
"466 803 LINE",
"344 932 LINE",
"293 932 LINE",
"171 803 LINE",
"189 781 LINE"
);
},
{
closed = 1;
nodes = (
"193 997 OFFCURVE",
"211 1018 OFFCURVE",
"242 1018 CURVE SMOOTH",
"291 1018 OFFCURVE",
"338 964 OFFCURVE",
"387 964 CURVE SMOOTH",
"440 964 OFFCURVE",
"469 1012 OFFCURVE",
"481 1063 CURVE",
"460 1075 LINE",
"447 1035 OFFCURVE",
"431 1012 OFFCURVE",
"398 1012 CURVE SMOOTH",
"351 1012 OFFCURVE",
"302 1065 OFFCURVE",
"253 1065 CURVE SMOOTH",
"202 1065 OFFCURVE",
"170 1021 OFFCURVE",
"160 970 CURVE",
"180 958 LINE"
);
}
);
};
components = (
{
name = E;
},
{
name = circumflextilde;
transform = "{1, 0, 0, 1, 564, 230}";
}
);
layerId = "0B1DFD06-3317-40CA-B510-4969A0718C16";
width = 607;
}
);
note = Ecircumflextilde;
unicode = 1EC4;
},
{
glyphname = Edieresis;
lastChange = "2017-12-18 07:59:54 +0000";
layers = (
{
background = {
paths = (
{
closed = 1;
nodes = (
"554 0 LINE",
"571 179 LINE",
"544 179 LINE",
"538 124 OFFCURVE",
"520 40 OFFCURVE",
"456 40 CURVE SMOOTH",
"201 40 LINE",
"201 659 LINE",
"441 659 LINE SMOOTH",
"516 659 OFFCURVE",
"525 567 OFFCURVE",
"528 527 CURVE",
"555 527 LINE",
"555 700 LINE",
"16 700 LINE",
"16 673 LINE",
"44 673 LINE SMOOTH",
"83 673 OFFCURVE",
"103 662 OFFCURVE",
"103 637 CURVE SMOOTH",
"103 62 LINE SMOOTH",
"103 37 OFFCURVE",
"83 26 OFFCURVE",
"44 26 CURVE SMOOTH",
"16 26 LINE",
"16 0 LINE"
);
},
{
closed = 1;
nodes = (
"455 251 LINE",
"455 485 LINE",
"431 485 LINE",
"427 436 OFFCURVE",
"424 388 OFFCURVE",
"379 388 CURVE SMOOTH",
"162 388 LINE",
"162 348 LINE",
"379 348 LINE SMOOTH",
"424 348 OFFCURVE",
"427 300 OFFCURVE",
"431 251 CURVE"
);
},
{
closed = 1;
nodes = (
"254 781 OFFCURVE",
"272 800 OFFCURVE",
"272 827 CURVE SMOOTH",
"272 855 OFFCURVE",
"254 875 OFFCURVE",
"225 875 CURVE SMOOTH",
"197 875 OFFCURVE",
"179 855 OFFCURVE",
"179 827 CURVE SMOOTH",
"179 800 OFFCURVE",
"197 781 OFFCURVE",
"225 781 CURVE SMOOTH"
);
},
{
closed = 1;
nodes = (
"470 781 OFFCURVE",
"488 800 OFFCURVE",
"488 827 CURVE SMOOTH",
"488 855 OFFCURVE",
"470 875 OFFCURVE",
"441 875 CURVE SMOOTH",
"412 875 OFFCURVE",
"394 855 OFFCURVE",
"394 827 CURVE SMOOTH",
"394 800 OFFCURVE",
"412 781 OFFCURVE",
"441 781 CURVE SMOOTH"
);
}
);
};
components = (
{
name = E;
},
{
name = dieresis;
transform = "{1, 0, 0, 1, 68, 230}";
}
);
layerId = "0B1DFD06-3317-40CA-B510-4969A0718C16";
width = 607;
}
);
note = Edieresis;
unicode = 00CB;
},
{
glyphname = Edotaccent;
lastChange = "2017-12-18 07:59:54 +0000";
layers = (
{
background = {
paths = (
{
closed = 1;
nodes = (
"554 0 LINE",
"571 179 LINE",
"544 179 LINE",
"538 124 OFFCURVE",
"520 40 OFFCURVE",
"456 40 CURVE SMOOTH",
"201 40 LINE",
"201 659 LINE",
"441 659 LINE SMOOTH",
"516 659 OFFCURVE",
"525 567 OFFCURVE",
"528 527 CURVE",
"555 527 LINE",
"555 700 LINE",
"16 700 LINE",
"16 673 LINE",
"44 673 LINE SMOOTH",
"83 673 OFFCURVE",
"103 662 OFFCURVE",
"103 637 CURVE SMOOTH",
"103 62 LINE SMOOTH",
"103 37 OFFCURVE",
"83 26 OFFCURVE",
"44 26 CURVE SMOOTH",
"16 26 LINE",
"16 0 LINE"
);
},
{
closed = 1;
nodes = (
"455 251 LINE",
"455 485 LINE",
"431 485 LINE",
"427 436 OFFCURVE",
"424 388 OFFCURVE",
"379 388 CURVE SMOOTH",
"162 388 LINE",
"162 348 LINE",
"379 348 LINE SMOOTH",
"424 348 OFFCURVE",
"427 300 OFFCURVE",
"431 251 CURVE"
);
},
{
closed = 1;
nodes = (
"362 765 OFFCURVE",
"380 784 OFFCURVE",
"380 811 CURVE SMOOTH",
"380 839 OFFCURVE",
"362 858 OFFCURVE",
"334 858 CURVE SMOOTH",
"305 858 OFFCURVE",
"287 839 OFFCURVE",
"287 811 CURVE SMOOTH",
"287 784 OFFCURVE",
"305 765 OFFCURVE",
"334 765 CURVE SMOOTH"
);
}
);
};
components = (
{
name = E;
},
{
name = dotaccent;
transform = "{1, 0, 0, 1, 68, 230}";
}
);
layerId = "0B1DFD06-3317-40CA-B510-4969A0718C16";
width = 607;
}
);
note = Edotaccent;
unicode = 0116;
},
{
glyphname = Edotbelow;
lastChange = "2017-12-18 08:06:02 +0000";
layers = (
{
background = {
paths = (
{
closed = 1;
nodes = (
"554 0 LINE",
"571 179 LINE",
"544 179 LINE",
"538 124 OFFCURVE",
"520 40 OFFCURVE",
"456 40 CURVE SMOOTH",
"201 40 LINE",
"201 659 LINE",
"441 659 LINE SMOOTH",
"516 659 OFFCURVE",
"525 567 OFFCURVE",
"528 527 CURVE",
"555 527 LINE",
"555 700 LINE",
"16 700 LINE",
"16 673 LINE",
"44 673 LINE SMOOTH",
"83 673 OFFCURVE",
"103 662 OFFCURVE",
"103 637 CURVE SMOOTH",
"103 62 LINE SMOOTH",
"103 37 OFFCURVE",
"83 26 OFFCURVE",
"44 26 CURVE SMOOTH",
"16 26 LINE",
"16 0 LINE"
);
},
{
closed = 1;
nodes = (
"343 -159 OFFCURVE",
"361 -140 OFFCURVE",
"361 -112 CURVE SMOOTH",
"361 -84 OFFCURVE",
"343 -64 OFFCURVE",
"315 -64 CURVE SMOOTH",
"287 -64 OFFCURVE",
"268 -84 OFFCURVE",
"268 -112 CURVE SMOOTH",
"268 -140 OFFCURVE",
"287 -159 OFFCURVE",
"315 -159 CURVE SMOOTH"
);
},
{
closed = 1;
nodes = (
"455 251 LINE",
"455 485 LINE",
"431 485 LINE",
"427 436 OFFCURVE",
"424 388 OFFCURVE",
"379 388 CURVE SMOOTH",
"162 388 LINE",
"162 348 LINE",
"379 348 LINE SMOOTH",
"424 348 OFFCURVE",
"427 300 OFFCURVE",
"431 251 CURVE"
);
}
);
};
components = (
{
name = E;
},
{
name = dotbelowcomb;
transform = "{1, 0, 0, 1, 565, 0}";
}
);
layerId = "0B1DFD06-3317-40CA-B510-4969A0718C16";
width = 607;
}
);
note = Edotbelow;
unicode = 1EB8;
},
{
glyphname = Egrave;
lastChange = "2017-12-18 07:59:54 +0000";
layers = (
{
background = {
paths = (
{
closed = 1;
nodes = (
"554 0 LINE",
"571 179 LINE",
"544 179 LINE",
"538 124 OFFCURVE",
"520 40 OFFCURVE",
"456 40 CURVE SMOOTH",
"201 40 LINE",
"201 659 LINE",
"441 659 LINE SMOOTH",
"516 659 OFFCURVE",
"525 567 OFFCURVE",
"528 527 CURVE",
"555 527 LINE",
"555 700 LINE",
"16 700 LINE",
"16 673 LINE",
"44 673 LINE SMOOTH",
"83 673 OFFCURVE",
"103 662 OFFCURVE",
"103 637 CURVE SMOOTH",
"103 62 LINE SMOOTH",
"103 37 OFFCURVE",
"83 26 OFFCURVE",
"44 26 CURVE SMOOTH",
"16 26 LINE",
"16 0 LINE"
);
},
{
closed = 1;
nodes = (
"455 251 LINE",
"455 485 LINE",
"431 485 LINE",
"427 436 OFFCURVE",
"424 388 OFFCURVE",
"379 388 CURVE SMOOTH",
"162 388 LINE",
"162 348 LINE",
"379 348 LINE SMOOTH",
"424 348 OFFCURVE",
"427 300 OFFCURVE",
"431 251 CURVE"
);
},
{
closed = 1;
nodes = (
"425 807 LINE",
"310 913 LINE",
"301 922 OFFCURVE",
"285 937 OFFCURVE",
"265 937 CURVE SMOOTH",
"245 937 OFFCURVE",
"233 924 OFFCURVE",
"233 908 CURVE SMOOTH",
"233 890 OFFCURVE",
"245 876 OFFCURVE",
"264 865 CURVE SMOOTH",
"407 782 LINE"
);
}
);
};
components = (
{
name = E;
},
{
name = grave;
transform = "{1, 0, 0, 1, 68, 230}";
}
);
layerId = "0B1DFD06-3317-40CA-B510-4969A0718C16";
width = 607;
}
);
note = Egrave;
unicode = 00C8;
},
{
glyphname = Ehookabove;
lastChange = "2017-12-18 07:59:54 +0000";
layers = (
{
background = {
paths = (
{
closed = 1;
nodes = (
"554 0 LINE",
"571 179 LINE",
"544 179 LINE",
"538 124 OFFCURVE",
"520 40 OFFCURVE",
"456 40 CURVE SMOOTH",
"201 40 LINE",
"201 659 LINE",
"441 659 LINE SMOOTH",
"516 659 OFFCURVE",
"525 567 OFFCURVE",
"528 527 CURVE",
"555 527 LINE",
"555 700 LINE",
"16 700 LINE",
"16 673 LINE",
"44 673 LINE SMOOTH",
"83 673 OFFCURVE",
"103 662 OFFCURVE",
"103 637 CURVE SMOOTH",
"103 62 LINE SMOOTH",
"103 37 OFFCURVE",
"83 26 OFFCURVE",
"44 26 CURVE SMOOTH",
"16 26 LINE",
"16 0 LINE"
);
},
{
closed = 1;
nodes = (
"455 251 LINE",
"455 485 LINE",
"431 485 LINE",
"427 436 OFFCURVE",
"424 388 OFFCURVE",
"379 388 CURVE SMOOTH",
"162 388 LINE",
"162 348 LINE",
"379 348 LINE SMOOTH",
"424 348 OFFCURVE",
"427 300 OFFCURVE",
"431 251 CURVE"
);
},
{
closed = 1;
nodes = (
"367 798 LINE",
"348 805 OFFCURVE",
"336 811 OFFCURVE",
"336 828 CURVE SMOOTH",
"336 861 OFFCURVE",
"425 876 OFFCURVE",
"425 927 CURVE SMOOTH",
"425 969 OFFCURVE",
"389 991 OFFCURVE",
"336 991 CURVE SMOOTH",
"289 991 OFFCURVE",
"248 974 OFFCURVE",
"248 940 CURVE SMOOTH",
"248 923 OFFCURVE",
"256 915 OFFCURVE",
"271 915 CURVE SMOOTH",
"294 915 OFFCURVE",
"296 934 OFFCURVE",
"299 942 CURVE SMOOTH",
"304 956 OFFCURVE",
"321 962 OFFCURVE",
"337 962 CURVE SMOOTH",
"358 962 OFFCURVE",
"371 947 OFFCURVE",
"371 930 CURVE SMOOTH",
"371 885 OFFCURVE",
"289 874 OFFCURVE",
"289 828 CURVE SMOOTH",
"289 801 OFFCURVE",
"307 778 OFFCURVE",
"358 778 CURVE"
);
}
);
};
components = (
{
name = E;
},
{
name = hookabovecomb;
transform = "{1, 0, 0, 1, 565, 230}";
}
);
layerId = "0B1DFD06-3317-40CA-B510-4969A0718C16";
width = 607;
}
);
note = Ehookabove;
unicode = 1EBA;
},
{
glyphname = Emacron;
lastChange = "2017-12-18 07:59:54 +0000";
layers = (
{
background = {
paths = (
{
closed = 1;
nodes = (
"554 0 LINE",
"571 179 LINE",
"544 179 LINE",
"538 124 OFFCURVE",
"520 40 OFFCURVE",
"456 40 CURVE SMOOTH",
"201 40 LINE",
"201 659 LINE",
"441 659 LINE SMOOTH",
"516 659 OFFCURVE",
"525 567 OFFCURVE",
"528 527 CURVE",
"555 527 LINE",
"555 700 LINE",
"16 700 LINE",
"16 673 LINE",
"44 673 LINE SMOOTH",
"83 673 OFFCURVE",
"103 662 OFFCURVE",
"103 637 CURVE SMOOTH",
"103 62 LINE SMOOTH",
"103 37 OFFCURVE",
"83 26 OFFCURVE",
"44 26 CURVE SMOOTH",
"16 26 LINE",
"16 0 LINE"
);
},
{
closed = 1;
nodes = (
"455 251 LINE",
"455 485 LINE",
"431 485 LINE",
"427 436 OFFCURVE",
"424 388 OFFCURVE",
"379 388 CURVE SMOOTH",
"162 388 LINE",
"162 348 LINE",
"379 348 LINE SMOOTH",
"424 348 OFFCURVE",
"427 300 OFFCURVE",
"431 251 CURVE"
);
},
{
closed = 1;
nodes = (
"495 782 LINE",
"495 824 LINE",
"162 824 LINE",
"162 782 LINE"
);
}
);
};
components = (
{
name = E;
},
{
name = macron;
transform = "{1, 0, 0, 1, 68, 230}";
}
);
layerId = "0B1DFD06-3317-40CA-B510-4969A0718C16";
width = 607;
}
);
note = Emacron;
unicode = 0112;
},
{
glyphname = Eogonek;
lastChange = "2017-12-18 07:59:54 +0000";
layers = (
{
background = {
paths = (
{
closed = 1;
nodes = (
"554 0 LINE",
"571 179 LINE",
"544 179 LINE",
"538 124 OFFCURVE",
"520 40 OFFCURVE",
"456 40 CURVE SMOOTH",
"201 40 LINE",
"201 659 LINE",
"441 659 LINE SMOOTH",
"516 659 OFFCURVE",
"525 567 OFFCURVE",
"528 527 CURVE",
"555 527 LINE",
"555 700 LINE",
"16 700 LINE",
"16 673 LINE",
"44 673 LINE SMOOTH",
"83 673 OFFCURVE",
"103 662 OFFCURVE",
"103 637 CURVE SMOOTH",
"103 62 LINE SMOOTH",
"103 37 OFFCURVE",
"83 26 OFFCURVE",
"44 26 CURVE SMOOTH",
"16 26 LINE",
"16 0 LINE"
);
},
{
closed = 1;
nodes = (
"496 -196 OFFCURVE",
"524 -189 OFFCURVE",
"549 -172 CURVE",
"543 -152 LINE",
"527 -158 OFFCURVE",
"510 -162 OFFCURVE",
"497 -162 CURVE SMOOTH",
"464 -162 OFFCURVE",
"437 -146 OFFCURVE",
"437 -106 CURVE SMOOTH",
"437 -66 OFFCURVE",
"464 -26 OFFCURVE",
"510 4 CURVE",
"469 4 LINE",
"416 -22 OFFCURVE",
"376 -64 OFFCURVE",
"376 -114 CURVE SMOOTH",
"376 -147 OFFCURVE",
"395 -196 OFFCURVE",
"470 -196 CURVE SMOOTH"
);
},
{
closed = 1;
nodes = (
"455 251 LINE",
"455 485 LINE",
"431 485 LINE",
"427 436 OFFCURVE",
"424 388 OFFCURVE",
"379 388 CURVE SMOOTH",
"162 388 LINE",
"162 348 LINE",
"379 348 LINE SMOOTH",
"424 348 OFFCURVE",
"427 300 OFFCURVE",
"431 251 CURVE"
);
}
);
};
components = (
{
name = E;
},
{
name = ogonek;
transform = "{1, 0, 0, 1, 256, 0}";
}
);
layerId = "0B1DFD06-3317-40CA-B510-4969A0718C16";
width = 607;
}
);
note = Eogonek;
unicode = 0118;
},
{
glyphname = Etilde;
lastChange = "2017-12-18 07:59:54 +0000";
layers = (
{
background = {
paths = (
{
closed = 1;
nodes = (
"554 0 LINE",
"571 179 LINE",
"544 179 LINE",
"538 124 OFFCURVE",
"520 40 OFFCURVE",
"456 40 CURVE SMOOTH",
"201 40 LINE",
"201 659 LINE",
"441 659 LINE SMOOTH",
"516 659 OFFCURVE",
"525 567 OFFCURVE",
"528 527 CURVE",
"555 527 LINE",
"555 700 LINE",
"16 700 LINE",
"16 673 LINE",
"44 673 LINE SMOOTH",
"83 673 OFFCURVE",
"103 662 OFFCURVE",
"103 637 CURVE SMOOTH",
"103 62 LINE SMOOTH",
"103 37 OFFCURVE",
"83 26 OFFCURVE",
"44 26 CURVE SMOOTH",
"16 26 LINE",
"16 0 LINE"
);
},
{
closed = 1;
nodes = (
"455 251 LINE",
"455 485 LINE",
"431 485 LINE",
"427 436 OFFCURVE",
"424 388 OFFCURVE",
"379 388 CURVE SMOOTH",
"162 388 LINE",
"162 348 LINE",
"379 348 LINE SMOOTH",
"424 348 OFFCURVE",
"427 300 OFFCURVE",
"431 251 CURVE"
);
},
{
closed = 1;
nodes = (
"190 817 OFFCURVE",
"208 838 OFFCURVE",
"241 838 CURVE SMOOTH",
"292 838 OFFCURVE",
"341 784 OFFCURVE",
"392 784 CURVE SMOOTH",
"450 784 OFFCURVE",
"480 832 OFFCURVE",
"492 884 CURVE",
"471 895 LINE",
"455 855 OFFCURVE",
"439 833 OFFCURVE",
"405 833 CURVE SMOOTH",
"356 833 OFFCURVE",
"304 886 OFFCURVE",
"253 886 CURVE SMOOTH",
"199 886 OFFCURVE",
"166 842 OFFCURVE",
"154 790 CURVE",
"176 779 LINE"
);
}
);
};
components = (
{
name = E;
},
{
name = tilde;
transform = "{1, 0, 0, 1, 68, 230}";
}
);
layerId = "0B1DFD06-3317-40CA-B510-4969A0718C16";
width = 607;
}
);
note = Etilde;
unicode = 1EBC;
},
{
glyphname = Hbar;
lastChange = "2017-12-18 08:22:19 +0000";
layers = (
{
components = (
{
name = H;
}
);
layerId = "0B1DFD06-3317-40CA-B510-4969A0718C16";
paths = (
{
closed = 1;
nodes = (
"719 504 LINE",
"719 544 LINE",
"43 544 LINE",
"43 504 LINE"
);
}
);
width = 773;
}
);
note = Hbar;
unicode = 0126;
},
{
color = 0;
glyphname = IJ;
lastChange = "2017-12-19 03:59:12 +0000";
layers = (
{
layerId = "0B1DFD06-3317-40CA-B510-4969A0718C16";
paths = (
{
closed = 1;
nodes = (
"472 -114 OFFCURVE",
"561 -45 OFFCURVE",
"561 89 CURVE SMOOTH",
"561 637 LINE SMOOTH",
"561 662 OFFCURVE",
"581 673 OFFCURVE",
"619 673 CURVE SMOOTH",
"649 673 LINE",
"649 700 LINE",
"376 700 LINE",
"376 673 LINE",
"405 673 LINE SMOOTH",
"444 673 OFFCURVE",
"463 662 OFFCURVE",
"463 637 CURVE SMOOTH",
"463 90 LINE SMOOTH",
"463 -8 OFFCURVE",
"424 -75 OFFCURVE",
"339 -93 CURVE",
"343 -114 LINE"
);
},
{
closed = 1;
nodes = (
"298 0 LINE",
"298 26 LINE",
"270 26 LINE SMOOTH",
"231 26 OFFCURVE",
"211 37 OFFCURVE",
"211 62 CURVE SMOOTH",
"211 637 LINE SMOOTH",
"211 662 OFFCURVE",
"231 673 OFFCURVE",
"270 673 CURVE SMOOTH",
"298 673 LINE",
"298 700 LINE",
"26 700 LINE",
"26 673 LINE",
"55 673 LINE SMOOTH",
"93 673 OFFCURVE",
"113 662 OFFCURVE",
"113 637 CURVE SMOOTH",
"113 62 LINE SMOOTH",
"113 37 OFFCURVE",
"93 26 OFFCURVE",
"55 26 CURVE SMOOTH",
"26 26 LINE",
"26 0 LINE"
);
}
);
width = 675;
}
);
note = IJ;
rightKerningGroup = J;
unicode = 0132;
},
{
glyphname = Lslash;
lastChange = "2018-01-16 07:49:44 +0000";
layers = (
{
layerId = "0B1DFD06-3317-40CA-B510-4969A0718C16";
paths = (
{
closed = 1;
nodes = (
"581 0 LINE",
"581 35 OFFCURVE",
"563 53 OFFCURVE",
"528 53 CURVE SMOOTH",
"147 53 LINE",
"147 333 LINE",
"301 435 LINE SMOOTH",
"327 453 OFFCURVE",
"332 475 OFFCURVE",
"314 503 CURVE",
"147 394 LINE",
"147 709 LINE",
"109 709 OFFCURVE",
"88 688 OFFCURVE",
"88 650 CURVE SMOOTH",
"88 354 LINE",
"25 312 LINE SMOOTH",
"-1 295 OFFCURVE",
"-7 273 OFFCURVE",
"10 245 CURVE",
"88 295 LINE",
"88 29 LINE SMOOTH",
"88 13 OFFCURVE",
"100 0 OFFCURVE",
"118 0 CURVE SMOOTH"
);
}
);
width = 610;
}
);
note = Lslash;
unicode = 0141;
},
{
glyphname = Nacute;
lastChange = "2017-12-18 08:29:18 +0000";
layers = (
{
background = {
paths = (
{
closed = 1;
nodes = (
"247 0 LINE",
"247 26 LINE",
"217 26 LINE SMOOTH",
"179 26 OFFCURVE",
"159 37 OFFCURVE",
"159 62 CURVE SMOOTH",
"159 642 LINE",
"587 0 LINE",
"645 0 LINE",
"645 637 LINE SMOOTH",
"645 662 OFFCURVE",
"665 673 OFFCURVE",
"703 673 CURVE SMOOTH",
"733 673 LINE",
"733 700 LINE",
"508 700 LINE",
"508 673 LINE",
"537 673 LINE SMOOTH",
"576 673 OFFCURVE",
"595 662 OFFCURVE",
"595 637 CURVE SMOOTH",
"595 126 LINE",
"217 700 LINE",
"22 700 LINE",
"22 673 LINE",
"51 673 LINE SMOOTH",
"90 673 OFFCURVE",
"109 662 OFFCURVE",
"109 637 CURVE SMOOTH",
"109 62 LINE SMOOTH",
"109 37 OFFCURVE",
"90 26 OFFCURVE",
"51 26 CURVE SMOOTH",
"22 26 LINE",
"22 0 LINE"
);
},
{
closed = 1;
nodes = (
"458 865 LINE SMOOTH",
"480 877 OFFCURVE",
"492 890 OFFCURVE",
"492 907 CURVE SMOOTH",
"492 922 OFFCURVE",
"480 937 OFFCURVE",
"458 937 CURVE SMOOTH",
"437 937 OFFCURVE",
"422 921 OFFCURVE",
"414 914 CURVE SMOOTH",
"299 807 LINE",
"316 782 LINE"
);
}
);
};
components = (
{
name = N;
},
{
name = acute;
transform = "{1, 0, 0, 1, 120, 230}";
}
);
layerId = "0B1DFD06-3317-40CA-B510-4969A0718C16";
width = 755;
}
);
note = Nacute;
unicode = 0143;
},
{
glyphname = Ncaron;
lastChange = "2017-12-18 08:29:18 +0000";
layers = (
{
background = {
paths = (
{
closed = 1;
nodes = (
"247 0 LINE",
"247 26 LINE",
"217 26 LINE SMOOTH",
"179 26 OFFCURVE",
"159 37 OFFCURVE",
"159 62 CURVE SMOOTH",
"159 642 LINE",
"587 0 LINE",
"645 0 LINE",
"645 637 LINE SMOOTH",
"645 662 OFFCURVE",
"665 673 OFFCURVE",
"703 673 CURVE SMOOTH",
"733 673 LINE",
"733 700 LINE",
"508 700 LINE",
"508 673 LINE",
"537 673 LINE SMOOTH",
"576 673 OFFCURVE",
"595 662 OFFCURVE",
"595 637 CURVE SMOOTH",
"595 126 LINE",
"217 700 LINE",
"22 700 LINE",
"22 673 LINE",
"51 673 LINE SMOOTH",
"90 673 OFFCURVE",
"109 662 OFFCURVE",
"109 637 CURVE SMOOTH",
"109 62 LINE SMOOTH",
"109 37 OFFCURVE",
"90 26 OFFCURVE",
"51 26 CURVE SMOOTH",
"22 26 LINE",
"22 0 LINE"
);
},
{
closed = 1;
nodes = (
"403 782 LINE",
"527 911 LINE",
"508 932 LINE",
"400 847 LINE",
"392 840 OFFCURVE",
"383 836 OFFCURVE",
"377 836 CURVE SMOOTH",
"371 836 OFFCURVE",
"363 840 OFFCURVE",
"353 847 CURVE",
"245 932 LINE",
"226 911 LINE",
"350 782 LINE"
);
}
);
};
components = (
{
name = N;
},
{
name = caron;
transform = "{1, 0, 0, 1, 132, 230}";
}
);
layerId = "0B1DFD06-3317-40CA-B510-4969A0718C16";
width = 755;
}
);
note = Ncaron;
unicode = 0147;
},
{
glyphname = Ncommaaccent;
lastChange = "2017-12-19 04:00:44 +0000";
layers = (
{
background = {
paths = (
{
closed = 1;
nodes = (
"247 0 LINE",
"247 26 LINE",
"217 26 LINE SMOOTH",
"179 26 OFFCURVE",
"159 37 OFFCURVE",
"159 62 CURVE SMOOTH",
"159 642 LINE",
"587 0 LINE",
"645 0 LINE",
"645 637 LINE SMOOTH",
"645 662 OFFCURVE",
"665 673 OFFCURVE",
"703 673 CURVE SMOOTH",
"733 673 LINE",
"733 700 LINE",
"508 700 LINE",
"508 673 LINE",
"537 673 LINE SMOOTH",
"576 673 OFFCURVE",
"595 662 OFFCURVE",
"595 637 CURVE SMOOTH",
"595 126 LINE",
"217 700 LINE",
"22 700 LINE",
"22 673 LINE",
"51 673 LINE SMOOTH",
"90 673 OFFCURVE",
"109 662 OFFCURVE",
"109 637 CURVE SMOOTH",
"109 62 LINE SMOOTH",
"109 37 OFFCURVE",
"90 26 OFFCURVE",
"51 26 CURVE SMOOTH",
"22 26 LINE",
"22 0 LINE"
);
},
{
closed = 1;
nodes = (
"369 -258 OFFCURVE",
"413 -198 OFFCURVE",
"413 -135 CURVE SMOOTH",
"413 -87 OFFCURVE",
"389 -67 OFFCURVE",
"360 -67 CURVE SMOOTH",
"331 -67 OFFCURVE",
"314 -87 OFFCURVE",
"314 -111 CURVE SMOOTH",
"314 -145 OFFCURVE",
"349 -152 OFFCURVE",
"349 -187 CURVE SMOOTH",
"349 -223 OFFCURVE",
"323 -256 OFFCURVE",
"296 -282 CURVE",
"313 -299 LINE"
);
}
);
};
components = (
{
name = commaaccentcomb;
},
{
name = N;
}
);
layerId = "0B1DFD06-3317-40CA-B510-4969A0718C16";
width = 728;
}
);
note = Ncommaaccent;
unicode = 0145;
},
{
glyphname = Ndotaccent;
lastChange = "2017-12-18 08:29:18 +0000";
layers = (
{
background = {
paths = (
{
closed = 1;
nodes = (
"247 0 LINE",
"247 26 LINE",
"217 26 LINE SMOOTH",
"179 26 OFFCURVE",
"159 37 OFFCURVE",
"159 62 CURVE SMOOTH",
"159 642 LINE",
"587 0 LINE",
"645 0 LINE",
"645 637 LINE SMOOTH",
"645 662 OFFCURVE",
"665 673 OFFCURVE",
"703 673 CURVE SMOOTH",
"733 673 LINE",
"733 700 LINE",
"508 700 LINE",
"508 673 LINE",
"537 673 LINE SMOOTH",
"576 673 OFFCURVE",
"595 662 OFFCURVE",
"595 637 CURVE SMOOTH",
"595 126 LINE",
"217 700 LINE",
"22 700 LINE",
"22 673 LINE",
"51 673 LINE SMOOTH",
"90 673 OFFCURVE",
"109 662 OFFCURVE",
"109 637 CURVE SMOOTH",
"109 62 LINE SMOOTH",
"109 37 OFFCURVE",
"90 26 OFFCURVE",
"51 26 CURVE SMOOTH",
"22 26 LINE",
"22 0 LINE"
);
},
{
closed = 1;
nodes = (
"405 765 OFFCURVE",
"423 784 OFFCURVE",
"423 811 CURVE SMOOTH",
"423 839 OFFCURVE",
"405 858 OFFCURVE",
"377 858 CURVE SMOOTH",
"348 858 OFFCURVE",
"330 839 OFFCURVE",
"330 811 CURVE SMOOTH",
"330 784 OFFCURVE",
"348 765 OFFCURVE",
"377 765 CURVE SMOOTH"
);
}
);
};
components = (
{
name = N;
},
{
name = dotaccent;
transform = "{1, 0, 0, 1, 132, 230}";
}
);
layerId = "0B1DFD06-3317-40CA-B510-4969A0718C16";
width = 755;
}
);
note = Ndotaccent;
unicode = 1E44;
},
{
glyphname = Ndotbelow;
lastChange = "2017-12-18 08:29:18 +0000";
layers = (
{
background = {
paths = (
{
closed = 1;
nodes = (
"247 0 LINE",
"247 26 LINE",
"217 26 LINE SMOOTH",
"179 26 OFFCURVE",
"159 37 OFFCURVE",
"159 62 CURVE SMOOTH",
"159 642 LINE",
"587 0 LINE",
"645 0 LINE",
"645 637 LINE SMOOTH",
"645 662 OFFCURVE",
"665 673 OFFCURVE",
"703 673 CURVE SMOOTH",
"733 673 LINE",
"733 700 LINE",
"508 700 LINE",
"508 673 LINE",
"537 673 LINE SMOOTH",
"576 673 OFFCURVE",
"595 662 OFFCURVE",
"595 637 CURVE SMOOTH",
"595 126 LINE",
"217 700 LINE",
"22 700 LINE",
"22 673 LINE",
"51 673 LINE SMOOTH",
"90 673 OFFCURVE",
"109 662 OFFCURVE",
"109 637 CURVE SMOOTH",
"109 62 LINE SMOOTH",
"109 37 OFFCURVE",
"90 26 OFFCURVE",
"51 26 CURVE SMOOTH",
"22 26 LINE",
"22 0 LINE"
);
},
{
closed = 1;
nodes = (
"415 -159 OFFCURVE",
"433 -140 OFFCURVE",
"433 -112 CURVE SMOOTH",
"433 -84 OFFCURVE",
"415 -64 OFFCURVE",
"387 -64 CURVE SMOOTH",
"359 -64 OFFCURVE",
"340 -84 OFFCURVE",
"340 -112 CURVE SMOOTH",
"340 -140 OFFCURVE",
"359 -159 OFFCURVE",
"387 -159 CURVE SMOOTH"
);
}
);
};
components = (
{
name = N;
},
{
name = dotbelowcomb;
transform = "{1, 0, 0, 1, 629, 0}";
}
);
layerId = "0B1DFD06-3317-40CA-B510-4969A0718C16";
width = 755;
}
);
note = uni1E46;
unicode = 1E46;
},
{
color = 0;
glyphname = Eng;
lastChange = "2017-12-19 04:00:18 +0000";
layers = (
{
background = {
paths = (
{
closed = 1;
nodes = (
"592 -259 OFFCURVE",
"645 -182 OFFCURVE",
"645 -36 CURVE SMOOTH",
"645 637 LINE SMOOTH",
"645 662 OFFCURVE",
"665 673 OFFCURVE",
"703 673 CURVE SMOOTH",
"733 673 LINE",
"733 700 LINE",
"508 700 LINE",
"508 673 LINE",
"537 673 LINE SMOOTH",
"576 673 OFFCURVE",
"595 662 OFFCURVE",
"595 637 CURVE SMOOTH",
"595 125 LINE",
"219 700 LINE",
"22 700 LINE",
"22 673 LINE",
"51 673 LINE SMOOTH",
"90 673 OFFCURVE",
"109 662 OFFCURVE",
"109 637 CURVE SMOOTH",
"109 62 LINE SMOOTH",
"109 37 OFFCURVE",
"93 26 OFFCURVE",
"51 26 CURVE SMOOTH",
"22 26 LINE",
"22 0 LINE",
"247 0 LINE",
"247 26 LINE",
"217 26 LINE SMOOTH",
"179 26 OFFCURVE",
"159 37 OFFCURVE",
"159 62 CURVE SMOOTH",
"159 647 LINE",
"586 0 LINE",
"586 -76 LINE SMOOTH",
"586 -173 OFFCURVE",
"510 -238 OFFCURVE",
"423 -243 CURVE",
"427 -268 LINE"
);
}
);
};
layerId = "0B1DFD06-3317-40CA-B510-4969A0718C16";
paths = (
{
closed = 1;
nodes = (
"592 -259 OFFCURVE",
"645 -182 OFFCURVE",
"645 -36 CURVE SMOOTH",
"645 637 LINE SMOOTH",
"645 662 OFFCURVE",
"665 673 OFFCURVE",
"703 673 CURVE SMOOTH",
"733 673 LINE",
"733 700 LINE",
"508 700 LINE",
"508 673 LINE",
"537 673 LINE SMOOTH",
"576 673 OFFCURVE",
"595 662 OFFCURVE",
"595 637 CURVE SMOOTH",
"595 125 LINE",
"219 700 LINE",
"22 700 LINE",
"22 673 LINE",
"51 673 LINE SMOOTH",
"90 673 OFFCURVE",
"109 662 OFFCURVE",
"109 637 CURVE SMOOTH",
"109 62 LINE SMOOTH",
"109 37 OFFCURVE",
"93 26 OFFCURVE",
"51 26 CURVE SMOOTH",
"22 26 LINE",
"22 0 LINE",
"247 0 LINE",
"247 26 LINE",
"217 26 LINE SMOOTH",
"179 26 OFFCURVE",
"159 37 OFFCURVE",
"159 62 CURVE SMOOTH",
"159 647 LINE",
"586 0 LINE",
"586 -76 LINE SMOOTH",
"586 -173 OFFCURVE",
"510 -238 OFFCURVE",
"423 -243 CURVE",
"427 -268 LINE"
);
}
);
width = 755;
}
);
note = Eng;
unicode = 014A;
},
{
glyphname = Nlinebelow;
lastChange = "2017-12-18 08:29:18 +0000";
layers = (
{
background = {
paths = (
{
closed = 1;
nodes = (
"247 0 LINE",
"247 26 LINE",
"217 26 LINE SMOOTH",
"179 26 OFFCURVE",
"159 37 OFFCURVE",
"159 62 CURVE SMOOTH",
"159 642 LINE",
"587 0 LINE",
"645 0 LINE",
"645 637 LINE SMOOTH",
"645 662 OFFCURVE",
"665 673 OFFCURVE",
"703 673 CURVE SMOOTH",
"733 673 LINE",
"733 700 LINE",
"508 700 LINE",
"508 673 LINE",
"537 673 LINE SMOOTH",
"576 673 OFFCURVE",
"595 662 OFFCURVE",
"595 637 CURVE SMOOTH",
"595 126 LINE",
"217 700 LINE",
"22 700 LINE",
"22 673 LINE",
"51 673 LINE SMOOTH",
"90 673 OFFCURVE",
"109 662 OFFCURVE",
"109 637 CURVE SMOOTH",
"109 62 LINE SMOOTH",
"109 37 OFFCURVE",
"90 26 OFFCURVE",
"51 26 CURVE SMOOTH",
"22 26 LINE",
"22 0 LINE"
);
},
{
closed = 1;
nodes = (
"542 -110 LINE",
"542 -72 LINE",
"210 -72 LINE",
"210 -110 LINE"
);
}
);
};
components = (
{
name = N;
},
{
name = macronbelowcomb;
transform = "{1, 0, 0, 1, 378, 0}";
}
);
layerId = "0B1DFD06-3317-40CA-B510-4969A0718C16";
width = 755;
}
);
note = Nlinebelow;
unicode = 1E48;
},
{
glyphname = Ntilde;
lastChange = "2017-12-18 08:29:18 +0000";
layers = (
{
background = {
paths = (
{
closed = 1;
nodes = (
"247 0 LINE",
"247 26 LINE",
"217 26 LINE SMOOTH",
"179 26 OFFCURVE",
"159 37 OFFCURVE",
"159 62 CURVE SMOOTH",
"159 642 LINE",
"587 0 LINE",
"645 0 LINE",
"645 637 LINE SMOOTH",
"645 662 OFFCURVE",
"665 673 OFFCURVE",
"703 673 CURVE SMOOTH",
"733 673 LINE",
"733 700 LINE",
"508 700 LINE",
"508 673 LINE",
"537 673 LINE SMOOTH",
"576 673 OFFCURVE",
"595 662 OFFCURVE",
"595 637 CURVE SMOOTH",
"595 126 LINE",
"217 700 LINE",
"22 700 LINE",
"22 673 LINE",
"51 673 LINE SMOOTH",
"90 673 OFFCURVE",
"109 662 OFFCURVE",
"109 637 CURVE SMOOTH",
"109 62 LINE SMOOTH",
"109 37 OFFCURVE",
"90 26 OFFCURVE",
"51 26 CURVE SMOOTH",
"22 26 LINE",
"22 0 LINE"
);
},
{
closed = 1;
nodes = (
"254 818 OFFCURVE",
"272 839 OFFCURVE",
"305 839 CURVE SMOOTH",
"356 839 OFFCURVE",
"405 785 OFFCURVE",
"456 785 CURVE SMOOTH",
"514 785 OFFCURVE",
"544 833 OFFCURVE",
"556 885 CURVE",
"535 896 LINE",
"519 856 OFFCURVE",
"503 834 OFFCURVE",
"469 834 CURVE SMOOTH",
"420 834 OFFCURVE",
"368 887 OFFCURVE",
"317 887 CURVE SMOOTH",
"263 887 OFFCURVE",
"230 843 OFFCURVE",
"218 791 CURVE",
"240 780 LINE"
);
}
);
};
components = (
{
name = N;
},
{
name = tilde;
transform = "{1, 0, 0, 1, 132, 230}";
}
);
layerId = "0B1DFD06-3317-40CA-B510-4969A0718C16";
width = 755;
}
);
note = Ntilde;
unicode = 00D1;
},
{
glyphname = Oacute;
lastChange = "2017-12-18 08:30:49 +0000";
layers = (
{
background = {
paths = (
{
closed = 1;
nodes = (
"601 -10 OFFCURVE",
"719 124 OFFCURVE",
"719 350 CURVE SMOOTH",
"719 574 OFFCURVE",
"601 710 OFFCURVE",
"378 710 CURVE SMOOTH",
"154 710 OFFCURVE",
"36 574 OFFCURVE",
"36 350 CURVE SMOOTH",
"36 124 OFFCURVE",
"154 -10 OFFCURVE",
"378 -10 CURVE SMOOTH"
);
},
{
closed = 1;
nodes = (
"215 32 OFFCURVE",
"135 158 OFFCURVE",
"135 350 CURVE SMOOTH",
"135 541 OFFCURVE",
"215 668 OFFCURVE",
"377 668 CURVE SMOOTH",
"541 668 OFFCURVE",
"620 541 OFFCURVE",
"620 350 CURVE SMOOTH",
"620 158 OFFCURVE",
"541 32 OFFCURVE",
"377 32 CURVE SMOOTH"
);
},
{
closed = 1;
nodes = (
"440 865 LINE SMOOTH",
"462 877 OFFCURVE",
"474 890 OFFCURVE",
"474 907 CURVE SMOOTH",
"474 922 OFFCURVE",
"462 937 OFFCURVE",
"440 937 CURVE SMOOTH",
"419 937 OFFCURVE",
"404 921 OFFCURVE",
"396 914 CURVE SMOOTH",
"281 807 LINE",
"298 782 LINE"
);
}
);
};
components = (
{
name = O;
},
{
name = acute;
transform = "{1, 0, 0, 1, 120, 230}";
}
);
layerId = "0B1DFD06-3317-40CA-B510-4969A0718C16";
width = 755;
}
);
leftKerningGroup = O;
note = Oacute;
rightKerningGroup = O;
unicode = 00D3;
},
{
glyphname = Obreve;
lastChange = "2017-12-18 08:30:49 +0000";
layers = (
{
background = {
paths = (
{
closed = 1;
nodes = (
"601 -10 OFFCURVE",
"719 124 OFFCURVE",
"719 350 CURVE SMOOTH",
"719 574 OFFCURVE",
"601 710 OFFCURVE",
"378 710 CURVE SMOOTH",
"154 710 OFFCURVE",
"36 574 OFFCURVE",
"36 350 CURVE SMOOTH",
"36 124 OFFCURVE",
"154 -10 OFFCURVE",
"378 -10 CURVE SMOOTH"
);
},
{
closed = 1;
nodes = (
"215 32 OFFCURVE",
"135 158 OFFCURVE",
"135 350 CURVE SMOOTH",
"135 541 OFFCURVE",
"215 668 OFFCURVE",
"377 668 CURVE SMOOTH",
"541 668 OFFCURVE",
"620 541 OFFCURVE",
"620 350 CURVE SMOOTH",
"620 158 OFFCURVE",
"541 32 OFFCURVE",
"377 32 CURVE SMOOTH"
);
},
{
closed = 1;
nodes = (
"477 774 OFFCURVE",
"519 830 OFFCURVE",
"523 905 CURVE",
"490 905 LINE",
"484 846 OFFCURVE",
"442 820 OFFCURVE",
"378 820 CURVE SMOOTH",
"314 820 OFFCURVE",
"271 846 OFFCURVE",
"264 905 CURVE",
"231 905 LINE",
"235 827 OFFCURVE",
"277 774 OFFCURVE",
"378 774 CURVE SMOOTH"
);
}
);
};
components = (
{
name = O;
},
{
name = breve;
transform = "{1, 0, 0, 1, 132, 230}";
}
);
layerId = "0B1DFD06-3317-40CA-B510-4969A0718C16";
width = 755;
}
);
leftKerningGroup = O;
note = Obreve;
rightKerningGroup = O;
unicode = 014E;
},
{
glyphname = Ocaron;
lastChange = "2017-12-18 08:30:49 +0000";
layers = (
{
background = {
paths = (
{
closed = 1;
nodes = (
"601 -10 OFFCURVE",
"719 124 OFFCURVE",
"719 350 CURVE SMOOTH",
"719 574 OFFCURVE",
"601 710 OFFCURVE",
"378 710 CURVE SMOOTH",
"154 710 OFFCURVE",
"36 574 OFFCURVE",
"36 350 CURVE SMOOTH",
"36 124 OFFCURVE",
"154 -10 OFFCURVE",
"378 -10 CURVE SMOOTH"
);
},
{
closed = 1;
nodes = (
"215 32 OFFCURVE",
"135 158 OFFCURVE",
"135 350 CURVE SMOOTH",
"135 541 OFFCURVE",
"215 668 OFFCURVE",
"377 668 CURVE SMOOTH",
"541 668 OFFCURVE",
"620 541 OFFCURVE",
"620 350 CURVE SMOOTH",
"620 158 OFFCURVE",
"541 32 OFFCURVE",
"377 32 CURVE SMOOTH"
);
},
{
closed = 1;
nodes = (
"404 782 LINE",
"528 911 LINE",
"509 932 LINE",
"401 847 LINE",
"393 840 OFFCURVE",
"384 836 OFFCURVE",
"378 836 CURVE SMOOTH",
"372 836 OFFCURVE",
"364 840 OFFCURVE",
"354 847 CURVE",
"246 932 LINE",
"227 911 LINE",
"351 782 LINE"
);
}
);
};
components = (
{
name = O;
},
{
name = caron;
transform = "{1, 0, 0, 1, 132, 230}";
}
);
layerId = "0B1DFD06-3317-40CA-B510-4969A0718C16";
width = 755;
}
);
leftKerningGroup = O;
note = Ocaron;
rightKerningGroup = O;
unicode = 01D1;
},
{
glyphname = Ocircumflex;
lastChange = "2017-12-18 08:30:49 +0000";
layers = (
{
background = {
paths = (
{
closed = 1;
nodes = (
"601 -10 OFFCURVE",
"719 124 OFFCURVE",
"719 350 CURVE SMOOTH",
"719 574 OFFCURVE",
"601 710 OFFCURVE",
"378 710 CURVE SMOOTH",
"154 710 OFFCURVE",
"36 574 OFFCURVE",
"36 350 CURVE SMOOTH",
"36 124 OFFCURVE",
"154 -10 OFFCURVE",
"378 -10 CURVE SMOOTH"
);
},
{
closed = 1;
nodes = (
"215 32 OFFCURVE",
"135 158 OFFCURVE",
"135 350 CURVE SMOOTH",
"135 541 OFFCURVE",
"215 668 OFFCURVE",
"377 668 CURVE SMOOTH",
"541 668 OFFCURVE",
"620 541 OFFCURVE",
"620 350 CURVE SMOOTH",
"620 158 OFFCURVE",
"541 32 OFFCURVE",
"377 32 CURVE SMOOTH"
);
},
{
closed = 1;
nodes = (
"354 868 LINE SMOOTH",
"362 874 OFFCURVE",
"372 879 OFFCURVE",
"378 879 CURVE SMOOTH",
"384 879 OFFCURVE",
"392 874 OFFCURVE",
"401 868 CURVE",
"509 782 LINE",
"528 803 LINE",
"404 932 LINE",
"351 932 LINE",
"227 803 LINE",
"246 782 LINE"
);
}
);
};
components = (
{
name = O;
},
{
name = circumflex;
transform = "{1, 0, 0, 1, 132, 230}";
}
);
layerId = "0B1DFD06-3317-40CA-B510-4969A0718C16";
width = 755;
}
);
leftKerningGroup = O;
note = Ocircumflex;
rightKerningGroup = O;
unicode = 00D4;
},
{
glyphname = Ocircumflexacute;
lastChange = "2017-12-18 08:31:35 +0000";
layers = (
{
background = {
paths = (
{
closed = 1;
nodes = (
"601 -10 OFFCURVE",
"719 124 OFFCURVE",
"719 350 CURVE SMOOTH",
"719 574 OFFCURVE",
"601 710 OFFCURVE",
"378 710 CURVE SMOOTH",
"154 710 OFFCURVE",
"36 574 OFFCURVE",
"36 350 CURVE SMOOTH",
"36 124 OFFCURVE",
"154 -10 OFFCURVE",
"378 -10 CURVE SMOOTH"
);
},
{
closed = 1;
nodes = (
"215 32 OFFCURVE",
"135 158 OFFCURVE",
"135 350 CURVE SMOOTH",
"135 541 OFFCURVE",
"215 668 OFFCURVE",
"377 668 CURVE SMOOTH",
"541 668 OFFCURVE",
"620 541 OFFCURVE",
"620 350 CURVE SMOOTH",
"620 158 OFFCURVE",
"541 32 OFFCURVE",
"377 32 CURVE SMOOTH"
);
},
{
closed = 1;
nodes = (
"348 861 LINE SMOOTH",
"358 869 OFFCURVE",
"368 877 OFFCURVE",
"376 877 CURVE SMOOTH",
"382 877 OFFCURVE",
"390 872 OFFCURVE",
"399 866 CURVE",
"505 780 LINE",
"524 802 LINE",
"402 931 LINE",
"351 931 LINE",
"229 802 LINE",
"247 780 LINE"
);
},
{
closed = 1;
nodes = (
"613 959 LINE SMOOTH",
"636 971 OFFCURVE",
"649 987 OFFCURVE",
"649 1002 CURVE SMOOTH",
"649 1016 OFFCURVE",
"638 1033 OFFCURVE",
"615 1033 CURVE SMOOTH",
"596 1033 OFFCURVE",
"579 1017 OFFCURVE",
"569 1007 CURVE SMOOTH",
"473 914 LINE",
"491 892 LINE"
);
}
);
};
components = (
{
name = O;
},
{
name = circumflexacute;
transform = "{1, 0, 0, 1, 628, 230}";
}
);
layerId = "0B1DFD06-3317-40CA-B510-4969A0718C16";
width = 755;
}
);
leftKerningGroup = O;
note = Ocircumflexacute;
rightKerningGroup = O;
unicode = 1ED0;
},
{
glyphname = Ocircumflexdotbelow;
lastChange = "2017-12-18 08:30:49 +0000";
layers = (
{
background = {
paths = (
{
closed = 1;
nodes = (
"36 124 OFFCURVE",
"154 -10 OFFCURVE",
"378 -10 CURVE SMOOTH",
"601 -10 OFFCURVE",
"719 124 OFFCURVE",
"719 350 CURVE SMOOTH",
"719 574 OFFCURVE",
"601 710 OFFCURVE",
"378 710 CURVE SMOOTH",
"154 710 OFFCURVE",
"36 574 OFFCURVE",
"36 350 CURVE SMOOTH"
);
},
{
closed = 1;
nodes = (
"135 541 OFFCURVE",
"215 668 OFFCURVE",
"377 668 CURVE SMOOTH",
"541 668 OFFCURVE",
"620 541 OFFCURVE",
"620 350 CURVE SMOOTH",
"620 158 OFFCURVE",
"541 32 OFFCURVE",
"377 32 CURVE SMOOTH",
"215 32 OFFCURVE",
"135 158 OFFCURVE",
"135 350 CURVE SMOOTH"
);
},
{
closed = 1;
nodes = (
"245 782 LINE",
"353 868 LINE SMOOTH",
"361 874 OFFCURVE",
"371 879 OFFCURVE",
"377 879 CURVE SMOOTH",
"383 879 OFFCURVE",
"391 874 OFFCURVE",
"400 868 CURVE",
"508 782 LINE",
"527 803 LINE",
"403 932 LINE",
"350 932 LINE",
"226 803 LINE"
);
},
{
closed = 1;
nodes = (
"330 -140 OFFCURVE",
"349 -159 OFFCURVE",
"377 -159 CURVE SMOOTH",
"405 -159 OFFCURVE",
"423 -140 OFFCURVE",
"423 -112 CURVE SMOOTH",
"423 -84 OFFCURVE",
"405 -64 OFFCURVE",
"377 -64 CURVE SMOOTH",
"349 -64 OFFCURVE",
"330 -84 OFFCURVE",
"330 -112 CURVE SMOOTH"
);
}
);
};
components = (
{
name = O;
},
{
name = dotbelowcomb;
transform = "{1, 0, 0, 1, 629, 0}";
},
{
name = circumflex;
transform = "{1, 0, 0, 1, 132, 230}";
}
);
layerId = "0B1DFD06-3317-40CA-B510-4969A0718C16";
width = 755;
}
);
leftKerningGroup = O;
note = Ocircumflexdotbelow;
rightKerningGroup = O;
unicode = 1ED8;
},
{
glyphname = Ocircumflexgrave;
lastChange = "2017-12-18 08:32:22 +0000";
layers = (
{
background = {
paths = (
{
closed = 1;
nodes = (
"601 -10 OFFCURVE",
"719 124 OFFCURVE",
"719 350 CURVE SMOOTH",
"719 574 OFFCURVE",
"601 710 OFFCURVE",
"378 710 CURVE SMOOTH",
"154 710 OFFCURVE",
"36 574 OFFCURVE",
"36 350 CURVE SMOOTH",
"36 124 OFFCURVE",
"154 -10 OFFCURVE",
"378 -10 CURVE SMOOTH"
);
},
{
closed = 1;
nodes = (
"215 32 OFFCURVE",
"135 158 OFFCURVE",
"135 350 CURVE SMOOTH",
"135 541 OFFCURVE",
"215 668 OFFCURVE",
"377 668 CURVE SMOOTH",
"541 668 OFFCURVE",
"620 541 OFFCURVE",
"620 350 CURVE SMOOTH",
"620 158 OFFCURVE",
"541 32 OFFCURVE",
"377 32 CURVE SMOOTH"
);
},
{
closed = 1;
nodes = (
"285 914 LINE",
"190 1007 LINE SMOOTH",
"180 1017 OFFCURVE",
"163 1033 OFFCURVE",
"143 1033 CURVE SMOOTH",
"121 1033 OFFCURVE",
"110 1016 OFFCURVE",
"110 1002 CURVE SMOOTH",
"110 987 OFFCURVE",
"123 971 OFFCURVE",
"146 959 CURVE SMOOTH",
"268 892 LINE"
);
},
{
closed = 1;
nodes = (
"348 861 LINE SMOOTH",
"358 869 OFFCURVE",
"368 877 OFFCURVE",
"376 877 CURVE SMOOTH",
"382 877 OFFCURVE",
"390 872 OFFCURVE",
"399 866 CURVE",
"505 780 LINE",
"524 802 LINE",
"402 931 LINE",
"351 931 LINE",
"229 802 LINE",
"247 780 LINE"
);
}
);
};
components = (
{
name = O;
},
{
name = circumflexgrave;
transform = "{1, 0, 0, 1, 628, 230}";
}
);
layerId = "0B1DFD06-3317-40CA-B510-4969A0718C16";
width = 755;
}
);
leftKerningGroup = O;
note = Ocircumflexgrave;
rightKerningGroup = O;
unicode = 1ED2;
},
{
glyphname = Ocircumflexhookabove;
lastChange = "2017-12-18 09:45:48 +0000";
layers = (
{
background = {
paths = (
{
closed = 1;
nodes = (
"601 -10 OFFCURVE",
"719 124 OFFCURVE",
"719 350 CURVE SMOOTH",
"719 574 OFFCURVE",
"601 710 OFFCURVE",
"378 710 CURVE SMOOTH",
"154 710 OFFCURVE",
"36 574 OFFCURVE",
"36 350 CURVE SMOOTH",
"36 124 OFFCURVE",
"154 -10 OFFCURVE",
"378 -10 CURVE SMOOTH"
);
},
{
closed = 1;
nodes = (
"215 32 OFFCURVE",
"135 158 OFFCURVE",
"135 350 CURVE SMOOTH",
"135 541 OFFCURVE",
"215 668 OFFCURVE",
"377 668 CURVE SMOOTH",
"541 668 OFFCURVE",
"620 541 OFFCURVE",
"620 350 CURVE SMOOTH",
"620 158 OFFCURVE",
"541 32 OFFCURVE",
"377 32 CURVE SMOOTH"
);
},
{
closed = 1;
nodes = (
"344 858 LINE",
"355 868 OFFCURVE",
"367 878 OFFCURVE",
"376 878 CURVE SMOOTH",
"382 878 OFFCURVE",
"390 873 OFFCURVE",
"399 867 CURVE",
"505 781 LINE",
"524 803 LINE",
"402 932 LINE",
"351 932 LINE",
"229 803 LINE",
"247 781 LINE"
);
},
{
closed = 1;
nodes = (
"551 898 LINE",
"532 905 OFFCURVE",
"522 912 OFFCURVE",
"522 926 CURVE SMOOTH",
"522 954 OFFCURVE",
"602 965 OFFCURVE",
"602 1010 CURVE SMOOTH",
"602 1047 OFFCURVE",
"560 1063 OFFCURVE",
"518 1063 CURVE SMOOTH",
"487 1063 OFFCURVE",
"442 1053 OFFCURVE",
"442 1022 CURVE SMOOTH",
"442 1010 OFFCURVE",
"453 1001 OFFCURVE",
"463 1001 CURVE SMOOTH",
"492 1001 OFFCURVE",
"479 1040 OFFCURVE",
"522 1040 CURVE SMOOTH",
"541 1040 OFFCURVE",
"552 1028 OFFCURVE",
"552 1013 CURVE SMOOTH",
"552 973 OFFCURVE",
"479 965 OFFCURVE",
"479 925 CURVE SMOOTH",
"479 901 OFFCURVE",
"495 880 OFFCURVE",
"542 880 CURVE"
);
}
);
};
components = (
{
name = O;
},
{
name = circumflexhookabove;
transform = "{1, 0, 0, 1, 628, 230}";
}
);
layerId = "0B1DFD06-3317-40CA-B510-4969A0718C16";
width = 755;
}
);
leftKerningGroup = O;
note = Ocircumflexhookabove;
rightKerningGroup = O;
unicode = 1ED4;
},
{
glyphname = Ocircumflextilde;
lastChange = "2017-12-18 08:33:54 +0000";
layers = (
{
background = {
paths = (
{
closed = 1;
nodes = (
"601 -10 OFFCURVE",
"719 124 OFFCURVE",
"719 350 CURVE SMOOTH",
"719 574 OFFCURVE",
"601 710 OFFCURVE",
"378 710 CURVE SMOOTH",
"154 710 OFFCURVE",
"36 574 OFFCURVE",
"36 350 CURVE SMOOTH",
"36 124 OFFCURVE",
"154 -10 OFFCURVE",
"378 -10 CURVE SMOOTH"
);
},
{
closed = 1;
nodes = (
"215 32 OFFCURVE",
"135 158 OFFCURVE",
"135 350 CURVE SMOOTH",
"135 541 OFFCURVE",
"215 668 OFFCURVE",
"377 668 CURVE SMOOTH",
"541 668 OFFCURVE",
"620 541 OFFCURVE",
"620 350 CURVE SMOOTH",
"620 158 OFFCURVE",
"541 32 OFFCURVE",
"377 32 CURVE SMOOTH"
);
},
{
closed = 1;
nodes = (
"348 862 LINE SMOOTH",
"358 870 OFFCURVE",
"368 878 OFFCURVE",
"376 878 CURVE SMOOTH",
"382 878 OFFCURVE",
"390 873 OFFCURVE",
"399 867 CURVE",
"505 781 LINE",
"524 803 LINE",
"402 932 LINE",
"351 932 LINE",
"229 803 LINE",
"247 781 LINE"
);
},
{
closed = 1;
nodes = (
"251 997 OFFCURVE",
"269 1018 OFFCURVE",
"300 1018 CURVE SMOOTH",
"349 1018 OFFCURVE",
"396 964 OFFCURVE",
"445 964 CURVE SMOOTH",
"498 964 OFFCURVE",
"527 1012 OFFCURVE",
"539 1063 CURVE",
"518 1075 LINE",
"505 1035 OFFCURVE",
"489 1012 OFFCURVE",
"456 1012 CURVE SMOOTH",
"409 1012 OFFCURVE",
"360 1065 OFFCURVE",
"311 1065 CURVE SMOOTH",
"260 1065 OFFCURVE",
"228 1021 OFFCURVE",
"218 970 CURVE",
"238 958 LINE"
);
}
);
};
components = (
{
name = O;
},
{
name = circumflextilde;
transform = "{1, 0, 0, 1, 628, 230}";
}
);
layerId = "0B1DFD06-3317-40CA-B510-4969A0718C16";
width = 755;
}
);
leftKerningGroup = O;
note = Ocircumflextilde;
rightKerningGroup = O;
unicode = 1ED6;
},
{
glyphname = Odieresis;
lastChange = "2017-12-18 08:30:49 +0000";
layers = (
{
background = {
paths = (
{
closed = 1;
nodes = (
"601 -10 OFFCURVE",
"719 124 OFFCURVE",
"719 350 CURVE SMOOTH",
"719 574 OFFCURVE",
"601 710 OFFCURVE",
"378 710 CURVE SMOOTH",
"154 710 OFFCURVE",
"36 574 OFFCURVE",
"36 350 CURVE SMOOTH",
"36 124 OFFCURVE",
"154 -10 OFFCURVE",
"378 -10 CURVE SMOOTH"
);
},
{
closed = 1;
nodes = (
"215 32 OFFCURVE",
"135 158 OFFCURVE",
"135 350 CURVE SMOOTH",
"135 541 OFFCURVE",
"215 668 OFFCURVE",
"377 668 CURVE SMOOTH",
"541 668 OFFCURVE",
"620 541 OFFCURVE",
"620 350 CURVE SMOOTH",
"620 158 OFFCURVE",
"541 32 OFFCURVE",
"377 32 CURVE SMOOTH"
);
},
{
closed = 1;
nodes = (
"298 781 OFFCURVE",
"316 800 OFFCURVE",
"316 827 CURVE SMOOTH",
"316 855 OFFCURVE",
"298 875 OFFCURVE",
"269 875 CURVE SMOOTH",
"241 875 OFFCURVE",
"223 855 OFFCURVE",
"223 827 CURVE SMOOTH",
"223 800 OFFCURVE",
"241 781 OFFCURVE",
"269 781 CURVE SMOOTH"
);
},
{
closed = 1;
nodes = (
"514 781 OFFCURVE",
"532 800 OFFCURVE",
"532 827 CURVE SMOOTH",
"532 855 OFFCURVE",
"514 875 OFFCURVE",
"485 875 CURVE SMOOTH",
"456 875 OFFCURVE",
"438 855 OFFCURVE",
"438 827 CURVE SMOOTH",
"438 800 OFFCURVE",
"456 781 OFFCURVE",
"485 781 CURVE SMOOTH"
);
}
);
};
components = (
{
name = O;
},
{
name = dieresis;
transform = "{1, 0, 0, 1, 132, 230}";
}
);
layerId = "0B1DFD06-3317-40CA-B510-4969A0718C16";
width = 755;
}
);
leftKerningGroup = O;
note = Odieresis;
rightKerningGroup = O;
unicode = 00D6;
},
{
glyphname = Odotbelow;
lastChange = "2017-12-18 08:30:49 +0000";
layers = (
{
background = {
paths = (
{
closed = 1;
nodes = (
"36 124 OFFCURVE",
"154 -10 OFFCURVE",
"378 -10 CURVE SMOOTH",
"601 -10 OFFCURVE",
"719 124 OFFCURVE",
"719 350 CURVE SMOOTH",
"719 574 OFFCURVE",
"601 710 OFFCURVE",
"378 710 CURVE SMOOTH",
"154 710 OFFCURVE",
"36 574 OFFCURVE",
"36 350 CURVE SMOOTH"
);
},
{
closed = 1;
nodes = (
"135 541 OFFCURVE",
"215 668 OFFCURVE",
"377 668 CURVE SMOOTH",
"541 668 OFFCURVE",
"620 541 OFFCURVE",
"620 350 CURVE SMOOTH",
"620 158 OFFCURVE",
"541 32 OFFCURVE",
"377 32 CURVE SMOOTH",
"215 32 OFFCURVE",
"135 158 OFFCURVE",
"135 350 CURVE SMOOTH"
);
},
{
closed = 1;
nodes = (
"330 -140 OFFCURVE",
"349 -159 OFFCURVE",
"377 -159 CURVE SMOOTH",
"405 -159 OFFCURVE",
"423 -140 OFFCURVE",
"423 -112 CURVE SMOOTH",
"423 -84 OFFCURVE",
"405 -64 OFFCURVE",
"377 -64 CURVE SMOOTH",
"349 -64 OFFCURVE",
"330 -84 OFFCURVE",
"330 -112 CURVE SMOOTH"
);
}
);
};
components = (
{
name = O;
},
{
name = dotbelowcomb;
transform = "{1, 0, 0, 1, 629, 0}";
}
);
layerId = "0B1DFD06-3317-40CA-B510-4969A0718C16";
width = 755;
}
);
leftKerningGroup = O;
note = Odotbelow;
rightKerningGroup = O;
unicode = 1ECC;
},
{
glyphname = Ograve;
lastChange = "2017-12-18 08:30:49 +0000";
layers = (
{
background = {
paths = (
{
closed = 1;
nodes = (
"601 -10 OFFCURVE",
"719 124 OFFCURVE",
"719 350 CURVE SMOOTH",
"719 574 OFFCURVE",
"601 710 OFFCURVE",
"378 710 CURVE SMOOTH",
"154 710 OFFCURVE",
"36 574 OFFCURVE",
"36 350 CURVE SMOOTH",
"36 124 OFFCURVE",
"154 -10 OFFCURVE",
"378 -10 CURVE SMOOTH"
);
},
{
closed = 1;
nodes = (
"215 32 OFFCURVE",
"135 158 OFFCURVE",
"135 350 CURVE SMOOTH",
"135 541 OFFCURVE",
"215 668 OFFCURVE",
"377 668 CURVE SMOOTH",
"541 668 OFFCURVE",
"620 541 OFFCURVE",
"620 350 CURVE SMOOTH",
"620 158 OFFCURVE",
"541 32 OFFCURVE",
"377 32 CURVE SMOOTH"
);
},
{
closed = 1;
nodes = (
"459 807 LINE",
"344 913 LINE",
"335 922 OFFCURVE",
"319 937 OFFCURVE",
"299 937 CURVE SMOOTH",
"279 937 OFFCURVE",
"267 924 OFFCURVE",
"267 908 CURVE SMOOTH",
"267 890 OFFCURVE",
"279 876 OFFCURVE",
"298 865 CURVE SMOOTH",
"441 782 LINE"
);
}
);
};
components = (
{
name = O;
},
{
name = grave;
transform = "{1, 0, 0, 1, 132, 230}";
}
);
layerId = "0B1DFD06-3317-40CA-B510-4969A0718C16";
width = 755;
}
);
leftKerningGroup = O;
note = Ograve;
rightKerningGroup = O;
unicode = 00D2;
},
{
glyphname = Ohookabove;
lastChange = "2017-12-18 08:30:49 +0000";
layers = (
{
background = {
paths = (
{
closed = 1;
nodes = (
"601 -10 OFFCURVE",
"719 124 OFFCURVE",
"719 350 CURVE SMOOTH",
"719 574 OFFCURVE",
"601 710 OFFCURVE",
"378 710 CURVE SMOOTH",
"154 710 OFFCURVE",
"36 574 OFFCURVE",
"36 350 CURVE SMOOTH",
"36 124 OFFCURVE",
"154 -10 OFFCURVE",
"378 -10 CURVE SMOOTH"
);
},
{
closed = 1;
nodes = (
"215 32 OFFCURVE",
"135 158 OFFCURVE",
"135 350 CURVE SMOOTH",
"135 541 OFFCURVE",
"215 668 OFFCURVE",
"377 668 CURVE SMOOTH",
"541 668 OFFCURVE",
"620 541 OFFCURVE",
"620 350 CURVE SMOOTH",
"620 158 OFFCURVE",
"541 32 OFFCURVE",
"377 32 CURVE SMOOTH"
);
},
{
closed = 1;
nodes = (
"407 798 LINE",
"388 805 OFFCURVE",
"376 811 OFFCURVE",
"376 828 CURVE SMOOTH",
"376 861 OFFCURVE",
"465 876 OFFCURVE",
"465 927 CURVE SMOOTH",
"465 969 OFFCURVE",
"429 991 OFFCURVE",
"376 991 CURVE SMOOTH",
"329 991 OFFCURVE",
"288 974 OFFCURVE",
"288 940 CURVE SMOOTH",
"288 923 OFFCURVE",
"296 915 OFFCURVE",
"311 915 CURVE SMOOTH",
"334 915 OFFCURVE",
"336 934 OFFCURVE",
"339 942 CURVE SMOOTH",
"344 956 OFFCURVE",
"361 962 OFFCURVE",
"377 962 CURVE SMOOTH",
"398 962 OFFCURVE",
"411 947 OFFCURVE",
"411 930 CURVE SMOOTH",
"411 885 OFFCURVE",
"329 874 OFFCURVE",
"329 828 CURVE SMOOTH",
"329 801 OFFCURVE",
"347 778 OFFCURVE",
"398 778 CURVE"
);
}
);
};
components = (
{
name = O;
},
{
name = hookabovecomb;
transform = "{1, 0, 0, 1, 629, 230}";
}
);
layerId = "0B1DFD06-3317-40CA-B510-4969A0718C16";
width = 755;
}
);
leftKerningGroup = O;
note = Ohookabove;
rightKerningGroup = O;
unicode = 1ECE;
},
{
glyphname = Ohorn;
lastChange = "2018-01-16 07:49:44 +0000";
layers = (
{
layerId = "0B1DFD06-3317-40CA-B510-4969A0718C16";
paths = (
{
closed = 1;
nodes = (
"616 -9 OFFCURVE",
"777 150 OFFCURVE",
"777 349 CURVE SMOOTH",
"777 407 OFFCURVE",
"764 460 OFFCURVE",
"740 509 CURVE",
"808 537 OFFCURVE",
"834 600 OFFCURVE",
"834 652 CURVE SMOOTH",
"834 690 OFFCURVE",
"817 709 OFFCURVE",
"778 709 CURVE",
"778 625 OFFCURVE",
"765 567 OFFCURVE",
"719 542 CURVE",
"656 643 OFFCURVE",
"544 709 OFFCURVE",
"417 709 CURVE SMOOTH",
"218 709 OFFCURVE",
"59 548 OFFCURVE",
"59 349 CURVE SMOOTH",
"59 150 OFFCURVE",
"218 -9 OFFCURVE",
"417 -9 CURVE SMOOTH"
);
},
{
closed = 1;
nodes = (
"251 44 OFFCURVE",
"118 180 OFFCURVE",
"118 349 CURVE SMOOTH",
"118 519 OFFCURVE",
"251 656 OFFCURVE",
"417 656 CURVE SMOOTH",
"584 656 OFFCURVE",
"718 519 OFFCURVE",
"718 349 CURVE SMOOTH",
"718 180 OFFCURVE",
"584 44 OFFCURVE",
"417 44 CURVE SMOOTH"
);
}
);
width = 836;
}
);
note = Ohorn;
unicode = 01A0;
},
{
glyphname = Ohornacute;
lastChange = "2017-12-19 04:01:22 +0000";
layers = (
{
background = {
paths = (
{
closed = 1;
nodes = (
"602 -10 OFFCURVE",
"720 124 OFFCURVE",
"720 350 CURVE SMOOTH",
"720 574 OFFCURVE",
"602 710 OFFCURVE",
"379 710 CURVE SMOOTH",
"155 710 OFFCURVE",
"37 574 OFFCURVE",
"37 350 CURVE SMOOTH",
"37 124 OFFCURVE",
"155 -10 OFFCURVE",
"379 -10 CURVE SMOOTH"
);
},
{
closed = 1;
nodes = (
"216 32 OFFCURVE",
"136 158 OFFCURVE",
"136 350 CURVE SMOOTH",
"136 541 OFFCURVE",
"216 668 OFFCURVE",
"378 668 CURVE SMOOTH",
"542 668 OFFCURVE",
"621 541 OFFCURVE",
"621 350 CURVE SMOOTH",
"621 158 OFFCURVE",
"542 32 OFFCURVE",
"378 32 CURVE SMOOTH"
);
},
{
closed = 1;
nodes = (
"424 864 LINE SMOOTH",
"446 876 OFFCURVE",
"458 889 OFFCURVE",
"458 906 CURVE SMOOTH",
"458 921 OFFCURVE",
"446 936 OFFCURVE",
"424 936 CURVE SMOOTH",
"403 936 OFFCURVE",
"388 920 OFFCURVE",
"380 913 CURVE SMOOTH",
"265 806 LINE",
"282 781 LINE"
);
},
{
closed = 1;
nodes = (
"691 567 OFFCURVE",
"756 632 OFFCURVE",
"756 705 CURVE SMOOTH",
"756 752 OFFCURVE",
"729 772 OFFCURVE",
"701 772 CURVE SMOOTH",
"672 772 OFFCURVE",
"656 752 OFFCURVE",
"656 729 CURVE SMOOTH",
"656 695 OFFCURVE",
"689 688 OFFCURVE",
"689 653 CURVE SMOOTH",
"689 617 OFFCURVE",
"658 588 OFFCURVE",
"623 568 CURVE",
"623 543 LINE"
);
}
);
};
components = (
{
name = acute;
transform = "{1, 0, 0, 1, 120, 230}";
},
{
name = Ohorn;
}
);
layerId = "0B1DFD06-3317-40CA-B510-4969A0718C16";
width = 755;
}
);
leftKerningGroup = O;
note = Ohornacute;
rightKerningGroup = O;
unicode = 1EDA;
},
{
glyphname = Ohorndotbelow;
lastChange = "2017-12-19 04:01:26 +0000";
layers = (
{
background = {
paths = (
{
closed = 1;
nodes = (
"602 -10 OFFCURVE",
"720 124 OFFCURVE",
"720 350 CURVE SMOOTH",
"720 574 OFFCURVE",
"602 710 OFFCURVE",
"379 710 CURVE SMOOTH",
"155 710 OFFCURVE",
"37 574 OFFCURVE",
"37 350 CURVE SMOOTH",
"37 124 OFFCURVE",
"155 -10 OFFCURVE",
"379 -10 CURVE SMOOTH"
);
},
{
closed = 1;
nodes = (
"216 32 OFFCURVE",
"136 158 OFFCURVE",
"136 350 CURVE SMOOTH",
"136 541 OFFCURVE",
"216 668 OFFCURVE",
"378 668 CURVE SMOOTH",
"542 668 OFFCURVE",
"621 541 OFFCURVE",
"621 350 CURVE SMOOTH",
"621 158 OFFCURVE",
"542 32 OFFCURVE",
"378 32 CURVE SMOOTH"
);
},
{
closed = 1;
nodes = (
"691 567 OFFCURVE",
"756 632 OFFCURVE",
"756 705 CURVE SMOOTH",
"756 752 OFFCURVE",
"729 772 OFFCURVE",
"701 772 CURVE SMOOTH",
"672 772 OFFCURVE",
"656 752 OFFCURVE",
"656 729 CURVE SMOOTH",
"656 695 OFFCURVE",
"689 688 OFFCURVE",
"689 653 CURVE SMOOTH",
"689 617 OFFCURVE",
"658 588 OFFCURVE",
"623 568 CURVE",
"623 543 LINE"
);
},
{
closed = 1;
nodes = (
"395 -159 OFFCURVE",
"413 -140 OFFCURVE",
"413 -112 CURVE SMOOTH",
"413 -84 OFFCURVE",
"395 -64 OFFCURVE",
"367 -64 CURVE SMOOTH",
"339 -64 OFFCURVE",
"320 -84 OFFCURVE",
"320 -112 CURVE SMOOTH",
"320 -140 OFFCURVE",
"339 -159 OFFCURVE",
"367 -159 CURVE SMOOTH"
);
}
);
};
components = (
{
name = dotbelowcomb;
transform = "{1, 0, 0, 1, 629, 0}";
},
{
name = Ohorn;
}
);
layerId = "0B1DFD06-3317-40CA-B510-4969A0718C16";
width = 755;
}
);
leftKerningGroup = O;
note = Ohorndotbelow;
rightKerningGroup = O;
unicode = 1EE2;
},
{
glyphname = Ohorngrave;
lastChange = "2017-12-19 04:01:29 +0000";
layers = (
{
background = {
paths = (
{
closed = 1;
nodes = (
"602 -10 OFFCURVE",
"720 124 OFFCURVE",
"720 350 CURVE SMOOTH",
"720 574 OFFCURVE",
"602 710 OFFCURVE",
"379 710 CURVE SMOOTH",
"155 710 OFFCURVE",
"37 574 OFFCURVE",
"37 350 CURVE SMOOTH",
"37 124 OFFCURVE",
"155 -10 OFFCURVE",
"379 -10 CURVE SMOOTH"
);
},
{
closed = 1;
nodes = (
"216 32 OFFCURVE",
"136 158 OFFCURVE",
"136 350 CURVE SMOOTH",
"136 541 OFFCURVE",
"216 668 OFFCURVE",
"378 668 CURVE SMOOTH",
"542 668 OFFCURVE",
"621 541 OFFCURVE",
"621 350 CURVE SMOOTH",
"621 158 OFFCURVE",
"542 32 OFFCURVE",
"378 32 CURVE SMOOTH"
);
},
{
closed = 1;
nodes = (
"464 816 LINE",
"349 922 LINE",
"340 931 OFFCURVE",
"324 946 OFFCURVE",
"304 946 CURVE SMOOTH",
"284 946 OFFCURVE",
"272 933 OFFCURVE",
"272 917 CURVE SMOOTH",
"272 899 OFFCURVE",
"284 885 OFFCURVE",
"303 874 CURVE SMOOTH",
"446 791 LINE"
);
},
{
closed = 1;
nodes = (
"691 567 OFFCURVE",
"756 632 OFFCURVE",
"756 705 CURVE SMOOTH",
"756 752 OFFCURVE",
"729 772 OFFCURVE",
"701 772 CURVE SMOOTH",
"672 772 OFFCURVE",
"656 752 OFFCURVE",
"656 729 CURVE SMOOTH",
"656 695 OFFCURVE",
"689 688 OFFCURVE",
"689 653 CURVE SMOOTH",
"689 617 OFFCURVE",
"658 588 OFFCURVE",
"623 568 CURVE",
"623 543 LINE"
);
}
);
};
components = (
{
name = grave;
transform = "{1, 0, 0, 1, 132, 230}";
},
{
name = Ohorn;
}
);
layerId = "0B1DFD06-3317-40CA-B510-4969A0718C16";
width = 755;
}
);
leftKerningGroup = O;
note = Ohorngrave;
rightKerningGroup = O;
unicode = 1EDC;
},
{
glyphname = Ohornhookabove;
lastChange = "2017-12-19 04:01:32 +0000";
layers = (
{
background = {
paths = (
{
closed = 1;
nodes = (
"602 -10 OFFCURVE",
"720 124 OFFCURVE",
"720 350 CURVE SMOOTH",
"720 574 OFFCURVE",
"602 710 OFFCURVE",
"379 710 CURVE SMOOTH",
"155 710 OFFCURVE",
"37 574 OFFCURVE",
"37 350 CURVE SMOOTH",
"37 124 OFFCURVE",
"155 -10 OFFCURVE",
"379 -10 CURVE SMOOTH"
);
},
{
closed = 1;
nodes = (
"216 32 OFFCURVE",
"136 158 OFFCURVE",
"136 350 CURVE SMOOTH",
"136 541 OFFCURVE",
"216 668 OFFCURVE",
"378 668 CURVE SMOOTH",
"542 668 OFFCURVE",
"621 541 OFFCURVE",
"621 350 CURVE SMOOTH",
"621 158 OFFCURVE",
"542 32 OFFCURVE",
"378 32 CURVE SMOOTH"
);
},
{
closed = 1;
nodes = (
"412 809 LINE",
"393 816 OFFCURVE",
"381 822 OFFCURVE",
"381 839 CURVE SMOOTH",
"381 872 OFFCURVE",
"470 887 OFFCURVE",
"470 938 CURVE SMOOTH",
"470 980 OFFCURVE",
"434 1002 OFFCURVE",
"381 1002 CURVE SMOOTH",
"334 1002 OFFCURVE",
"293 985 OFFCURVE",
"293 951 CURVE SMOOTH",
"293 934 OFFCURVE",
"301 926 OFFCURVE",
"316 926 CURVE SMOOTH",
"339 926 OFFCURVE",
"341 945 OFFCURVE",
"344 953 CURVE SMOOTH",
"349 967 OFFCURVE",
"366 973 OFFCURVE",
"382 973 CURVE SMOOTH",
"403 973 OFFCURVE",
"416 958 OFFCURVE",
"416 941 CURVE SMOOTH",
"416 896 OFFCURVE",
"334 885 OFFCURVE",
"334 839 CURVE SMOOTH",
"334 812 OFFCURVE",
"352 789 OFFCURVE",
"403 789 CURVE"
);
},
{
closed = 1;
nodes = (
"691 567 OFFCURVE",
"756 632 OFFCURVE",
"756 705 CURVE SMOOTH",
"756 752 OFFCURVE",
"729 772 OFFCURVE",
"701 772 CURVE SMOOTH",
"672 772 OFFCURVE",
"656 752 OFFCURVE",
"656 729 CURVE SMOOTH",
"656 695 OFFCURVE",
"689 688 OFFCURVE",
"689 653 CURVE SMOOTH",
"689 617 OFFCURVE",
"658 588 OFFCURVE",
"623 568 CURVE",
"623 543 LINE"
);
}
);
};
components = (
{
name = hookabovecomb;
transform = "{1, 0, 0, 1, 629, 230}";
},
{
name = Ohorn;
}
);
layerId = "0B1DFD06-3317-40CA-B510-4969A0718C16";
width = 755;
}
);
leftKerningGroup = O;
note = Ohornhookabove;
rightKerningGroup = O;
unicode = 1EDE;
},
{
glyphname = Ohorntilde;
lastChange = "2017-12-19 04:01:34 +0000";
layers = (
{
background = {
paths = (
{
closed = 1;
nodes = (
"602 -10 OFFCURVE",
"720 124 OFFCURVE",
"720 350 CURVE SMOOTH",
"720 574 OFFCURVE",
"602 710 OFFCURVE",
"379 710 CURVE SMOOTH",
"155 710 OFFCURVE",
"37 574 OFFCURVE",
"37 350 CURVE SMOOTH",
"37 124 OFFCURVE",
"155 -10 OFFCURVE",
"379 -10 CURVE SMOOTH"
);
},
{
closed = 1;
nodes = (
"216 32 OFFCURVE",
"136 158 OFFCURVE",
"136 350 CURVE SMOOTH",
"136 541 OFFCURVE",
"216 668 OFFCURVE",
"378 668 CURVE SMOOTH",
"542 668 OFFCURVE",
"621 541 OFFCURVE",
"621 350 CURVE SMOOTH",
"621 158 OFFCURVE",
"542 32 OFFCURVE",
"378 32 CURVE SMOOTH"
);
},
{
closed = 1;
nodes = (
"234 828 OFFCURVE",
"252 849 OFFCURVE",
"285 849 CURVE SMOOTH",
"336 849 OFFCURVE",
"385 795 OFFCURVE",
"436 795 CURVE SMOOTH",
"494 795 OFFCURVE",
"524 843 OFFCURVE",
"536 895 CURVE",
"515 906 LINE",
"499 866 OFFCURVE",
"483 844 OFFCURVE",
"449 844 CURVE SMOOTH",
"400 844 OFFCURVE",
"348 897 OFFCURVE",
"297 897 CURVE SMOOTH",
"243 897 OFFCURVE",
"210 853 OFFCURVE",
"198 801 CURVE",
"220 790 LINE"
);
},
{
closed = 1;
nodes = (
"691 567 OFFCURVE",
"756 632 OFFCURVE",
"756 705 CURVE SMOOTH",
"756 752 OFFCURVE",
"729 772 OFFCURVE",
"701 772 CURVE SMOOTH",
"672 772 OFFCURVE",
"656 752 OFFCURVE",
"656 729 CURVE SMOOTH",
"656 695 OFFCURVE",
"689 688 OFFCURVE",
"689 653 CURVE SMOOTH",
"689 617 OFFCURVE",
"658 588 OFFCURVE",
"623 568 CURVE",
"623 543 LINE"
);
}
);
};
components = (
{
name = tilde;
transform = "{1, 0, 0, 1, 132, 230}";
},
{
name = Ohorn;
}
);
layerId = "0B1DFD06-3317-40CA-B510-4969A0718C16";
width = 755;
}
);
leftKerningGroup = O;
note = Ohorntilde;
rightKerningGroup = O;
unicode = 1EE0;
},
{
glyphname = Ohungarumlaut;
lastChange = "2017-12-18 08:30:49 +0000";
layers = (
{
background = {
paths = (
{
closed = 1;
nodes = (
"601 -10 OFFCURVE",
"719 124 OFFCURVE",
"719 350 CURVE SMOOTH",
"719 574 OFFCURVE",
"601 710 OFFCURVE",
"378 710 CURVE SMOOTH",
"154 710 OFFCURVE",
"36 574 OFFCURVE",
"36 350 CURVE SMOOTH",
"36 124 OFFCURVE",
"154 -10 OFFCURVE",
"378 -10 CURVE SMOOTH"
);
},
{
closed = 1;
nodes = (
"215 32 OFFCURVE",
"135 158 OFFCURVE",
"135 350 CURVE SMOOTH",
"135 541 OFFCURVE",
"215 668 OFFCURVE",
"377 668 CURVE SMOOTH",
"541 668 OFFCURVE",
"620 541 OFFCURVE",
"620 350 CURVE SMOOTH",
"620 158 OFFCURVE",
"541 32 OFFCURVE",
"377 32 CURVE SMOOTH"
);
},
{
closed = 1;
nodes = (
"395 864 LINE SMOOTH",
"417 877 OFFCURVE",
"429 891 OFFCURVE",
"429 908 CURVE SMOOTH",
"429 922 OFFCURVE",
"421 937 OFFCURVE",
"399 937 CURVE SMOOTH",
"378 937 OFFCURVE",
"357 919 OFFCURVE",
"350 913 CURVE",
"236 807 LINE",
"253 782 LINE"
);
},
{
closed = 1;
nodes = (
"556 864 LINE SMOOTH",
"577 877 OFFCURVE",
"589 891 OFFCURVE",
"589 908 CURVE SMOOTH",
"589 922 OFFCURVE",
"578 937 OFFCURVE",
"556 937 CURVE SMOOTH",
"534 937 OFFCURVE",
"517 919 OFFCURVE",
"510 913 CURVE",
"396 807 LINE",
"414 782 LINE"
);
}
);
};
components = (
{
name = O;
},
{
name = hungarumlaut;
transform = "{1, 0, 0, 1, 131, 230}";
}
);
layerId = "0B1DFD06-3317-40CA-B510-4969A0718C16";
width = 755;
}
);
leftKerningGroup = O;
note = Ohungarumlaut;
rightKerningGroup = O;
unicode = 0150;
},
{
glyphname = Omacron;
lastChange = "2017-12-18 08:30:49 +0000";
layers = (
{
background = {
paths = (
{
closed = 1;
nodes = (
"601 -10 OFFCURVE",
"719 124 OFFCURVE",
"719 350 CURVE SMOOTH",
"719 574 OFFCURVE",
"601 710 OFFCURVE",
"378 710 CURVE SMOOTH",
"154 710 OFFCURVE",
"36 574 OFFCURVE",
"36 350 CURVE SMOOTH",
"36 124 OFFCURVE",
"154 -10 OFFCURVE",
"378 -10 CURVE SMOOTH"
);
},
{
closed = 1;
nodes = (
"215 32 OFFCURVE",
"135 158 OFFCURVE",
"135 350 CURVE SMOOTH",
"135 541 OFFCURVE",
"215 668 OFFCURVE",
"377 668 CURVE SMOOTH",
"541 668 OFFCURVE",
"620 541 OFFCURVE",
"620 350 CURVE SMOOTH",
"620 158 OFFCURVE",
"541 32 OFFCURVE",
"377 32 CURVE SMOOTH"
);
},
{
closed = 1;
nodes = (
"543 793 LINE",
"543 835 LINE",
"210 835 LINE",
"210 793 LINE"
);
}
);
};
components = (
{
name = O;
},
{
name = macron;
transform = "{1, 0, 0, 1, 132, 230}";
}
);
layerId = "0B1DFD06-3317-40CA-B510-4969A0718C16";
width = 755;
}
);
leftKerningGroup = O;
note = Omacron;
rightKerningGroup = O;
unicode = 014C;
},
{
glyphname = Oslash;
lastChange = "2018-01-16 07:49:44 +0000";
layers = (
{
layerId = "0B1DFD06-3317-40CA-B510-4969A0718C16";
paths = (
{
closed = 1;
nodes = (
"616 -9 OFFCURVE",
"777 150 OFFCURVE",
"777 349 CURVE SMOOTH",
"777 548 OFFCURVE",
"616 709 OFFCURVE",
"417 709 CURVE SMOOTH",
"218 709 OFFCURVE",
"59 548 OFFCURVE",
"59 349 CURVE SMOOTH",
"59 150 OFFCURVE",
"218 -9 OFFCURVE",
"417 -9 CURVE SMOOTH"
);
},
{
closed = 1;
nodes = (
"228 -46 OFFCURVE",
"252 -38 OFFCURVE",
"268 -6 CURVE SMOOTH",
"638 730 LINE",
"606 746 OFFCURVE",
"582 737 OFFCURVE",
"567 706 CURVE SMOOTH",
"198 -29 LINE"
);
},
{
closed = 1;
nodes = (
"251 44 OFFCURVE",
"118 180 OFFCURVE",
"118 349 CURVE SMOOTH",
"118 519 OFFCURVE",
"251 656 OFFCURVE",
"417 656 CURVE SMOOTH",
"584 656 OFFCURVE",
"718 519 OFFCURVE",
"718 349 CURVE SMOOTH",
"718 180 OFFCURVE",
"584 44 OFFCURVE",
"417 44 CURVE SMOOTH"
);
}
);
width = 836;
}
);
note = Oslash;
unicode = 00D8;
},
{
glyphname = OE;
lastChange = "2018-01-16 07:49:44 +0000";
layers = (
{
layerId = "0B1DFD06-3317-40CA-B510-4969A0718C16";
paths = (
{
closed = 1;
nodes = (
"447 -9 OFFCURVE",
"550 37 OFFCURVE",
"597 115 CURVE",
"647 35 OFFCURVE",
"750 -9 OFFCURVE",
"843 -9 CURVE SMOOTH",
"964 -9 OFFCURVE",
"1094 62 OFFCURVE",
"1116 180 CURVE SMOOTH",
"1126 231 OFFCURVE",
"1091 251 OFFCURVE",
"1060 251 CURVE",
"1061 240 OFFCURVE",
"1061 230 OFFCURVE",
"1061 221 CURVE SMOOTH",
"1061 125 OFFCURVE",
"965 44 OFFCURVE",
"843 44 CURVE SMOOTH",
"722 44 OFFCURVE",
"626 125 OFFCURVE",
"626 221 CURVE SMOOTH",
"626 324 LINE",
"865 324 LINE SMOOTH",
"901 324 OFFCURVE",
"918 342 OFFCURVE",
"918 377 CURVE",
"626 377 LINE",
"626 481 LINE SMOOTH",
"626 576 OFFCURVE",
"722 656 OFFCURVE",
"843 656 CURVE SMOOTH",
"965 656 OFFCURVE",
"1061 576 OFFCURVE",
"1061 481 CURVE SMOOTH",
"1061 472 OFFCURVE",
"1061 461 OFFCURVE",
"1060 451 CURVE",
"1091 451 OFFCURVE",
"1128 470 OFFCURVE",
"1116 523 CURVE SMOOTH",
"1086 649 OFFCURVE",
"960 709 OFFCURVE",
"843 709 CURVE SMOOTH",
"747 709 OFFCURVE",
"646 662 OFFCURVE",
"597 584 CURVE",
"547 668 OFFCURVE",
"445 709 OFFCURVE",
"349 709 CURVE SMOOTH",
"217 709 OFFCURVE",
"74 621 OFFCURVE",
"74 481 CURVE SMOOTH",
"74 221 LINE SMOOTH",
"74 75 OFFCURVE",
"221 -9 OFFCURVE",
"349 -9 CURVE SMOOTH"
);
},
{
closed = 1;
nodes = (
"228 44 OFFCURVE",
"133 125 OFFCURVE",
"133 221 CURVE SMOOTH",
"133 481 LINE SMOOTH",
"133 576 OFFCURVE",
"228 656 OFFCURVE",
"349 656 CURVE SMOOTH",
"472 656 OFFCURVE",
"567 576 OFFCURVE",
"567 481 CURVE SMOOTH",
"567 221 LINE SMOOTH",
"567 125 OFFCURVE",
"472 44 OFFCURVE",
"349 44 CURVE SMOOTH"
);
}
);
width = 1178;
}
);
note = OE;
unicode = 0152;
},
{
glyphname = Thorn;
lastChange = "2018-01-16 07:49:44 +0000";
layers = (
{
layerId = "0B1DFD06-3317-40CA-B510-4969A0718C16";
paths = (
{
closed = 1;
nodes = (
"124 -9 OFFCURVE",
"146 12 OFFCURVE",
"146 49 CURVE SMOOTH",
"146 177 LINE",
"175 171 OFFCURVE",
"214 171 OFFCURVE",
"243 171 CURVE SMOOTH",
"413 171 OFFCURVE",
"528 256 OFFCURVE",
"528 394 CURVE SMOOTH",
"528 442 OFFCURVE",
"507 489 OFFCURVE",
"470 523 CURVE SMOOTH",
"426 565 OFFCURVE",
"361 585 OFFCURVE",
"270 585 CURVE SMOOTH",
"236 585 OFFCURVE",
"186 584 OFFCURVE",
"146 575 CURVE",
"146 708 LINE",
"111 708 OFFCURVE",
"88 685 OFFCURVE",
"88 650 CURVE SMOOTH",
"88 -9 LINE"
);
},
{
closed = 1;
nodes = (
"215 221 OFFCURVE",
"181 223 OFFCURVE",
"146 230 CURVE",
"146 523 LINE",
"170 531 OFFCURVE",
"218 537 OFFCURVE",
"270 537 CURVE SMOOTH",
"376 537 OFFCURVE",
"470 500 OFFCURVE",
"470 386 CURVE SMOOTH",
"470 283 OFFCURVE",
"391 221 OFFCURVE",
"246 221 CURVE SMOOTH"
);
}
);
width = 582;
}
);
note = Thorn;
unicode = 00DE;
},
{
color = 0;
glyphname = Germandbls;
lastChange = "2017-12-19 04:02:12 +0000";
layers = (
{
layerId = "0B1DFD06-3317-40CA-B510-4969A0718C16";
paths = (
{
closed = 1;
nodes = (
"606 -10 OFFCURVE",
"674 88 OFFCURVE",
"674 203 CURVE SMOOTH",
"674 313 OFFCURVE",
"592 385 OFFCURVE",
"445 398 CURVE",
"591 553 LINE",
"569 627 OFFCURVE",
"489 710 OFFCURVE",
"354 710 CURVE SMOOTH",
"177 710 OFFCURVE",
"92 616 OFFCURVE",
"92 470 CURVE SMOOTH",
"92 62 LINE SMOOTH",
"92 37 OFFCURVE",
"72 26 OFFCURVE",
"33 26 CURVE SMOOTH",
"5 26 LINE",
"5 0 LINE",
"255 0 LINE",
"255 26 LINE",
"227 26 LINE SMOOTH",
"202 26 OFFCURVE",
"188 44 OFFCURVE",
"188 63 CURVE SMOOTH",
"188 495 LINE SMOOTH",
"188 602 OFFCURVE",
"246 668 OFFCURVE",
"347 668 CURVE SMOOTH",
"431 668 OFFCURVE",
"479 617 OFFCURVE",
"499 555 CURVE",
"344 387 LINE",
"344 361 LINE",
"406 361 LINE SMOOTH",
"520 361 OFFCURVE",
"578 296 OFFCURVE",
"578 203 CURVE SMOOTH",
"578 100 OFFCURVE",
"521 29 OFFCURVE",
"419 29 CURVE SMOOTH",
"374 29 OFFCURVE",
"324 37 OFFCURVE",
"277 56 CURVE",
"277 14 LINE",
"318 -2 OFFCURVE",
"367 -10 OFFCURVE",
"423 -10 CURVE SMOOTH"
);
}
);
width = 703;
}
);
note = uni1E9E;
unicode = 1E9E;
},
{
color = 0;
glyphname = Schwa;
lastChange = "2017-12-19 04:02:12 +0000";
layers = (
{
layerId = "0B1DFD06-3317-40CA-B510-4969A0718C16";
paths = (
{
closed = 1;
nodes = (
"543 -10 OFFCURVE",
"658 120 OFFCURVE",
"658 346 CURVE SMOOTH",
"658 569 OFFCURVE",
"533 710 OFFCURVE",
"323 710 CURVE SMOOTH",
"160 710 OFFCURVE",
"56 618 OFFCURVE",
"41 500 CURVE",
"84 500 LINE",
"111 616 OFFCURVE",
"202 660 OFFCURVE",
"298 660 CURVE SMOOTH",
"479 660 OFFCURVE",
"559 515 OFFCURVE",
"559 341 CURVE SMOOTH",
"559 185 OFFCURVE",
"486 39 OFFCURVE",
"327 39 CURVE SMOOTH",
"181 39 OFFCURVE",
"133 180 OFFCURVE",
"132 283 CURVE",
"573 283 LINE",
"573 333 LINE",
"33 333 LINE",
"33 303 LINE SMOOTH",
"33 132 OFFCURVE",
"119 -10 OFFCURVE",
"330 -10 CURVE SMOOTH"
);
}
);
width = 692;
}
);
note = uni018F;
unicode = 018F;
},
{
glyphname = Tbar;
lastChange = "2017-12-18 08:47:22 +0000";
layers = (
{
components = (
{
name = T;
}
);
layerId = "0B1DFD06-3317-40CA-B510-4969A0718C16";
paths = (
{
closed = 1;
nodes = (
"520 317 LINE",
"520 363 LINE",
"134 363 LINE",
"134 317 LINE"
);
}
);
width = 652;
}
);
leftKerningGroup = T;
note = Tbar;
rightKerningGroup = T;
unicode = 0166;
},
{
glyphname = Uacute;
lastChange = "2017-12-18 08:53:01 +0000";
layers = (
{
background = {
paths = (
{
closed = 1;
nodes = (
"539 -10 OFFCURVE",
"636 51 OFFCURVE",
"636 204 CURVE SMOOTH",
"636 637 LINE SMOOTH",
"636 662 OFFCURVE",
"660 673 OFFCURVE",
"690 673 CURVE SMOOTH",
"713 673 LINE",
"713 700 LINE",
"510 700 LINE",
"510 673 LINE",
"532 673 LINE SMOOTH",
"564 673 OFFCURVE",
"586 662 OFFCURVE",
"586 637 CURVE SMOOTH",
"586 197 LINE SMOOTH",
"586 65 OFFCURVE",
"489 31 OFFCURVE",
"397 31 CURVE SMOOTH",
"290 31 OFFCURVE",
"203 63 OFFCURVE",
"203 197 CURVE SMOOTH",
"203 637 LINE SMOOTH",
"203 662 OFFCURVE",
"226 673 OFFCURVE",
"257 673 CURVE SMOOTH",
"280 673 LINE",
"280 700 LINE",
"28 700 LINE",
"28 673 LINE",
"51 673 LINE SMOOTH",
"82 673 OFFCURVE",
"105 662 OFFCURVE",
"105 637 CURVE SMOOTH",
"105 204 LINE SMOOTH",
"105 46 OFFCURVE",
"208 -10 OFFCURVE",
"375 -10 CURVE SMOOTH"
);
},
{
closed = 1;
nodes = (
"447 865 LINE SMOOTH",
"469 877 OFFCURVE",
"481 890 OFFCURVE",
"481 907 CURVE SMOOTH",
"481 922 OFFCURVE",
"469 937 OFFCURVE",
"447 937 CURVE SMOOTH",
"426 937 OFFCURVE",
"411 921 OFFCURVE",
"403 914 CURVE SMOOTH",
"288 807 LINE",
"305 782 LINE"
);
}
);
};
components = (
{
name = U;
},
{
name = acute;
transform = "{1, 0, 0, 1, 136, 230}";
}
);
layerId = "0B1DFD06-3317-40CA-B510-4969A0718C16";
width = 742;
}
);
leftKerningGroup = U;
note = Uacute;
rightKerningGroup = U;
unicode = 00DA;
},
{
glyphname = Ubreve;
lastChange = "2017-12-18 08:53:01 +0000";
layers = (
{
background = {
paths = (
{
closed = 1;
nodes = (
"539 -10 OFFCURVE",
"636 51 OFFCURVE",
"636 204 CURVE SMOOTH",
"636 637 LINE SMOOTH",
"636 662 OFFCURVE",
"660 673 OFFCURVE",
"690 673 CURVE SMOOTH",
"713 673 LINE",
"713 700 LINE",
"510 700 LINE",
"510 673 LINE",
"532 673 LINE SMOOTH",
"564 673 OFFCURVE",
"586 662 OFFCURVE",
"586 637 CURVE SMOOTH",
"586 197 LINE SMOOTH",
"586 65 OFFCURVE",
"489 31 OFFCURVE",
"397 31 CURVE SMOOTH",
"290 31 OFFCURVE",
"203 63 OFFCURVE",
"203 197 CURVE SMOOTH",
"203 637 LINE SMOOTH",
"203 662 OFFCURVE",
"226 673 OFFCURVE",
"257 673 CURVE SMOOTH",
"280 673 LINE",
"280 700 LINE",
"28 700 LINE",
"28 673 LINE",
"51 673 LINE SMOOTH",
"82 673 OFFCURVE",
"105 662 OFFCURVE",
"105 637 CURVE SMOOTH",
"105 204 LINE SMOOTH",
"105 46 OFFCURVE",
"208 -10 OFFCURVE",
"375 -10 CURVE SMOOTH"
);
},
{
closed = 1;
nodes = (
"483 774 OFFCURVE",
"525 830 OFFCURVE",
"529 905 CURVE",
"496 905 LINE",
"490 846 OFFCURVE",
"448 820 OFFCURVE",
"384 820 CURVE SMOOTH",
"320 820 OFFCURVE",
"277 846 OFFCURVE",
"270 905 CURVE",
"237 905 LINE",
"241 827 OFFCURVE",
"283 774 OFFCURVE",
"384 774 CURVE SMOOTH"
);
}
);
};
components = (
{
name = U;
},
{
name = breve;
transform = "{1, 0, 0, 1, 148, 230}";
}
);
layerId = "0B1DFD06-3317-40CA-B510-4969A0718C16";
width = 742;
}
);
leftKerningGroup = U;
note = Ubreve;
rightKerningGroup = U;
unicode = 016C;
},
{
glyphname = Ucaron;
lastChange = "2017-12-18 08:53:01 +0000";
layers = (
{
background = {
paths = (
{
closed = 1;
nodes = (
"539 -10 OFFCURVE",
"636 51 OFFCURVE",
"636 204 CURVE SMOOTH",
"636 637 LINE SMOOTH",
"636 662 OFFCURVE",
"660 673 OFFCURVE",
"690 673 CURVE SMOOTH",
"713 673 LINE",
"713 700 LINE",
"510 700 LINE",
"510 673 LINE",
"532 673 LINE SMOOTH",
"564 673 OFFCURVE",
"586 662 OFFCURVE",
"586 637 CURVE SMOOTH",
"586 197 LINE SMOOTH",
"586 65 OFFCURVE",
"489 31 OFFCURVE",
"397 31 CURVE SMOOTH",
"290 31 OFFCURVE",
"203 63 OFFCURVE",
"203 197 CURVE SMOOTH",
"203 637 LINE SMOOTH",
"203 662 OFFCURVE",
"226 673 OFFCURVE",
"257 673 CURVE SMOOTH",
"280 673 LINE",
"280 700 LINE",
"28 700 LINE",
"28 673 LINE",
"51 673 LINE SMOOTH",
"82 673 OFFCURVE",
"105 662 OFFCURVE",
"105 637 CURVE SMOOTH",
"105 204 LINE SMOOTH",
"105 46 OFFCURVE",
"208 -10 OFFCURVE",
"375 -10 CURVE SMOOTH"
);
},
{
closed = 1;
nodes = (
"397 782 LINE",
"521 911 LINE",
"502 932 LINE",
"394 847 LINE",
"386 840 OFFCURVE",
"377 836 OFFCURVE",
"371 836 CURVE SMOOTH",
"365 836 OFFCURVE",
"357 840 OFFCURVE",
"347 847 CURVE",
"239 932 LINE",
"220 911 LINE",
"344 782 LINE"
);
}
);
};
components = (
{
name = U;
},
{
name = caron;
transform = "{1, 0, 0, 1, 148, 230}";
}
);
layerId = "0B1DFD06-3317-40CA-B510-4969A0718C16";
width = 742;
}
);
leftKerningGroup = U;
note = Ucaron;
rightKerningGroup = U;
unicode = 01D3;
},
{
glyphname = Ucircumflex;
lastChange = "2017-12-18 08:53:01 +0000";
layers = (
{
background = {
paths = (
{
closed = 1;
nodes = (
"539 -10 OFFCURVE",
"636 51 OFFCURVE",
"636 204 CURVE SMOOTH",
"636 637 LINE SMOOTH",
"636 662 OFFCURVE",
"660 673 OFFCURVE",
"690 673 CURVE SMOOTH",
"713 673 LINE",
"713 700 LINE",
"510 700 LINE",
"510 673 LINE",
"532 673 LINE SMOOTH",
"564 673 OFFCURVE",
"586 662 OFFCURVE",
"586 637 CURVE SMOOTH",
"586 197 LINE SMOOTH",
"586 65 OFFCURVE",
"489 31 OFFCURVE",
"397 31 CURVE SMOOTH",
"290 31 OFFCURVE",
"203 63 OFFCURVE",
"203 197 CURVE SMOOTH",
"203 637 LINE SMOOTH",
"203 662 OFFCURVE",
"226 673 OFFCURVE",
"257 673 CURVE SMOOTH",
"280 673 LINE",
"280 700 LINE",
"28 700 LINE",
"28 673 LINE",
"51 673 LINE SMOOTH",
"82 673 OFFCURVE",
"105 662 OFFCURVE",
"105 637 CURVE SMOOTH",
"105 204 LINE SMOOTH",
"105 46 OFFCURVE",
"208 -10 OFFCURVE",
"375 -10 CURVE SMOOTH"
);
},
{
closed = 1;
nodes = (
"360 868 LINE SMOOTH",
"368 874 OFFCURVE",
"378 879 OFFCURVE",
"384 879 CURVE SMOOTH",
"390 879 OFFCURVE",
"398 874 OFFCURVE",
"407 868 CURVE",
"515 782 LINE",
"534 803 LINE",
"410 932 LINE",
"357 932 LINE",
"233 803 LINE",
"252 782 LINE"
);
}
);
};
components = (
{
name = U;
},
{
name = circumflex;
transform = "{1, 0, 0, 1, 148, 230}";
}
);
layerId = "0B1DFD06-3317-40CA-B510-4969A0718C16";
width = 742;
}
);
leftKerningGroup = U;
note = Ucircumflex;
rightKerningGroup = U;
unicode = 00DB;
},
{
glyphname = Udieresis;
lastChange = "2017-12-18 08:53:01 +0000";
layers = (
{
background = {
paths = (
{
closed = 1;
nodes = (
"539 -10 OFFCURVE",
"636 51 OFFCURVE",
"636 204 CURVE SMOOTH",
"636 637 LINE SMOOTH",
"636 662 OFFCURVE",
"660 673 OFFCURVE",
"690 673 CURVE SMOOTH",
"713 673 LINE",
"713 700 LINE",
"510 700 LINE",
"510 673 LINE",
"532 673 LINE SMOOTH",
"564 673 OFFCURVE",
"586 662 OFFCURVE",
"586 637 CURVE SMOOTH",
"586 197 LINE SMOOTH",
"586 65 OFFCURVE",
"489 31 OFFCURVE",
"397 31 CURVE SMOOTH",
"290 31 OFFCURVE",
"203 63 OFFCURVE",
"203 197 CURVE SMOOTH",
"203 637 LINE SMOOTH",
"203 662 OFFCURVE",
"226 673 OFFCURVE",
"257 673 CURVE SMOOTH",
"280 673 LINE",
"280 700 LINE",
"28 700 LINE",
"28 673 LINE",
"51 673 LINE SMOOTH",
"82 673 OFFCURVE",
"105 662 OFFCURVE",
"105 637 CURVE SMOOTH",
"105 204 LINE SMOOTH",
"105 46 OFFCURVE",
"208 -10 OFFCURVE",
"375 -10 CURVE SMOOTH"
);
},
{
closed = 1;
nodes = (
"304 781 OFFCURVE",
"322 800 OFFCURVE",
"322 827 CURVE SMOOTH",
"322 855 OFFCURVE",
"304 875 OFFCURVE",
"275 875 CURVE SMOOTH",
"247 875 OFFCURVE",
"229 855 OFFCURVE",
"229 827 CURVE SMOOTH",
"229 800 OFFCURVE",
"247 781 OFFCURVE",
"275 781 CURVE SMOOTH"
);
},
{
closed = 1;
nodes = (
"520 781 OFFCURVE",
"538 800 OFFCURVE",
"538 827 CURVE SMOOTH",
"538 855 OFFCURVE",
"520 875 OFFCURVE",
"491 875 CURVE SMOOTH",
"462 875 OFFCURVE",
"444 855 OFFCURVE",
"444 827 CURVE SMOOTH",
"444 800 OFFCURVE",
"462 781 OFFCURVE",
"491 781 CURVE SMOOTH"
);
}
);
};
components = (
{
name = U;
},
{
name = dieresis;
transform = "{1, 0, 0, 1, 148, 230}";
}
);
layerId = "0B1DFD06-3317-40CA-B510-4969A0718C16";
width = 742;
}
);
leftKerningGroup = U;
note = Udieresis;
rightKerningGroup = U;
unicode = 00DC;
},
{
glyphname = Udieresisacute;
lastChange = "2017-12-18 08:53:01 +0000";
layers = (
{
background = {
paths = (
{
closed = 1;
nodes = (
"539 -10 OFFCURVE",
"636 51 OFFCURVE",
"636 204 CURVE SMOOTH",
"636 637 LINE SMOOTH",
"636 662 OFFCURVE",
"660 673 OFFCURVE",
"690 673 CURVE SMOOTH",
"713 673 LINE",
"713 700 LINE",
"510 700 LINE",
"510 673 LINE",
"532 673 LINE SMOOTH",
"564 673 OFFCURVE",
"586 662 OFFCURVE",
"586 637 CURVE SMOOTH",
"586 197 LINE SMOOTH",
"586 65 OFFCURVE",
"489 31 OFFCURVE",
"397 31 CURVE SMOOTH",
"290 31 OFFCURVE",
"203 63 OFFCURVE",
"203 197 CURVE SMOOTH",
"203 637 LINE SMOOTH",
"203 662 OFFCURVE",
"226 673 OFFCURVE",
"257 673 CURVE SMOOTH",
"280 673 LINE",
"280 700 LINE",
"28 700 LINE",
"28 673 LINE",
"51 673 LINE SMOOTH",
"82 673 OFFCURVE",
"105 662 OFFCURVE",
"105 637 CURVE SMOOTH",
"105 204 LINE SMOOTH",
"105 46 OFFCURVE",
"208 -10 OFFCURVE",
"375 -10 CURVE SMOOTH"
);
},
{
closed = 1;
nodes = (
"291 780 OFFCURVE",
"310 799 OFFCURVE",
"310 827 CURVE SMOOTH",
"310 855 OFFCURVE",
"291 875 OFFCURVE",
"262 875 CURVE SMOOTH",
"235 875 OFFCURVE",
"216 855 OFFCURVE",
"216 827 CURVE SMOOTH",
"216 799 OFFCURVE",
"235 780 OFFCURVE",
"262 780 CURVE SMOOTH"
);
},
{
closed = 1;
nodes = (
"507 780 OFFCURVE",
"526 799 OFFCURVE",
"526 827 CURVE SMOOTH",
"526 855 OFFCURVE",
"507 875 OFFCURVE",
"479 875 CURVE SMOOTH",
"451 875 OFFCURVE",
"432 855 OFFCURVE",
"432 827 CURVE SMOOTH",
"432 799 OFFCURVE",
"451 780 OFFCURVE",
"479 780 CURVE SMOOTH"
);
},
{
closed = 1;
nodes = (
"481 969 LINE SMOOTH",
"502 981 OFFCURVE",
"512 993 OFFCURVE",
"512 1009 CURVE SMOOTH",
"512 1024 OFFCURVE",
"503 1037 OFFCURVE",
"481 1037 CURVE SMOOTH",
"460 1037 OFFCURVE",
"442 1020 OFFCURVE",
"435 1013 CURVE SMOOTH",
"344 924 LINE",
"362 899 LINE"
);
}
);
};
components = (
{
name = U;
},
{
name = dieresisacute;
transform = "{1, 0, 0, 1, 149, 230}";
}
);
layerId = "0B1DFD06-3317-40CA-B510-4969A0718C16";
width = 742;
}
);
leftKerningGroup = U;
note = Udieresisacute;
rightKerningGroup = U;
unicode = 01D7;
},
{
glyphname = Udieresiscaron;
lastChange = "2017-12-18 08:53:01 +0000";
layers = (
{
background = {
paths = (
{
closed = 1;
nodes = (
"539 -10 OFFCURVE",
"636 51 OFFCURVE",
"636 204 CURVE SMOOTH",
"636 637 LINE SMOOTH",
"636 662 OFFCURVE",
"660 673 OFFCURVE",
"690 673 CURVE SMOOTH",
"713 673 LINE",
"713 700 LINE",
"510 700 LINE",
"510 673 LINE",
"532 673 LINE SMOOTH",
"564 673 OFFCURVE",
"586 662 OFFCURVE",
"586 637 CURVE SMOOTH",
"586 197 LINE SMOOTH",
"586 65 OFFCURVE",
"489 31 OFFCURVE",
"397 31 CURVE SMOOTH",
"290 31 OFFCURVE",
"203 63 OFFCURVE",
"203 197 CURVE SMOOTH",
"203 637 LINE SMOOTH",
"203 662 OFFCURVE",
"226 673 OFFCURVE",
"257 673 CURVE SMOOTH",
"280 673 LINE",
"280 700 LINE",
"28 700 LINE",
"28 673 LINE",
"51 673 LINE SMOOTH",
"82 673 OFFCURVE",
"105 662 OFFCURVE",
"105 637 CURVE SMOOTH",
"105 204 LINE SMOOTH",
"105 46 OFFCURVE",
"208 -10 OFFCURVE",
"375 -10 CURVE SMOOTH"
);
},
{
closed = 1;
nodes = (
"296 780 OFFCURVE",
"315 799 OFFCURVE",
"315 827 CURVE SMOOTH",
"315 855 OFFCURVE",
"296 875 OFFCURVE",
"267 875 CURVE SMOOTH",
"240 875 OFFCURVE",
"221 855 OFFCURVE",
"221 827 CURVE SMOOTH",
"221 799 OFFCURVE",
"240 780 OFFCURVE",
"267 780 CURVE SMOOTH"
);
},
{
closed = 1;
nodes = (
"512 780 OFFCURVE",
"531 799 OFFCURVE",
"531 827 CURVE SMOOTH",
"531 855 OFFCURVE",
"512 875 OFFCURVE",
"484 875 CURVE SMOOTH",
"456 875 OFFCURVE",
"437 855 OFFCURVE",
"437 827 CURVE SMOOTH",
"437 799 OFFCURVE",
"456 780 OFFCURVE",
"484 780 CURVE SMOOTH"
);
},
{
closed = 1;
nodes = (
"401 911 LINE",
"523 1035 LINE",
"505 1056 LINE",
"404 978 LINE",
"394 971 OFFCURVE",
"385 963 OFFCURVE",
"376 963 CURVE SMOOTH",
"369 963 OFFCURVE",
"357 971 OFFCURVE",
"347 978 CURVE",
"246 1056 LINE",
"228 1035 LINE",
"350 911 LINE"
);
}
);
};
components = (
{
name = U;
},
{
name = dieresiscaron;
transform = "{1, 0, 0, 1, 149, 230}";
}
);
layerId = "0B1DFD06-3317-40CA-B510-4969A0718C16";
width = 742;
}
);
leftKerningGroup = U;
note = Udieresiscaron;
rightKerningGroup = U;
unicode = 01D9;
},
{
glyphname = Udieresisgrave;
lastChange = "2017-12-18 08:53:01 +0000";
layers = (
{
background = {
paths = (
{
closed = 1;
nodes = (
"539 -10 OFFCURVE",
"636 51 OFFCURVE",
"636 204 CURVE SMOOTH",
"636 637 LINE SMOOTH",
"636 662 OFFCURVE",
"660 673 OFFCURVE",
"690 673 CURVE SMOOTH",
"713 673 LINE",
"713 700 LINE",
"510 700 LINE",
"510 673 LINE",
"532 673 LINE SMOOTH",
"564 673 OFFCURVE",
"586 662 OFFCURVE",
"586 637 CURVE SMOOTH",
"586 197 LINE SMOOTH",
"586 65 OFFCURVE",
"489 31 OFFCURVE",
"397 31 CURVE SMOOTH",
"290 31 OFFCURVE",
"203 63 OFFCURVE",
"203 197 CURVE SMOOTH",
"203 637 LINE SMOOTH",
"203 662 OFFCURVE",
"226 673 OFFCURVE",
"257 673 CURVE SMOOTH",
"280 673 LINE",
"280 700 LINE",
"28 700 LINE",
"28 673 LINE",
"51 673 LINE SMOOTH",
"82 673 OFFCURVE",
"105 662 OFFCURVE",
"105 637 CURVE SMOOTH",
"105 204 LINE SMOOTH",
"105 46 OFFCURVE",
"208 -10 OFFCURVE",
"375 -10 CURVE SMOOTH"
);
},
{
closed = 1;
nodes = (
"296 780 OFFCURVE",
"315 799 OFFCURVE",
"315 827 CURVE SMOOTH",
"315 855 OFFCURVE",
"296 875 OFFCURVE",
"267 875 CURVE SMOOTH",
"240 875 OFFCURVE",
"221 855 OFFCURVE",
"221 827 CURVE SMOOTH",
"221 799 OFFCURVE",
"240 780 OFFCURVE",
"267 780 CURVE SMOOTH"
);
},
{
closed = 1;
nodes = (
"403 924 LINE",
"312 1013 LINE SMOOTH",
"305 1020 OFFCURVE",
"288 1036 OFFCURVE",
"267 1036 CURVE SMOOTH",
"245 1036 OFFCURVE",
"235 1024 OFFCURVE",
"235 1009 CURVE SMOOTH",
"235 993 OFFCURVE",
"245 981 OFFCURVE",
"266 969 CURVE SMOOTH",
"385 899 LINE"
);
},
{
closed = 1;
nodes = (
"512 780 OFFCURVE",
"531 799 OFFCURVE",
"531 827 CURVE SMOOTH",
"531 855 OFFCURVE",
"512 875 OFFCURVE",
"484 875 CURVE SMOOTH",
"456 875 OFFCURVE",
"437 855 OFFCURVE",
"437 827 CURVE SMOOTH",
"437 799 OFFCURVE",
"456 780 OFFCURVE",
"484 780 CURVE SMOOTH"
);
}
);
};
components = (
{
name = U;
},
{
name = dieresisgrave;
transform = "{1, 0, 0, 1, 149, 230}";
}
);
layerId = "0B1DFD06-3317-40CA-B510-4969A0718C16";
width = 742;
}
);
leftKerningGroup = U;
note = Udieresisgrave;
rightKerningGroup = U;
unicode = 01DB;
},
{
glyphname = Udieresismacron;
lastChange = "2017-12-18 08:53:01 +0000";
layers = (
{
background = {
paths = (
{
closed = 1;
nodes = (
"539 -10 OFFCURVE",
"636 51 OFFCURVE",
"636 204 CURVE SMOOTH",
"636 637 LINE SMOOTH",
"636 662 OFFCURVE",
"660 673 OFFCURVE",
"690 673 CURVE SMOOTH",
"713 673 LINE",
"713 700 LINE",
"510 700 LINE",
"510 673 LINE",
"532 673 LINE SMOOTH",
"564 673 OFFCURVE",
"586 662 OFFCURVE",
"586 637 CURVE SMOOTH",
"586 197 LINE SMOOTH",
"586 65 OFFCURVE",
"489 31 OFFCURVE",
"397 31 CURVE SMOOTH",
"290 31 OFFCURVE",
"203 63 OFFCURVE",
"203 197 CURVE SMOOTH",
"203 637 LINE SMOOTH",
"203 662 OFFCURVE",
"226 673 OFFCURVE",
"257 673 CURVE SMOOTH",
"280 673 LINE",
"280 700 LINE",
"28 700 LINE",
"28 673 LINE",
"51 673 LINE SMOOTH",
"82 673 OFFCURVE",
"105 662 OFFCURVE",
"105 637 CURVE SMOOTH",
"105 204 LINE SMOOTH",
"105 46 OFFCURVE",
"208 -10 OFFCURVE",
"375 -10 CURVE SMOOTH"
);
},
{
closed = 1;
nodes = (
"291 781 OFFCURVE",
"309 800 OFFCURVE",
"309 827 CURVE SMOOTH",
"309 855 OFFCURVE",
"291 875 OFFCURVE",
"262 875 CURVE SMOOTH",
"234 875 OFFCURVE",
"216 855 OFFCURVE",
"216 827 CURVE SMOOTH",
"216 800 OFFCURVE",
"234 781 OFFCURVE",
"262 781 CURVE SMOOTH"
);
},
{
closed = 1;
nodes = (
"507 781 OFFCURVE",
"525 800 OFFCURVE",
"525 827 CURVE SMOOTH",
"525 855 OFFCURVE",
"507 875 OFFCURVE",
"478 875 CURVE SMOOTH",
"449 875 OFFCURVE",
"431 855 OFFCURVE",
"431 827 CURVE SMOOTH",
"431 800 OFFCURVE",
"449 781 OFFCURVE",
"478 781 CURVE SMOOTH"
);
},
{
closed = 1;
nodes = (
"537 928 LINE",
"537 970 LINE",
"204 970 LINE",
"204 928 LINE"
);
}
);
};
components = (
{
name = U;
},
{
name = dieresis;
transform = "{1, 0, 0, 1, 148, 230}";
},
{
alignment = -1;
name = macron;
transform = "{1, 0, 0, 1, 145, 356}";
}
);
layerId = "0B1DFD06-3317-40CA-B510-4969A0718C16";
width = 742;
}
);
leftKerningGroup = U;
note = Udieresismacron;
rightKerningGroup = U;
unicode = 01D5;
},
{
glyphname = Uhorn;
lastChange = "2018-01-16 07:49:44 +0000";
layers = (
{
layerId = "0B1DFD06-3317-40CA-B510-4969A0718C16";
paths = (
{
closed = 1;
nodes = (
"492 -9 OFFCURVE",
"640 75 OFFCURVE",
"640 221 CURVE SMOOTH",
"640 500 LINE",
"727 522 OFFCURVE",
"759 594 OFFCURVE",
"759 652 CURVE SMOOTH",
"759 690 OFFCURVE",
"741 709 OFFCURVE",
"703 709 CURVE",
"703 622 OFFCURVE",
"690 563 OFFCURVE",
"640 539 CURVE",
"640 709 LINE",
"601 709 OFFCURVE",
"581 688 OFFCURVE",
"581 650 CURVE SMOOTH",
"581 221 LINE SMOOTH",
"581 125 OFFCURVE",
"485 44 OFFCURVE",
"364 44 CURVE SMOOTH",
"243 44 OFFCURVE",
"147 125 OFFCURVE",
"147 221 CURVE SMOOTH",
"147 709 LINE",
"109 709 OFFCURVE",
"88 688 OFFCURVE",
"88 650 CURVE SMOOTH",
"88 221 LINE SMOOTH",
"88 75 OFFCURVE",
"236 -9 OFFCURVE",
"364 -9 CURVE SMOOTH"
);
}
);
width = 728;
}
);
note = Uhorn;
unicode = 01AF;
},
{
color = 0;
glyphname = "alpha-latin";
lastChange = "2017-12-19 04:02:28 +0000";
layers = (
{
layerId = "0B1DFD06-3317-40CA-B510-4969A0718C16";
paths = (
{
closed = 1;
nodes = (
"304 -10 OFFCURVE",
"357 10 OFFCURVE",
"393 69 CURVE",
"393 37 LINE SMOOTH",
"393 0 OFFCURVE",
"429 -10 OFFCURVE",
"461 -10 CURVE SMOOTH",
"491 -10 OFFCURVE",
"523 -1 OFFCURVE",
"545 17 CURVE",
"545 34 LINE",
"531 29 OFFCURVE",
"519 26 OFFCURVE",
"510 26 CURVE SMOOTH",
"494 26 OFFCURVE",
"486 36 OFFCURVE",
"486 58 CURVE SMOOTH",
"486 403 LINE",
"452 444 OFFCURVE",
"374 480 OFFCURVE",
"279 480 CURVE SMOOTH",
"141 480 OFFCURVE",
"26 405 OFFCURVE",
"26 215 CURVE SMOOTH",
"26 67 OFFCURVE",
"96 -10 OFFCURVE",
"234 -10 CURVE SMOOTH"
);
},
{
closed = 1;
nodes = (
"152 28 OFFCURVE",
"119 116 OFFCURVE",
"119 222 CURVE SMOOTH",
"119 370 OFFCURVE",
"183 441 OFFCURVE",
"279 441 CURVE SMOOTH",
"330 441 OFFCURVE",
"368 421 OFFCURVE",
"392 398 CURVE",
"392 169 LINE SMOOTH",
"392 98 OFFCURVE",
"346 28 OFFCURVE",
"255 28 CURVE SMOOTH"
);
}
);
width = 558;
}
);
leftKerningGroup = a;
note = ascript;
rightKerningGroup = a;
unicode = 0251;
},
{
glyphname = ae;
lastChange = "2018-01-16 07:49:44 +0000";
layers = (
{
layerId = "0B1DFD06-3317-40CA-B510-4969A0718C16";
paths = (
{
closed = 1;
nodes = (
"324 -9 OFFCURVE",
"395 22 OFFCURVE",
"432 75 CURVE",
"466 25 OFFCURVE",
"529 -9 OFFCURVE",
"603 -9 CURVE SMOOTH",
"687 -9 OFFCURVE",
"758 34 OFFCURVE",
"787 96 CURVE SMOOTH",
"803 131 OFFCURVE",
"771 159 OFFCURVE",
"749 159 CURVE",
"749 96 OFFCURVE",
"687 40 OFFCURVE",
"603 40 CURVE SMOOTH",
"519 40 OFFCURVE",
"457 96 OFFCURVE",
"457 158 CURVE SMOOTH",
"457 261 LINE",
"775 261 LINE SMOOTH",
"789 261 OFFCURVE",
"802 273 OFFCURVE",
"802 287 CURVE SMOOTH",
"802 340 LINE SMOOTH",
"802 433 OFFCURVE",
"713 509 OFFCURVE",
"603 509 CURVE SMOOTH",
"529 509 OFFCURVE",
"466 475 OFFCURVE",
"432 425 CURVE",
"395 478 OFFCURVE",
"324 509 OFFCURVE",
"258 509 CURVE SMOOTH",
"193 509 OFFCURVE",
"133 482 OFFCURVE",
"96 438 CURVE SMOOTH",
"75 414 OFFCURVE",
"84 382 OFFCURVE",
"108 364 CURVE",
"134 417 OFFCURVE",
"193 460 OFFCURVE",
"258 460 CURVE SMOOTH",
"339 460 OFFCURVE",
"404 404 OFFCURVE",
"404 342 CURVE SMOOTH",
"404 310 LINE",
"258 310 LINE SMOOTH",
"147 310 OFFCURVE",
"59 243 OFFCURVE",
"59 150 CURVE SMOOTH",
"59 57 OFFCURVE",
"147 -9 OFFCURVE",
"258 -9 CURVE SMOOTH"
);
},
{
closed = 1;
nodes = (
"174 40 OFFCURVE",
"112 88 OFFCURVE",
"112 150 CURVE SMOOTH",
"112 214 OFFCURVE",
"174 261 OFFCURVE",
"258 261 CURVE SMOOTH",
"404 261 LINE",
"404 158 LINE SMOOTH",
"404 96 OFFCURVE",
"342 40 OFFCURVE",
"258 40 CURVE SMOOTH"
);
},
{
closed = 1;
nodes = (
"457 340 LINE SMOOTH",
"457 405 OFFCURVE",
"522 460 OFFCURVE",
"603 460 CURVE SMOOTH",
"687 460 OFFCURVE",
"749 404 OFFCURVE",
"749 340 CURVE SMOOTH",
"749 310 LINE",
"457 310 LINE"
);
}
);
width = 876;
}
);
note = ae;
unicode = 00E6;
},
{
glyphname = eth;
lastChange = "2018-01-16 07:49:44 +0000";
layers = (
{
layerId = "0B1DFD06-3317-40CA-B510-4969A0718C16";
paths = (
{
closed = 1;
nodes = (
"425 -9 OFFCURVE",
"557 72 OFFCURVE",
"557 262 CURVE SMOOTH",
"557 338 OFFCURVE",
"542 401 OFFCURVE",
"513 461 CURVE SMOOTH",
"478 534 OFFCURVE",
"427 593 OFFCURVE",
"368 640 CURVE",
"435 671 LINE SMOOTH",
"464 684 OFFCURVE",
"472 708 OFFCURVE",
"458 737 CURVE",
"321 674 LINE",
"276 703 OFFCURVE",
"226 727 OFFCURVE",
"174 747 CURVE",
"152 702 LINE",
"190 685 OFFCURVE",
"228 668 OFFCURVE",
"264 647 CURVE",
"178 607 LINE SMOOTH",
"150 594 OFFCURVE",
"142 570 OFFCURVE",
"155 541 CURVE",
"315 615 LINE",
"376 572 OFFCURVE",
"426 519 OFFCURVE",
"464 458 CURVE",
"479 447 OFFCURVE",
"492 432 OFFCURVE",
"500 422 CURVE",
"498 417 LINE",
"450 476 OFFCURVE",
"379 509 OFFCURVE",
"308 509 CURVE SMOOTH",
"184 509 OFFCURVE",
"59 405 OFFCURVE",
"59 242 CURVE SMOOTH",
"59 100 OFFCURVE",
"158 -9 OFFCURVE",
"304 -9 CURVE SMOOTH"
);
},
{
closed = 1;
nodes = (
"209 38 OFFCURVE",
"112 112 OFFCURVE",
"112 243 CURVE SMOOTH",
"112 343 OFFCURVE",
"172 461 OFFCURVE",
"308 461 CURVE SMOOTH",
"374 461 OFFCURVE",
"419 432 OFFCURVE",
"453 404 CURVE",
"482 371 OFFCURVE",
"500 326 OFFCURVE",
"500 255 CURVE SMOOTH",
"500 113 OFFCURVE",
"411 38 OFFCURVE",
"302 38 CURVE SMOOTH"
);
}
);
width = 616;
}
);
note = eth;
unicode = 00F0;
},
{
color = 0;
glyphname = dcaron;
lastChange = "2017-12-19 04:03:21 +0000";
layers = (
{
layerId = "0B1DFD06-3317-40CA-B510-4969A0718C16";
paths = (
{
closed = 1;
nodes = (
"321 -10 OFFCURVE",
"381 14 OFFCURVE",
"417 74 CURVE",
"422 -4 LINE",
"564 11 LINE",
"564 34 LINE",
"541 34 LINE SMOOTH",
"513 34 OFFCURVE",
"499 44 OFFCURVE",
"499 69 CURVE SMOOTH",
"499 717 LINE",
"474 717 LINE",
"349 672 LINE",
"355 649 LINE",
"365 653 OFFCURVE",
"377 657 OFFCURVE",
"385 657 CURVE SMOOTH",
"394 657 OFFCURVE",
"405 654 OFFCURVE",
"405 636 CURVE SMOOTH",
"405 410 LINE",
"363 467 OFFCURVE",
"298 480 OFFCURVE",
"242 480 CURVE SMOOTH",
"123 480 OFFCURVE",
"31 401 OFFCURVE",
"31 245 CURVE SMOOTH",
"31 60 OFFCURVE",
"118 -10 OFFCURVE",
"243 -10 CURVE SMOOTH"
);
},
{
closed = 1;
nodes = (
"160 28 OFFCURVE",
"124 120 OFFCURVE",
"124 242 CURVE SMOOTH",
"124 372 OFFCURVE",
"176 440 OFFCURVE",
"275 440 CURVE SMOOTH",
"337 440 OFFCURVE",
"406 392 OFFCURVE",
"406 320 CURVE SMOOTH",
"406 168 LINE SMOOTH",
"406 97 OFFCURVE",
"357 28 OFFCURVE",
"269 28 CURVE SMOOTH"
);
},
{
closed = 1;
nodes = (
"630 523 OFFCURVE",
"674 583 OFFCURVE",
"674 646 CURVE SMOOTH",
"674 694 OFFCURVE",
"650 714 OFFCURVE",
"621 714 CURVE SMOOTH",
"592 714 OFFCURVE",
"575 694 OFFCURVE",
"575 670 CURVE SMOOTH",
"575 636 OFFCURVE",
"610 629 OFFCURVE",
"610 594 CURVE SMOOTH",
"610 558 OFFCURVE",
"584 525 OFFCURVE",
"557 499 CURVE",
"574 482 LINE"
);
}
);
width = 686;
}
);
leftKerningGroup = d;
note = dcaron;
unicode = 010F;
},
{
glyphname = dcroat;
lastChange = "2018-01-16 07:49:44 +0000";
layers = (
{
layerId = "0B1DFD06-3317-40CA-B510-4969A0718C16";
paths = (
{
closed = 1;
nodes = (
"340 -9 OFFCURVE",
"401 19 OFFCURVE",
"436 63 CURVE",
"438 59 LINE",
"433 53 OFFCURVE",
"425 43 OFFCURVE",
"419 38 CURVE",
"419 -9 LINE",
"454 -9 OFFCURVE",
"472 9 OFFCURVE",
"472 44 CURVE SMOOTH",
"472 584 LINE",
"510 584 LINE SMOOTH",
"542 584 OFFCURVE",
"560 601 OFFCURVE",
"560 634 CURVE",
"472 634 LINE",
"472 709 LINE",
"436 709 OFFCURVE",
"419 691 OFFCURVE",
"419 656 CURVE SMOOTH",
"419 634 LINE",
"380 634 LINE SMOOTH",
"348 634 OFFCURVE",
"330 616 OFFCURVE",
"330 584 CURVE",
"419 584 LINE",
"419 461 LINE",
"425 457 OFFCURVE",
"433 447 OFFCURVE",
"438 441 CURVE",
"436 436 LINE",
"401 481 OFFCURVE",
"340 509 OFFCURVE",
"273 509 CURVE SMOOTH",
"162 509 OFFCURVE",
"74 433 OFFCURVE",
"74 340 CURVE SMOOTH",
"74 158 LINE SMOOTH",
"74 65 OFFCURVE",
"162 -9 OFFCURVE",
"273 -9 CURVE SMOOTH"
);
},
{
closed = 1;
nodes = (
"189 40 OFFCURVE",
"127 96 OFFCURVE",
"127 158 CURVE SMOOTH",
"127 340 LINE SMOOTH",
"127 404 OFFCURVE",
"189 460 OFFCURVE",
"273 460 CURVE SMOOTH",
"357 460 OFFCURVE",
"419 404 OFFCURVE",
"419 340 CURVE SMOOTH",
"419 158 LINE SMOOTH",
"419 96 OFFCURVE",
"357 40 OFFCURVE",
"273 40 CURVE SMOOTH"
);
}
);
width = 560;
}
);
note = dslash;
unicode = 0111;
},
{
color = 0;
glyphname = schwa;
lastChange = "2017-12-19 04:03:29 +0000";
layers = (
{
layerId = "0B1DFD06-3317-40CA-B510-4969A0718C16";
paths = (
{
closed = 1;
nodes = (
"396 -10 OFFCURVE",
"487 83 OFFCURVE",
"487 236 CURVE SMOOTH",
"487 393 OFFCURVE",
"392 480 OFFCURVE",
"246 480 CURVE SMOOTH",
"112 480 OFFCURVE",
"47 407 OFFCURVE",
"36 303 CURVE",
"65 303 LINE",
"83 407 OFFCURVE",
"154 444 OFFCURVE",
"225 444 CURVE SMOOTH",
"331 444 OFFCURVE",
"392 360 OFFCURVE",
"392 234 CURVE SMOOTH",
"392 121 OFFCURVE",
"343 28 OFFCURVE",
"242 28 CURVE SMOOTH",
"147 28 OFFCURVE",
"117 112 OFFCURVE",
"115 173 CURVE",
"403 173 LINE",
"403 212 LINE",
"32 212 LINE",
"32 189 LINE SMOOTH",
"32 77 OFFCURVE",
"100 -10 OFFCURVE",
"246 -10 CURVE SMOOTH"
);
}
);
width = 521;
}
);
note = schwa;
unicode = 0259;
},
{
color = 0;
glyphname = hbar;
lastChange = "2017-12-19 04:03:47 +0000";
layers = (
{
layerId = "0B1DFD06-3317-40CA-B510-4969A0718C16";
paths = (
{
closed = 1;
nodes = (
"600 0 LINE",
"600 25 LINE",
"582 25 LINE SMOOTH",
"552 25 OFFCURVE",
"528 34 OFFCURVE",
"528 57 CURVE SMOOTH",
"528 344 LINE SMOOTH",
"528 424 OFFCURVE",
"471 480 OFFCURVE",
"357 480 CURVE SMOOTH",
"265 480 OFFCURVE",
"194 424 OFFCURVE",
"178 373 CURVE",
"178 285 LINE",
"188 285 LINE",
"188 389 OFFCURVE",
"264 439 OFFCURVE",
"330 439 CURVE SMOOTH",
"396 439 OFFCURVE",
"434 404 OFFCURVE",
"434 332 CURVE SMOOTH",
"434 57 LINE SMOOTH",
"434 34 OFFCURVE",
"411 25 OFFCURVE",
"383 25 CURVE SMOOTH",
"367 25 LINE",
"367 0 LINE"
);
},
{
closed = 1;
nodes = (
"255 0 LINE",
"255 25 LINE",
"240 25 LINE SMOOTH",
"212 25 OFFCURVE",
"188 34 OFFCURVE",
"188 57 CURVE SMOOTH",
"188 717 LINE",
"163 717 LINE",
"37 672 LINE",
"44 649 LINE",
"54 653 OFFCURVE",
"66 657 OFFCURVE",
"73 657 CURVE SMOOTH",
"83 657 OFFCURVE",
"94 654 OFFCURVE",
"94 636 CURVE SMOOTH",
"94 57 LINE SMOOTH",
"94 34 OFFCURVE",
"71 25 OFFCURVE",
"41 25 CURVE SMOOTH",
"22 25 LINE",
"22 0 LINE"
);
},
{
closed = 1;
nodes = (
"339 559 LINE",
"339 594 LINE",
"40 594 LINE",
"40 559 LINE"
);
}
);
width = 622;
}
);
note = hbar;
rightKerningGroup = h;
unicode = 0127;
},
{
glyphname = idotless;
lastChange = "2018-01-16 07:49:44 +0000";
layers = (
{
layerId = "0B1DFD06-3317-40CA-B510-4969A0718C16";
paths = (
{
closed = 1;
nodes = (
"124 -9 OFFCURVE",
"142 9 OFFCURVE",
"142 44 CURVE SMOOTH",
"142 509 LINE",
"106 509 OFFCURVE",
"88 491 OFFCURVE",
"88 455 CURVE SMOOTH",
"88 -9 LINE"
);
}
);
width = 230;
}
);
note = dotlessi;
unicode = 0131;
},
{
color = 0;
glyphname = ij;
lastChange = "2017-12-19 04:03:59 +0000";
layers = (
{
layerId = "0B1DFD06-3317-40CA-B510-4969A0718C16";
paths = (
{
closed = 1;
nodes = (
"472 -107 OFFCURVE",
"516 -25 OFFCURVE",
"516 102 CURVE SMOOTH",
"516 473 LINE",
"491 473 LINE",
"365 428 LINE",
"372 406 LINE",
"383 410 OFFCURVE",
"394 414 OFFCURVE",
"402 414 CURVE SMOOTH",
"411 414 OFFCURVE",
"423 410 OFFCURVE",
"423 393 CURVE SMOOTH",
"423 97 LINE SMOOTH",
"423 -4 OFFCURVE",
"418 -72 OFFCURVE",
"326 -110 CURVE",
"331 -132 LINE"
);
},
{
closed = 1;
nodes = (
"265 0 LINE",
"265 25 LINE",
"246 25 LINE SMOOTH",
"217 25 OFFCURVE",
"193 34 OFFCURVE",
"193 57 CURVE SMOOTH",
"193 475 LINE",
"168 475 LINE",
"42 431 LINE",
"49 408 LINE",
"59 411 OFFCURVE",
"71 416 OFFCURVE",
"78 416 CURVE SMOOTH",
"88 416 OFFCURVE",
"99 412 OFFCURVE",
"99 394 CURVE SMOOTH",
"99 57 LINE SMOOTH",
"99 34 OFFCURVE",
"76 25 OFFCURVE",
"46 25 CURVE SMOOTH",
"27 25 LINE",
"27 0 LINE"
);
},
{
closed = 1;
nodes = (
"171 561 OFFCURVE",
"194 584 OFFCURVE",
"194 616 CURVE SMOOTH",
"194 649 OFFCURVE",
"171 671 OFFCURVE",
"138 671 CURVE SMOOTH",
"103 671 OFFCURVE",
"81 649 OFFCURVE",
"81 616 CURVE SMOOTH",
"81 584 OFFCURVE",
"103 561 OFFCURVE",
"138 561 CURVE SMOOTH"
);
},
{
closed = 1;
nodes = (
"499 561 OFFCURVE",
"522 584 OFFCURVE",
"522 616 CURVE SMOOTH",
"522 649 OFFCURVE",
"499 671 OFFCURVE",
"465 671 CURVE SMOOTH",
"431 671 OFFCURVE",
"409 649 OFFCURVE",
"409 616 CURVE SMOOTH",
"409 584 OFFCURVE",
"431 561 OFFCURVE",
"465 561 CURVE SMOOTH"
);
}
);
width = 598;
}
);
note = ij;
unicode = 0133;
},
{
color = 0;
glyphname = jdotless;
lastChange = "2017-12-19 04:04:02 +0000";
layers = (
{
anchors = (
{
name = bottom;
position = "{151, 0}";
},
{
name = top;
position = "{151, 470}";
}
);
layerId = "0B1DFD06-3317-40CA-B510-4969A0718C16";
paths = (
{
closed = 1;
nodes = (
"176 -107 OFFCURVE",
"220 -25 OFFCURVE",
"220 102 CURVE SMOOTH",
"220 473 LINE",
"195 473 LINE",
"69 428 LINE",
"76 406 LINE",
"86 410 OFFCURVE",
"98 414 OFFCURVE",
"106 414 CURVE SMOOTH",
"115 414 OFFCURVE",
"126 410 OFFCURVE",
"126 393 CURVE SMOOTH",
"126 97 LINE SMOOTH",
"126 -3 OFFCURVE",
"123 -71 OFFCURVE",
"31 -110 CURVE",
"35 -132 LINE"
);
}
);
width = 302;
}
);
leftKerningGroup = j;
note = dotlessj;
unicode = 0237;
},
{
color = 0;
glyphname = kgreenlandic;
lastChange = "2017-12-19 04:04:23 +0000";
layers = (
{
layerId = "0B1DFD06-3317-40CA-B510-4969A0718C16";
paths = (
{
closed = 1;
nodes = (
"257 0 LINE",
"257 25 LINE",
"240 25 LINE SMOOTH",
"211 25 OFFCURVE",
"187 35 OFFCURVE",
"187 57 CURVE SMOOTH",
"187 487 LINE",
"162 487 LINE",
"36 442 LINE",
"43 419 LINE",
"54 423 OFFCURVE",
"65 427 OFFCURVE",
"73 427 CURVE SMOOTH",
"82 427 OFFCURVE",
"94 424 OFFCURVE",
"94 406 CURVE SMOOTH",
"94 57 LINE SMOOTH",
"94 34 OFFCURVE",
"70 25 OFFCURVE",
"40 25 CURVE SMOOTH",
"21 25 LINE",
"21 0 LINE"
);
},
{
closed = 1;
nodes = (
"577 0 LINE",
"577 25 LINE",
"550 25 LINE SMOOTH",
"530 25 OFFCURVE",
"496 35 OFFCURVE",
"475 55 CURVE SMOOTH",
"247 266 LINE",
"185 217 LINE",
"421 0 LINE"
);
},
{
closed = 1;
nodes = (
"446 417 LINE SMOOTH",
"463 432 OFFCURVE",
"488 444 OFFCURVE",
"506 444 CURVE SMOOTH",
"528 444 LINE",
"528 470 LINE",
"332 470 LINE",
"332 444 LINE",
"354 444 LINE SMOOTH",
"380 444 OFFCURVE",
"401 428 OFFCURVE",
"380 411 CURVE SMOOTH",
"155 225 LINE",
"155 173 LINE"
);
}
);
width = 591;
}
);
note = kgreenlandic;
rightKerningGroup = k;
unicode = 0138;
},
{
glyphname = lslash;
lastChange = "2018-01-16 07:49:44 +0000";
layers = (
{
layerId = "0B1DFD06-3317-40CA-B510-4969A0718C16";
paths = (
{
closed = 1;
nodes = (
"127 -9 OFFCURVE",
"147 12 OFFCURVE",
"147 50 CURVE SMOOTH",
"147 333 LINE",
"212 376 LINE SMOOTH",
"239 394 OFFCURVE",
"243 416 OFFCURVE",
"226 444 CURVE",
"147 392 LINE",
"147 709 LINE",
"109 709 OFFCURVE",
"88 688 OFFCURVE",
"88 650 CURVE SMOOTH",
"88 354 LINE",
"25 312 LINE SMOOTH",
"-1 295 OFFCURVE",
"-7 273 OFFCURVE",
"10 245 CURVE",
"88 295 LINE",
"88 -9 LINE"
);
}
);
width = 236;
}
);
note = lslash;
unicode = 0142;
},
{
color = 0;
glyphname = eng;
lastChange = "2017-12-19 04:04:58 +0000";
layers = (
{
layerId = "0B1DFD06-3317-40CA-B510-4969A0718C16";
paths = (
{
closed = 1;
nodes = (
"478 -215 OFFCURVE",
"529 -140 OFFCURVE",
"529 -17 CURVE SMOOTH",
"529 344 LINE SMOOTH",
"529 424 OFFCURVE",
"472 480 OFFCURVE",
"358 480 CURVE SMOOTH",
"266 480 OFFCURVE",
"195 424 OFFCURVE",
"178 373 CURVE",
"178 285 LINE",
"188 285 LINE",
"188 389 OFFCURVE",
"264 439 OFFCURVE",
"331 439 CURVE SMOOTH",
"395 439 OFFCURVE",
"435 404 OFFCURVE",
"435 332 CURVE SMOOTH",
"435 -58 LINE SMOOTH",
"435 -128 OFFCURVE",
"413 -186 OFFCURVE",
"339 -215 CURVE",
"344 -238 LINE"
);
},
{
closed = 1;
nodes = (
"255 0 LINE",
"255 25 LINE",
"240 25 LINE SMOOTH",
"205 25 OFFCURVE",
"188 37 OFFCURVE",
"188 66 CURVE SMOOTH",
"188 473 LINE",
"166 473 LINE",
"38 428 LINE",
"44 406 LINE",
"54 410 OFFCURVE",
"66 414 OFFCURVE",
"74 414 CURVE SMOOTH",
"83 414 OFFCURVE",
"94 410 OFFCURVE",
"94 393 CURVE SMOOTH",
"94 66 LINE SMOOTH",
"94 37 OFFCURVE",
"77 25 OFFCURVE",
"41 25 CURVE SMOOTH",
"22 25 LINE",
"22 0 LINE"
);
}
);
width = 609;
}
);
leftKerningGroup = m;
note = eng;
rightKerningGroup = m;
unicode = 014B;
},
{
glyphname = ohorn;
lastChange = "2018-01-16 07:49:44 +0000";
layers = (
{
layerId = "0B1DFD06-3317-40CA-B510-4969A0718C16";
paths = (
{
closed = 1;
nodes = (
"460 -9 OFFCURVE",
"576 106 OFFCURVE",
"576 249 CURVE SMOOTH",
"576 277 OFFCURVE",
"572 304 OFFCURVE",
"563 329 CURVE",
"628 352 OFFCURVE",
"652 410 OFFCURVE",
"652 457 CURVE SMOOTH",
"652 491 OFFCURVE",
"635 509 OFFCURVE",
"601 509 CURVE",
"601 435 OFFCURVE",
"590 383 OFFCURVE",
"550 361 CURVE",
"509 448 OFFCURVE",
"419 509 OFFCURVE",
"317 509 CURVE SMOOTH",
"174 509 OFFCURVE",
"59 392 OFFCURVE",
"59 249 CURVE SMOOTH",
"59 106 OFFCURVE",
"174 -9 OFFCURVE",
"317 -9 CURVE SMOOTH"
);
},
{
closed = 1;
nodes = (
"203 40 OFFCURVE",
"112 133 OFFCURVE",
"112 249 CURVE SMOOTH",
"112 366 OFFCURVE",
"203 460 OFFCURVE",
"317 460 CURVE SMOOTH",
"430 460 OFFCURVE",
"523 366 OFFCURVE",
"523 249 CURVE SMOOTH",
"523 133 OFFCURVE",
"430 40 OFFCURVE",
"317 40 CURVE SMOOTH"
);
}
);
width = 635;
}
);
note = ohorn;
unicode = 01A1;
},
{
glyphname = oslash;
lastChange = "2018-01-16 07:49:44 +0000";
layers = (
{
layerId = "0B1DFD06-3317-40CA-B510-4969A0718C16";
paths = (
{
closed = 1;
nodes = (
"460 -9 OFFCURVE",
"576 106 OFFCURVE",
"576 249 CURVE SMOOTH",
"576 392 OFFCURVE",
"460 509 OFFCURVE",
"317 509 CURVE SMOOTH",
"174 509 OFFCURVE",
"59 392 OFFCURVE",
"59 249 CURVE SMOOTH",
"59 106 OFFCURVE",
"174 -9 OFFCURVE",
"317 -9 CURVE SMOOTH"
);
},
{
closed = 1;
nodes = (
"178 -46 OFFCURVE",
"202 -38 OFFCURVE",
"218 -6 CURVE SMOOTH",
"488 529 LINE",
"455 545 OFFCURVE",
"432 537 OFFCURVE",
"417 506 CURVE SMOOTH",
"147 -29 LINE"
);
},
{
closed = 1;
nodes = (
"203 40 OFFCURVE",
"112 133 OFFCURVE",
"112 249 CURVE SMOOTH",
"112 366 OFFCURVE",
"203 460 OFFCURVE",
"317 460 CURVE SMOOTH",
"430 460 OFFCURVE",
"523 366 OFFCURVE",
"523 249 CURVE SMOOTH",
"523 133 OFFCURVE",
"430 40 OFFCURVE",
"317 40 CURVE SMOOTH"
);
}
);
width = 635;
}
);
note = oslash;
unicode = 00F8;
},
{
glyphname = oe;
lastChange = "2018-01-16 07:49:44 +0000";
layers = (
{
layerId = "0B1DFD06-3317-40CA-B510-4969A0718C16";
paths = (
{
closed = 1;
nodes = (
"346 -9 OFFCURVE",
"410 25 OFFCURVE",
"444 75 CURVE",
"478 25 OFFCURVE",
"542 -9 OFFCURVE",
"618 -9 CURVE SMOOTH",
"702 -9 OFFCURVE",
"772 34 OFFCURVE",
"802 96 CURVE SMOOTH",
"818 131 OFFCURVE",
"786 159 OFFCURVE",
"764 159 CURVE",
"764 96 OFFCURVE",
"702 40 OFFCURVE",
"618 40 CURVE SMOOTH",
"534 40 OFFCURVE",
"472 96 OFFCURVE",
"472 158 CURVE SMOOTH",
"472 261 LINE",
"790 261 LINE SMOOTH",
"803 261 OFFCURVE",
"817 273 OFFCURVE",
"817 287 CURVE SMOOTH",
"817 340 LINE SMOOTH",
"817 433 OFFCURVE",
"728 509 OFFCURVE",
"618 509 CURVE SMOOTH",
"542 509 OFFCURVE",
"479 475 OFFCURVE",
"445 425 CURVE",
"411 475 OFFCURVE",
"346 509 OFFCURVE",
"273 509 CURVE SMOOTH",
"162 509 OFFCURVE",
"74 433 OFFCURVE",
"74 340 CURVE SMOOTH",
"74 158 LINE SMOOTH",
"74 65 OFFCURVE",
"162 -9 OFFCURVE",
"273 -9 CURVE SMOOTH"
);
},
{
closed = 1;
nodes = (
"189 40 OFFCURVE",
"127 96 OFFCURVE",
"127 158 CURVE SMOOTH",
"127 340 LINE SMOOTH",
"127 404 OFFCURVE",
"189 460 OFFCURVE",
"273 460 CURVE SMOOTH",
"357 460 OFFCURVE",
"419 404 OFFCURVE",
"419 340 CURVE SMOOTH",
"419 158 LINE SMOOTH",
"419 93 OFFCURVE",
"354 40 OFFCURVE",
"273 40 CURVE SMOOTH"
);
},
{
closed = 1;
nodes = (
"472 340 LINE SMOOTH",
"472 404 OFFCURVE",
"534 460 OFFCURVE",
"618 460 CURVE SMOOTH",
"702 460 OFFCURVE",
"764 404 OFFCURVE",
"764 340 CURVE SMOOTH",
"764 310 LINE",
"472 310 LINE"
);
}
);
width = 890;
}
);
note = oe;
unicode = 0153;
},
{
glyphname = thorn;
lastChange = "2018-01-16 07:49:44 +0000";
layers = (
{
layerId = "0B1DFD06-3317-40CA-B510-4969A0718C16";
paths = (
{
closed = 1;
nodes = (
"127 -209 OFFCURVE",
"142 -192 OFFCURVE",
"142 -162 CURVE SMOOTH",
"142 38 LINE",
"136 43 OFFCURVE",
"127 53 OFFCURVE",
"122 59 CURVE",
"124 63 LINE",
"159 19 OFFCURVE",
"220 -9 OFFCURVE",
"287 -9 CURVE SMOOTH",
"398 -9 OFFCURVE",
"486 66 OFFCURVE",
"486 159 CURVE SMOOTH",
"486 342 LINE SMOOTH",
"486 435 OFFCURVE",
"398 509 OFFCURVE",
"287 509 CURVE SMOOTH",
"220 509 OFFCURVE",
"159 481 OFFCURVE",
"124 436 CURVE",
"122 441 LINE",
"127 447 OFFCURVE",
"136 457 OFFCURVE",
"142 461 CURVE",
"142 709 LINE",
"106 709 OFFCURVE",
"88 691 OFFCURVE",
"88 656 CURVE SMOOTH",
"88 -209 LINE"
);
},
{
closed = 1;
nodes = (
"203 40 OFFCURVE",
"142 96 OFFCURVE",
"142 159 CURVE SMOOTH",
"142 342 LINE SMOOTH",
"142 404 OFFCURVE",
"203 460 OFFCURVE",
"287 460 CURVE SMOOTH",
"371 460 OFFCURVE",
"433 404 OFFCURVE",
"433 342 CURVE SMOOTH",
"433 159 LINE SMOOTH",
"433 96 OFFCURVE",
"371 40 OFFCURVE",
"287 40 CURVE SMOOTH"
);
}
);
width = 575;
}
);
note = thorn;
unicode = 00FE;
},
{
glyphname = germandbls;
lastChange = "2018-01-16 07:49:44 +0000";
layers = (
{
layerId = "0B1DFD06-3317-40CA-B510-4969A0718C16";
paths = (
{
closed = 1;
nodes = (
"127 -136 OFFCURVE",
"146 -115 OFFCURVE",
"146 -77 CURVE SMOOTH",
"146 526 LINE SMOOTH",
"146 591 OFFCURVE",
"168 662 OFFCURVE",
"252 662 CURVE SMOOTH",
"333 662 OFFCURVE",
"370 613 OFFCURVE",
"370 535 CURVE SMOOTH",
"370 436 OFFCURVE",
"321 404 OFFCURVE",
"237 399 CURVE",
"237 352 LINE",
"355 352 OFFCURVE",
"416 307 OFFCURVE",
"416 190 CURVE SMOOTH",
"416 91 OFFCURVE",
"379 38 OFFCURVE",
"310 38 CURVE SMOOTH",
"284 38 OFFCURVE",
"256 47 OFFCURVE",
"237 57 CURVE",
"223 28 OFFCURVE",
"228 9 OFFCURVE",
"256 -1 CURVE SMOOTH",
"268 -6 OFFCURVE",
"280 -9 OFFCURVE",
"305 -9 CURVE SMOOTH",
"416 -9 OFFCURVE",
"473 69 OFFCURVE",
"473 198 CURVE SMOOTH",
"473 290 OFFCURVE",
"429 357 OFFCURVE",
"340 385 CURVE",
"399 416 OFFCURVE",
"430 467 OFFCURVE",
"430 532 CURVE SMOOTH",
"430 634 OFFCURVE",
"363 709 OFFCURVE",
"262 709 CURVE SMOOTH",
"144 709 OFFCURVE",
"88 634 OFFCURVE",
"88 522 CURVE SMOOTH",
"88 -136 LINE"
);
}
);
width = 547;
}
);
note = uni00DF;
unicode = 00DF;
},
{
glyphname = tbar;
lastChange = "2017-12-18 09:29:31 +0000";
layers = (
{
components = (
{
name = t;
}
);
layerId = "0B1DFD06-3317-40CA-B510-4969A0718C16";
paths = (
{
closed = 1;
nodes = (
"321 260 LINE",
"321 297 LINE",
"33 297 LINE",
"33 260 LINE"
);
}
);
width = 397;
}
);
leftKerningGroup = t;
note = tbar;
rightKerningGroup = t;
unicode = 0167;
},
{
glyphname = uhorn;
lastChange = "2018-01-16 07:49:44 +0000";
layers = (
{
layerId = "0B1DFD06-3317-40CA-B510-4969A0718C16";
paths = (
{
closed = 1;
nodes = (
"355 -9 OFFCURVE",
"416 19 OFFCURVE",
"451 63 CURVE",
"453 59 LINE",
"448 53 OFFCURVE",
"439 43 OFFCURVE",
"433 38 CURVE",
"433 -9 LINE",
"469 -9 OFFCURVE",
"486 9 OFFCURVE",
"486 44 CURVE SMOOTH",
"486 321 LINE",
"566 340 OFFCURVE",
"595 405 OFFCURVE",
"595 457 CURVE SMOOTH",
"595 491 OFFCURVE",
"579 509 OFFCURVE",
"545 509 CURVE",
"545 430 OFFCURVE",
"532 377 OFFCURVE",
"486 357 CURVE",
"486 509 LINE",
"451 509 OFFCURVE",
"433 491 OFFCURVE",
"433 455 CURVE SMOOTH",
"433 159 LINE SMOOTH",
"433 96 OFFCURVE",
"371 40 OFFCURVE",
"287 40 CURVE SMOOTH",
"203 40 OFFCURVE",
"142 96 OFFCURVE",
"142 159 CURVE SMOOTH",
"142 509 LINE",
"106 509 OFFCURVE",
"88 491 OFFCURVE",
"88 455 CURVE SMOOTH",
"88 159 LINE SMOOTH",
"88 66 OFFCURVE",
"177 -9 OFFCURVE",
"287 -9 CURVE SMOOTH"
);
}
);
width = 575;
}
);
note = uhorn;
unicode = 01B0;
},
{
glyphname = fi;
lastChange = "2018-01-16 07:49:44 +0000";
layers = (
{
layerId = "0B1DFD06-3317-40CA-B510-4969A0718C16";
paths = (
{
closed = 1;
nodes = (
"136 -9 OFFCURVE",
"153 9 OFFCURVE",
"153 44 CURVE SMOOTH",
"153 451 LINE",
"383 451 LINE",
"383 -9 LINE",
"419 -9 OFFCURVE",
"436 9 OFFCURVE",
"436 44 CURVE SMOOTH",
"436 500 LINE",
"153 500 LINE",
"153 575 LINE SMOOTH",
"153 622 OFFCURVE",
"186 660 OFFCURVE",
"246 660 CURVE SMOOTH",
"264 660 OFFCURVE",
"277 657 OFFCURVE",
"289 652 CURVE",
"304 678 OFFCURVE",
"286 709 OFFCURVE",
"246 709 CURVE SMOOTH",
"156 709 OFFCURVE",
"100 649 OFFCURVE",
"100 575 CURVE SMOOTH",
"100 500 LINE",
"63 500 LINE SMOOTH",
"32 500 OFFCURVE",
"15 482 OFFCURVE",
"15 451 CURVE",
"100 451 LINE",
"100 -9 LINE"
);
},
{
closed = 1;
nodes = (
"438 588 OFFCURVE",
"460 610 OFFCURVE",
"460 638 CURVE SMOOTH",
"460 666 OFFCURVE",
"438 688 OFFCURVE",
"410 688 CURVE SMOOTH",
"382 688 OFFCURVE",
"360 666 OFFCURVE",
"360 638 CURVE SMOOTH",
"360 610 OFFCURVE",
"382 588 OFFCURVE",
"410 588 CURVE SMOOTH"
);
}
);
width = 525;
}
);
note = fi;
unicode = FB01;
},
{
glyphname = fl;
lastChange = "2018-01-16 07:49:44 +0000";
layers = (
{
layerId = "0B1DFD06-3317-40CA-B510-4969A0718C16";
paths = (
{
closed = 1;
nodes = (
"136 -9 OFFCURVE",
"153 9 OFFCURVE",
"153 44 CURVE SMOOTH",
"153 451 LINE",
"198 451 LINE SMOOTH",
"228 451 OFFCURVE",
"246 469 OFFCURVE",
"246 500 CURVE",
"153 500 LINE",
"153 575 LINE SMOOTH",
"153 622 OFFCURVE",
"186 660 OFFCURVE",
"246 660 CURVE SMOOTH",
"290 660 OFFCURVE",
"340 653 OFFCURVE",
"383 635 CURVE",
"383 125 LINE SMOOTH",
"383 52 OFFCURVE",
"439 -9 OFFCURVE",
"529 -9 CURVE SMOOTH",
"569 -9 OFFCURVE",
"587 22 OFFCURVE",
"572 49 CURVE",
"560 43 OFFCURVE",
"547 40 OFFCURVE",
"529 40 CURVE SMOOTH",
"469 40 OFFCURVE",
"436 78 OFFCURVE",
"436 125 CURVE SMOOTH",
"436 656 LINE",
"385 694 OFFCURVE",
"307 709 OFFCURVE",
"246 709 CURVE SMOOTH",
"156 709 OFFCURVE",
"100 649 OFFCURVE",
"100 575 CURVE SMOOTH",
"100 500 LINE",
"63 500 LINE SMOOTH",
"32 500 OFFCURVE",
"15 482 OFFCURVE",
"15 451 CURVE",
"100 451 LINE",
"100 -9 LINE"
);
}
);
width = 578;
}
);
note = fl;
unicode = FB02;
},
{
glyphname = ordfeminine;
lastChange = "2018-01-16 07:49:44 +0000";
layers = (
{
layerId = "0B1DFD06-3317-40CA-B510-4969A0718C16";
paths = (
{
closed = 1;
nodes = (
"223 304 OFFCURVE",
"268 324 OFFCURVE",
"296 357 CURVE",
"298 352 LINE",
"290 343 OFFCURVE",
"284 338 OFFCURVE",
"277 332 CURVE",
"277 304 LINE",
"310 304 OFFCURVE",
"327 320 OFFCURVE",
"327 348 CURVE SMOOTH",
"327 575 LINE SMOOTH",
"327 654 OFFCURVE",
"245 705 OFFCURVE",
"171 705 CURVE SMOOTH",
"121 705 OFFCURVE",
"74 685 OFFCURVE",
"44 649 CURVE SMOOTH",
"28 629 OFFCURVE",
"35 601 OFFCURVE",
"57 587 CURVE",
"78 626 OFFCURVE",
"124 660 OFFCURVE",
"171 660 CURVE SMOOTH",
"231 660 OFFCURVE",
"277 619 OFFCURVE",
"277 575 CURVE SMOOTH",
"277 538 LINE",
"284 532 OFFCURVE",
"290 526 OFFCURVE",
"298 517 CURVE",
"296 513 LINE",
"268 545 OFFCURVE",
"223 566 OFFCURVE",
"171 566 CURVE SMOOTH",
"84 566 OFFCURVE",
"15 506 OFFCURVE",
"15 433 CURVE SMOOTH",
"15 361 OFFCURVE",
"84 304 OFFCURVE",
"171 304 CURVE SMOOTH"
);
},
{
closed = 1;
nodes = (
"111 348 OFFCURVE",
"65 389 OFFCURVE",
"65 433 CURVE SMOOTH",
"65 481 OFFCURVE",
"111 522 OFFCURVE",
"171 522 CURVE SMOOTH",
"233 522 OFFCURVE",
"277 481 OFFCURVE",
"277 433 CURVE SMOOTH",
"277 389 OFFCURVE",
"233 348 OFFCURVE",
"171 348 CURVE SMOOTH"
);
}
);
width = 401;
}
);
note = ordfeminine;
unicode = 00AA;
},
{
glyphname = ordmasculine;
lastChange = "2018-01-16 07:49:44 +0000";
layers = (
{
layerId = "0B1DFD06-3317-40CA-B510-4969A0718C16";
paths = (
{
closed = 1;
nodes = (
"314 304 OFFCURVE",
"404 395 OFFCURVE",
"404 503 CURVE SMOOTH",
"404 613 OFFCURVE",
"314 705 OFFCURVE",
"200 705 CURVE SMOOTH",
"91 705 OFFCURVE",
"0 613 OFFCURVE",
"0 503 CURVE SMOOTH",
"0 395 OFFCURVE",
"91 304 OFFCURVE",
"200 304 CURVE SMOOTH"
);
},
{
closed = 1;
nodes = (
"119 348 OFFCURVE",
"50 416 OFFCURVE",
"50 503 CURVE SMOOTH",
"50 590 OFFCURVE",
"119 660 OFFCURVE",
"200 660 CURVE SMOOTH",
"286 660 OFFCURVE",
"354 590 OFFCURVE",
"354 503 CURVE SMOOTH",
"354 416 OFFCURVE",
"286 348 OFFCURVE",
"200 348 CURVE SMOOTH"
);
}
);
width = 433;
}
);
note = ordmasculine;
unicode = 00BA;
},
{
color = 0;
glyphname = nmod;
lastChange = "2017-12-19 04:28:47 +0000";
layers = (
{
layerId = "0B1DFD06-3317-40CA-B510-4969A0718C16";
paths = (
{
closed = 1;
nodes = (
"410 378 LINE",
"410 397 LINE",
"392 397 LINE SMOOTH",
"368 397 OFFCURVE",
"350 405 OFFCURVE",
"350 424 CURVE SMOOTH",
"350 599 LINE SMOOTH",
"350 660 OFFCURVE",
"323 708 OFFCURVE",
"240 708 CURVE SMOOTH",
"168 708 OFFCURVE",
"128 658 OFFCURVE",
"116 601 CURVE",
"116 548 LINE",
"135 548 LINE",
"135 628 OFFCURVE",
"173 677 OFFCURVE",
"221 677 CURVE SMOOTH",
"266 677 OFFCURVE",
"281 652 OFFCURVE",
"281 595 CURVE SMOOTH",
"281 424 LINE SMOOTH",
"281 405 OFFCURVE",
"264 397 OFFCURVE",
"239 397 CURVE SMOOTH",
"229 397 LINE",
"229 378 LINE"
);
},
{
closed = 1;
nodes = (
"187 378 LINE",
"187 397 LINE",
"177 397 LINE SMOOTH",
"152 397 OFFCURVE",
"135 405 OFFCURVE",
"135 424 CURVE SMOOTH",
"135 706 LINE",
"114 706 LINE",
"17 670 LINE",
"22 652 LINE",
"30 655 OFFCURVE",
"42 659 OFFCURVE",
"50 659 CURVE SMOOTH",
"58 659 OFFCURVE",
"66 656 OFFCURVE",
"66 643 CURVE SMOOTH",
"66 424 LINE SMOOTH",
"66 405 OFFCURVE",
"48 397 OFFCURVE",
"23 397 CURVE SMOOTH",
"6 397 LINE",
"6 378 LINE"
);
}
);
width = 416;
}
);
note = uni207F;
unicode = 207F;
},
{
glyphname = Delta;
lastChange = "2018-01-16 07:49:44 +0000";
layers = (
{
layerId = "0B1DFD06-3317-40CA-B510-4969A0718C16";
paths = (
{
closed = 1;
nodes = (
"590 0 LINE",
"295 709 LINE",
"0 0 LINE"
);
},
{
closed = 1;
nodes = (
"295 584 LINE",
"514 50 LINE",
"75 50 LINE"
);
}
);
width = 590;
}
);
note = Delta;
unicode = 0394;
},
{
glyphname = Omega;
lastChange = "2018-01-16 07:49:44 +0000";
layers = (
{
layerId = "0B1DFD06-3317-40CA-B510-4969A0718C16";
paths = (
{
closed = 1;
nodes = (
"282 0 LINE",
"282 199 LINE",
"190 227 OFFCURVE",
"125 317 OFFCURVE",
"125 423 CURVE SMOOTH",
"125 553 OFFCURVE",
"221 659 OFFCURVE",
"340 659 CURVE SMOOTH",
"460 659 OFFCURVE",
"556 553 OFFCURVE",
"556 423 CURVE SMOOTH",
"556 317 OFFCURVE",
"489 227 OFFCURVE",
"399 199 CURVE",
"399 0 LINE",
"628 0 LINE",
"628 32 OFFCURVE",
"610 50 OFFCURVE",
"578 50 CURVE SMOOTH",
"455 50 LINE",
"455 164 LINE",
"548 208 OFFCURVE",
"612 308 OFFCURVE",
"612 423 CURVE SMOOTH",
"612 582 OFFCURVE",
"491 709 OFFCURVE",
"340 709 CURVE SMOOTH",
"190 709 OFFCURVE",
"69 582 OFFCURVE",
"69 423 CURVE SMOOTH",
"69 308 OFFCURVE",
"133 208 OFFCURVE",
"226 164 CURVE",
"226 50 LINE",
"103 50 LINE SMOOTH",
"71 50 OFFCURVE",
"53 32 OFFCURVE",
"53 0 CURVE"
);
}
);
width = 681;
}
);
note = Omega;
unicode = 03A9;
},
{
glyphname = mu;
lastChange = "2018-01-16 07:49:44 +0000";
layers = (
{
layerId = "0B1DFD06-3317-40CA-B510-4969A0718C16";
paths = (
{
closed = 1;
nodes = (
"124 -209 OFFCURVE",
"142 -192 OFFCURVE",
"142 -156 CURVE SMOOTH",
"142 38 LINE",
"136 43 OFFCURVE",
"127 53 OFFCURVE",
"122 59 CURVE",
"124 63 LINE",
"159 19 OFFCURVE",
"220 -9 OFFCURVE",
"287 -9 CURVE SMOOTH",
"355 -9 OFFCURVE",
"416 19 OFFCURVE",
"451 63 CURVE",
"453 59 LINE",
"448 53 OFFCURVE",
"439 43 OFFCURVE",
"433 38 CURVE",
"433 -9 LINE",
"469 -9 OFFCURVE",
"486 9 OFFCURVE",
"486 44 CURVE SMOOTH",
"486 509 LINE",
"451 509 OFFCURVE",
"433 491 OFFCURVE",
"433 455 CURVE SMOOTH",
"433 159 LINE SMOOTH",
"433 96 OFFCURVE",
"371 40 OFFCURVE",
"287 40 CURVE SMOOTH",
"203 40 OFFCURVE",
"142 96 OFFCURVE",
"142 159 CURVE SMOOTH",
"142 509 LINE",
"106 509 OFFCURVE",
"88 491 OFFCURVE",
"88 455 CURVE SMOOTH",
"88 -209 LINE"
);
}
);
width = 574;
}
);
note = mu;
unicode = 03BC;
},
{
glyphname = pi;
lastChange = "2018-01-16 07:49:44 +0000";
layers = (
{
layerId = "0B1DFD06-3317-40CA-B510-4969A0718C16";
paths = (
{
closed = 1;
nodes = (
"88 451 LINE SMOOTH",
"88 488 OFFCURVE",
"109 511 OFFCURVE",
"146 511 CURVE",
"146 50 LINE SMOOTH",
"146 13 OFFCURVE",
"125 -9 OFFCURVE",
"88 -9 CURVE"
);
},
{
closed = 1;
nodes = (
"125 -9 OFFCURVE",
"146 13 OFFCURVE",
"146 50 CURVE SMOOTH",
"146 511 LINE",
"109 511 OFFCURVE",
"88 488 OFFCURVE",
"88 451 CURVE SMOOTH",
"88 -9 LINE"
);
}
);
width = 234;
}
);
note = pi;
unicode = 03C0;
},
{
color = 4;
glyphname = "koKai-thai";
lastChange = "2018-01-22 10:03:05 +0000";
layers = (
{
guideLines = (
{
position = "{-100, 403}";
}
);
layerId = "0B1DFD06-3317-40CA-B510-4969A0718C16";
paths = (
{
closed = 1;
nodes = (
"171 275 LINE SMOOTH",
"171 285 OFFCURVE",
"170 291 OFFCURVE",
"165 301 CURVE SMOOTH",
"114 403 LINE",
"129 470 OFFCURVE",
"201 542 OFFCURVE",
"302 542 CURVE SMOOTH",
"424 542 OFFCURVE",
"472 474 OFFCURVE",
"472 393 CURVE SMOOTH",
"472 -9 LINE",
"503 -9 OFFCURVE",
"528 18 OFFCURVE",
"528 53 CURVE SMOOTH",
"528 393 LINE SMOOTH",
"528 515 OFFCURVE",
"426 593 OFFCURVE",
"302 593 CURVE SMOOTH",
"180 593 OFFCURVE",
"90 511 OFFCURVE",
"60 414 CURVE SMOOTH",
"58 407 OFFCURVE",
"59 397 OFFCURVE",
"62 392 CURVE SMOOTH",
"115 286 LINE",
"115 53 LINE SMOOTH",
"115 18 OFFCURVE",
"140 -9 OFFCURVE",
"171 -9 CURVE"
);
}
);
width = 616;
}
);
note = uni0E01;
unicode = 0E01;
},
{
color = 4;
glyphname = "thoThung-thai";
lastChange = "2018-01-22 10:07:52 +0000";
layers = (
{
layerId = "0B1DFD06-3317-40CA-B510-4969A0718C16";
paths = (
{
closed = 1;
nodes = (
"256 -9 OFFCURVE",
"298 31 OFFCURVE",
"298 82 CURVE SMOOTH",
"298 132 OFFCURVE",
"261 171 OFFCURVE",
"211 171 CURVE SMOOTH",
"186 171 OFFCURVE",
"164 160 OFFCURVE",
"149 143 CURVE",
"147 145 LINE",
"154 155 OFFCURVE",
"162 162 OFFCURVE",
"171 167 CURVE",
"171 275 LINE SMOOTH",
"171 285 OFFCURVE",
"170 291 OFFCURVE",
"165 301 CURVE SMOOTH",
"114 403 LINE",
"129 470 OFFCURVE",
"201 542 OFFCURVE",
"302 542 CURVE SMOOTH",
"424 542 OFFCURVE",
"472 474 OFFCURVE",
"472 393 CURVE SMOOTH",
"472 -9 LINE",
"503 -9 OFFCURVE",
"528 18 OFFCURVE",
"528 53 CURVE SMOOTH",
"528 393 LINE SMOOTH",
"528 515 OFFCURVE",
"433 593 OFFCURVE",
"302 593 CURVE SMOOTH",
"180 593 OFFCURVE",
"88 512 OFFCURVE",
"60 414 CURVE SMOOTH",
"58 407 OFFCURVE",
"59 397 OFFCURVE",
"62 392 CURVE SMOOTH",
"115 286 LINE",
"115 86 LINE SMOOTH",
"115 30 OFFCURVE",
"153 -9 OFFCURVE",
"206 -9 CURVE SMOOTH"
);
},
{
closed = 1;
nodes = (
"179 34 OFFCURVE",
"159 54 OFFCURVE",
"159 82 CURVE SMOOTH",
"159 109 OFFCURVE",
"179 129 OFFCURVE",
"206 129 CURVE SMOOTH",
"234 129 OFFCURVE",
"254 109 OFFCURVE",
"254 82 CURVE SMOOTH",
"254 54 OFFCURVE",
"234 34 OFFCURVE",
"206 34 CURVE SMOOTH"
);
}
);
width = 616;
}
);
note = uni0E16;
unicode = 0E16;
},
{
glyphname = "phoSamphao-thai";
lastChange = "2018-01-22 09:11:49 +0000";
layers = (
{
layerId = "0B1DFD06-3317-40CA-B510-4969A0718C16";
paths = (
{
closed = 1;
nodes = (
"186 -9 OFFCURVE",
"227 32 OFFCURVE",
"227 83 CURVE SMOOTH",
"227 290 LINE SMOOTH",
"227 298 OFFCURVE",
"224 304 OFFCURVE",
"220 308 CURVE",
"220 308 OFFCURVE",
"152 391 OFFCURVE",
"142 404 CURVE",
"146 479 OFFCURVE",
"226 542 OFFCURVE",
"320 542 CURVE SMOOTH",
"419 542 OFFCURVE",
"498 473 OFFCURVE",
"498 397 CURVE SMOOTH",
"498 -9 LINE",
"529 -9 OFFCURVE",
"554 18 OFFCURVE",
"554 53 CURVE SMOOTH",
"554 397 LINE SMOOTH",
"554 520 OFFCURVE",
"430 593 OFFCURVE",
"320 593 CURVE SMOOTH",
"206 593 OFFCURVE",
"85 516 OFFCURVE",
"85 397 CURVE SMOOTH",
"85 391 OFFCURVE",
"88 383 OFFCURVE",
"91 379 CURVE",
"91 379 OFFCURVE",
"159 295 OFFCURVE",
"171 282 CURVE",
"171 174 LINE",
"181 168 OFFCURVE",
"189 161 OFFCURVE",
"195 150 CURVE",
"193 146 LINE",
"180 167 OFFCURVE",
"162 174 OFFCURVE",
"136 174 CURVE SMOOTH",
"85 174 OFFCURVE",
"44 133 OFFCURVE",
"44 83 CURVE SMOOTH",
"44 32 OFFCURVE",
"85 -9 OFFCURVE",
"136 -9 CURVE SMOOTH"
);
},
{
closed = 1;
nodes = (
"109 35 OFFCURVE",
"88 56 OFFCURVE",
"88 83 CURVE SMOOTH",
"88 109 OFFCURVE",
"109 130 OFFCURVE",
"136 130 CURVE SMOOTH",
"162 130 OFFCURVE",
"183 109 OFFCURVE",
"183 83 CURVE SMOOTH",
"183 56 OFFCURVE",
"162 35 OFFCURVE",
"136 35 CURVE SMOOTH"
);
}
);
width = 643;
}
);
note = uni0E20;
unicode = 0E20;
},
{
color = 4;
glyphname = "ru-thai";
lastChange = "2018-01-22 10:08:16 +0000";
layers = (
{
layerId = "0B1DFD06-3317-40CA-B510-4969A0718C16";
paths = (
{
closed = 1;
nodes = (
"256 -9 OFFCURVE",
"298 31 OFFCURVE",
"298 82 CURVE SMOOTH",
"298 132 OFFCURVE",
"261 171 OFFCURVE",
"211 171 CURVE SMOOTH",
"186 171 OFFCURVE",
"164 160 OFFCURVE",
"149 143 CURVE",
"147 145 LINE",
"154 155 OFFCURVE",
"162 162 OFFCURVE",
"171 167 CURVE",
"171 275 LINE SMOOTH",
"171 285 OFFCURVE",
"170 291 OFFCURVE",
"165 301 CURVE SMOOTH",
"114 403 LINE",
"129 470 OFFCURVE",
"201 542 OFFCURVE",
"302 542 CURVE SMOOTH",
"424 542 OFFCURVE",
"472 474 OFFCURVE",
"472 393 CURVE SMOOTH",
"472 -237 LINE",
"503 -237 OFFCURVE",
"528 -210 OFFCURVE",
"528 -175 CURVE SMOOTH",
"528 393 LINE SMOOTH",
"528 515 OFFCURVE",
"433 593 OFFCURVE",
"302 593 CURVE SMOOTH",
"180 593 OFFCURVE",
"88 512 OFFCURVE",
"60 414 CURVE SMOOTH",
"58 407 OFFCURVE",
"59 397 OFFCURVE",
"62 392 CURVE SMOOTH",
"115 286 LINE",
"115 86 LINE SMOOTH",
"115 30 OFFCURVE",
"153 -9 OFFCURVE",
"206 -9 CURVE SMOOTH"
);
},
{
closed = 1;
nodes = (
"179 34 OFFCURVE",
"159 54 OFFCURVE",
"159 82 CURVE SMOOTH",
"159 109 OFFCURVE",
"179 129 OFFCURVE",
"206 129 CURVE SMOOTH",
"234 129 OFFCURVE",
"254 109 OFFCURVE",
"254 82 CURVE SMOOTH",
"254 54 OFFCURVE",
"234 34 OFFCURVE",
"206 34 CURVE SMOOTH"
);
}
);
width = 616;
}
);
note = uni0E24;
unicode = 0E24;
},
{
color = 4;
glyphname = "ru-thai.short";
lastChange = "2018-01-22 10:08:31 +0000";
layers = (
{
layerId = "0B1DFD06-3317-40CA-B510-4969A0718C16";
paths = (
{
closed = 1;
nodes = (
"256 -9 OFFCURVE",
"298 31 OFFCURVE",
"298 82 CURVE SMOOTH",
"298 132 OFFCURVE",
"261 171 OFFCURVE",
"211 171 CURVE SMOOTH",
"186 171 OFFCURVE",
"164 160 OFFCURVE",
"149 143 CURVE",
"147 145 LINE",
"154 155 OFFCURVE",
"162 162 OFFCURVE",
"171 167 CURVE",
"171 275 LINE SMOOTH",
"171 285 OFFCURVE",
"170 291 OFFCURVE",
"165 301 CURVE SMOOTH",
"114 403 LINE",
"129 470 OFFCURVE",
"201 542 OFFCURVE",
"302 542 CURVE SMOOTH",
"424 542 OFFCURVE",
"472 474 OFFCURVE",
"472 393 CURVE SMOOTH",
"472 -140 LINE",
"503 -140 OFFCURVE",
"528 -113 OFFCURVE",
"528 -78 CURVE SMOOTH",
"528 393 LINE SMOOTH",
"528 515 OFFCURVE",
"433 593 OFFCURVE",
"302 593 CURVE SMOOTH",
"180 593 OFFCURVE",
"88 512 OFFCURVE",
"60 414 CURVE SMOOTH",
"58 407 OFFCURVE",
"59 397 OFFCURVE",
"62 392 CURVE SMOOTH",
"115 286 LINE",
"115 86 LINE SMOOTH",
"115 30 OFFCURVE",
"153 -9 OFFCURVE",
"206 -9 CURVE SMOOTH"
);
},
{
closed = 1;
nodes = (
"179 34 OFFCURVE",
"159 54 OFFCURVE",
"159 82 CURVE SMOOTH",
"159 109 OFFCURVE",
"179 129 OFFCURVE",
"206 129 CURVE SMOOTH",
"234 129 OFFCURVE",
"254 109 OFFCURVE",
"254 82 CURVE SMOOTH",
"254 54 OFFCURVE",
"234 34 OFFCURVE",
"206 34 CURVE SMOOTH"
);
}
);
width = 585;
}
);
note = "ru-thai.short";
},
{
glyphname = "lu-thai";
lastChange = "2018-01-16 07:49:44 +0000";
layers = (
{
layerId = "0B1DFD06-3317-40CA-B510-4969A0718C16";
paths = (
{
closed = 1;
nodes = (
"529 -237 OFFCURVE",
"554 -211 OFFCURVE",
"554 -175 CURVE SMOOTH",
"554 397 LINE SMOOTH",
"554 520 OFFCURVE",
"430 593 OFFCURVE",
"320 593 CURVE SMOOTH",
"206 593 OFFCURVE",
"85 516 OFFCURVE",
"85 397 CURVE SMOOTH",
"85 391 OFFCURVE",
"88 383 OFFCURVE",
"91 379 CURVE",
"91 379 OFFCURVE",
"159 295 OFFCURVE",
"171 282 CURVE",
"171 174 LINE",
"181 168 OFFCURVE",
"189 161 OFFCURVE",
"195 150 CURVE",
"193 146 LINE",
"180 167 OFFCURVE",
"162 174 OFFCURVE",
"136 174 CURVE SMOOTH",
"85 174 OFFCURVE",
"44 133 OFFCURVE",
"44 83 CURVE SMOOTH",
"44 32 OFFCURVE",
"85 -9 OFFCURVE",
"136 -9 CURVE SMOOTH",
"186 -9 OFFCURVE",
"227 32 OFFCURVE",
"227 83 CURVE SMOOTH",
"227 290 LINE SMOOTH",
"227 298 OFFCURVE",
"224 304 OFFCURVE",
"220 308 CURVE",
"220 308 OFFCURVE",
"152 391 OFFCURVE",
"142 404 CURVE",
"146 479 OFFCURVE",
"226 542 OFFCURVE",
"320 542 CURVE SMOOTH",
"419 542 OFFCURVE",
"498 473 OFFCURVE",
"498 397 CURVE SMOOTH",
"498 -237 LINE"
);
},
{
closed = 1;
nodes = (
"109 35 OFFCURVE",
"88 56 OFFCURVE",
"88 83 CURVE SMOOTH",
"88 109 OFFCURVE",
"109 130 OFFCURVE",
"136 130 CURVE SMOOTH",
"162 130 OFFCURVE",
"183 109 OFFCURVE",
"183 83 CURVE SMOOTH",
"183 56 OFFCURVE",
"162 35 OFFCURVE",
"136 35 CURVE SMOOTH"
);
}
);
width = 643;
}
);
note = uni0E26;
unicode = 0E26;
},
